<?xml version="1.0" standalone="no"?>
<!DOCTYPE svg PUBLIC "-//W3C//DTD SVG 20010904//EN"
 "http://www.w3.org/TR/2001/REC-SVG-20010904/DTD/svg10.dtd">
<svg version="1.0" xmlns="http://www.w3.org/2000/svg"
 width="1072.000000pt" height="1280.000000pt" viewBox="0 0 1072.000000 1280.000000"
 preserveAspectRatio="xMidYMid meet">
<metadata>
Created by potrace 1.15, written by Peter Selinger 2001-2017
</metadata>
<g transform="translate(0.000000,1280.000000) scale(0.100000,-0.100000)"
fill="#000000" stroke="none">
<path d="M6772 12779 c-23 -12 -62 -43 -85 -69 -26 -30 -210 -167 -492 -366
-247 -174 -567 -408 -710 -518 -143 -110 -357 -275 -475 -366 -118 -92 -575
-443 -1015 -782 -440 -338 -1137 -875 -1550 -1192 -412 -318 -1131 -871 -1597
-1229 l-848 -652 0 -1662 0 -1661 68 -38 c37 -20 123 -69 192 -109 69 -40 197
-114 285 -165 88 -51 216 -125 285 -165 69 -40 229 -132 355 -205 127 -72 234
-135 238 -140 5 -4 -96 -67 -223 -140 -128 -73 -234 -139 -237 -147 -9 -24 18
-141 49 -205 16 -34 45 -82 65 -106 l35 -43 -17 -42 c-77 -190 -83 -373 -16
-478 23 -36 63 -63 301 -200 266 -154 277 -159 331 -159 46 0 72 8 140 42 151
75 285 232 341 400 11 34 22 65 24 66 2 3 2079 -1191 2091 -1202 2 -1 9 -38
18 -82 17 -91 58 -181 110 -241 34 -40 35 -44 22 -70 -24 -46 -57 -164 -68
-239 -8 -56 -6 -88 5 -145 19 -88 51 -140 108 -172 24 -14 147 -85 273 -159
227 -132 231 -133 291 -133 84 0 189 54 289 147 154 144 234 335 235 559 0
162 -17 191 -169 277 -127 72 -121 57 -65 180 35 77 87 149 141 195 25 22
2585 1507 2597 1507 2 0 6 -33 9 -73 9 -105 41 -201 83 -247 24 -26 118 -87
279 -180 269 -155 299 -170 348 -170 58 0 150 30 226 73 249 142 416 394 466
702 19 117 19 236 0 310 -17 63 -57 125 -81 125 -7 0 -14 6 -14 13 0 6 -23 25
-52 40 l-51 29 59 61 c80 82 90 91 157 137 l58 39 3 2768 4 2768 458 482 c363
381 464 482 484 483 41 0 121 69 153 131 31 61 45 149 29 190 -8 20 -395 248
-1935 1137 -1059 612 -1933 1112 -1943 1112 -11 0 -38 -10 -62 -21z m1724
-1396 c1383 -799 1810 -1051 1801 -1059 -16 -16 -707 -504 -712 -504 -2 0 -48
25 -102 57 -54 31 -316 182 -583 336 -267 154 -543 314 -615 355 -71 41 -188
109 -260 150 -71 41 -188 108 -260 150 -304 175 -819 473 -965 557 -69 40
-186 107 -260 150 -74 43 -166 96 -205 118 -146 83 -236 139 -233 147 6 17
560 590 570 590 6 0 826 -471 1824 -1047z m-2746 312 l0 -105 -37 -23 c-21
-13 -64 -38 -95 -56 l-58 -32 0 109 0 110 88 50 c48 28 90 51 95 51 4 1 7 -46
7 -104z m290 -49 l0 -115 -72 41 c-40 23 -75 43 -77 45 -6 5 131 143 141 143
5 0 8 -52 8 -114z m199 -8 l91 -52 0 -108 c0 -59 -3 -108 -7 -108 -5 1 -48 25
-98 54 l-90 52 -3 107 c-1 61 1 107 7 107 5 0 50 -23 100 -52z m-779 -107 l0
-110 -62 -37 c-35 -20 -78 -46 -96 -57 l-33 -19 3 113 3 113 90 52 c50 29 91
53 93 54 1 0 2 -49 2 -109z m503 -66 c38 -21 71 -43 73 -49 3 -7 3 -58 2 -113
l-3 -101 -90 52 -90 52 -3 113 -3 114 23 -15 c13 -8 54 -32 91 -53z m560 10
l87 -50 0 -112 0 -112 -95 56 -95 55 0 110 c0 60 3 108 8 106 4 -1 47 -25 95
-53z m-1350 -112 l-1 -108 -89 -52 c-48 -29 -91 -53 -95 -53 -5 0 -8 40 -8 89
l0 88 93 71 c50 39 94 71 97 72 3 0 4 -48 3 -107z m577 -1 l0 -108 -87 -50
c-48 -27 -91 -50 -95 -52 -4 -2 -8 45 -8 105 l0 109 88 51 c48 28 90 52 95 52
4 1 7 -48 7 -107z m485 -55 l90 -53 3 -107 c1 -59 -1 -107 -5 -107 -4 0 -48
24 -98 53 l-90 53 -3 107 c-1 59 1 107 6 107 4 0 48 -24 97 -53z m576 1 l89
-52 0 -108 c0 -59 -2 -108 -5 -108 -3 0 -46 24 -95 52 l-90 53 0 107 c0 60 3
108 6 108 3 0 46 -23 95 -52z m-1351 -111 l0 -113 -32 -17 c-18 -9 -61 -32
-96 -52 l-63 -37 3 112 3 112 90 53 c50 29 91 54 93 54 1 1 2 -50 2 -112z
m-572 -28 l-3 -81 -93 -54 c-52 -30 -94 -54 -95 -54 -1 0 0 30 3 67 l5 67 85
67 c47 37 89 68 93 68 4 1 7 -36 5 -80z m1150 -190 l3 -111 -58 33 c-32 18
-75 42 -95 53 l-38 21 0 112 0 112 93 -54 92 -54 3 -112z m522 141 l45 -26 3
-114 3 -113 -23 15 c-13 8 -56 34 -95 57 l-73 42 0 110 0 111 48 -28 c26 -15
67 -40 92 -54z m628 -141 l3 -111 -58 33 c-32 18 -75 42 -95 53 l-38 21 0 112
0 112 93 -54 92 -54 3 -112z m-2016 51 l-3 -110 -86 -50 c-46 -27 -89 -50 -94
-50 -6 0 -8 45 -7 107 l3 107 90 53 c50 29 92 53 95 53 3 0 4 -49 2 -110z
m578 1 l0 -109 -89 -51 c-49 -28 -91 -51 -95 -51 -3 0 -6 48 -6 108 l0 107 88
52 c48 28 90 52 95 52 4 1 7 -48 7 -108z m-1150 -55 l0 -54 -90 -51 c-49 -28
-92 -51 -95 -51 -3 0 -5 15 -5 34 0 31 8 40 93 105 50 39 93 71 95 71 1 0 2
-24 2 -54z m1635 1 l90 -53 3 -107 c2 -64 -1 -107 -7 -107 -5 0 -50 24 -100
53 l-91 52 0 108 c0 59 3 107 8 107 4 0 48 -24 97 -53z m578 -2 l87 -50 0
-107 c0 -60 -3 -108 -6 -108 -4 0 -46 23 -95 51 l-89 51 0 110 c0 60 3 108 8
106 4 -1 47 -25 95 -53z m572 2 l90 -53 3 -107 c2 -82 0 -107 -10 -106 -7 0
-51 24 -98 52 l-85 52 -3 108 c-1 59 1 107 5 107 4 0 49 -24 98 -53z m-2499
-212 c-3 -9 -177 -115 -188 -115 -2 0 -1 50 2 111 l5 111 90 53 90 53 3 -101
c1 -55 1 -106 -2 -112z m574 103 l0 -113 -87 -50 c-48 -27 -91 -51 -95 -53 -5
-2 -8 46 -8 106 l0 110 93 55 c50 30 93 55 95 56 1 1 2 -50 2 -111z m513 -72
l67 -38 0 -110 c0 -60 -4 -108 -8 -106 -5 2 -48 26 -95 53 l-87 50 0 113 0
113 28 -19 c15 -10 57 -36 95 -56z m635 -146 l3 -112 -58 33 c-32 18 -75 43
-95 56 l-38 23 0 110 0 109 93 -53 92 -54 3 -112z m1150 0 l3 -112 -58 33
c-32 18 -75 43 -95 56 l-38 23 0 110 0 109 93 -53 92 -54 3 -112z m-658 159
l90 -51 0 -110 c0 -60 -4 -108 -8 -106 -4 2 -47 25 -95 52 l-87 50 0 108 c0
59 2 108 5 108 3 0 46 -23 95 -51z m-2790 -26 c0 -25 -11 -34 -87 -78 -103
-59 -107 -61 -102 -47 3 8 177 149 187 151 1 1 2 -11 2 -26z m283 -194 c-4 -4
-47 -30 -95 -58 l-88 -50 0 112 0 112 93 52 92 51 3 -105 c1 -59 -1 -110 -5
-114z m577 108 l0 -113 -32 -17 c-18 -9 -61 -32 -95 -52 l-63 -36 0 110 0 110
93 55 c50 30 93 55 95 56 1 0 2 -51 2 -113z m573 -107 c-4 -4 -47 -30 -95 -59
l-88 -51 0 113 0 112 93 52 92 51 3 -105 c1 -59 -1 -109 -5 -113z m489 56 l93
-54 3 -112 3 -112 -43 25 c-24 13 -69 39 -100 57 l-58 32 0 109 c0 60 2 109 4
109 3 0 46 -24 98 -54z m636 -33 l32 -17 0 -112 0 -113 -92 53 -93 54 -3 112
-3 112 63 -37 c35 -20 78 -43 96 -52z m514 33 l93 -54 3 -112 3 -112 -43 25
c-24 13 -69 39 -100 57 l-58 32 0 109 c0 60 2 109 4 109 3 0 46 -24 98 -54z
m636 -33 l32 -17 0 -112 0 -113 -92 53 -93 54 -3 112 -3 112 63 -37 c35 -20
78 -43 96 -52z m-3708 -82 l0 -109 -90 -51 c-49 -28 -92 -51 -95 -51 -3 0 -5
49 -5 108 l0 108 88 51 c48 28 90 52 95 52 4 1 7 -48 7 -108z m580 2 l0 -108
-93 -52 c-52 -29 -95 -53 -98 -53 -2 0 -2 50 1 111 l5 110 85 50 c47 27 88 49
92 49 5 0 8 -48 8 -107z m570 -1 l0 -108 -89 -52 c-49 -29 -92 -52 -95 -52 -3
0 -6 49 -6 108 l0 108 88 51 c48 28 90 52 95 52 4 1 7 -48 7 -107z m493 -57
l87 -50 0 -107 c0 -60 -2 -108 -5 -108 -3 0 -46 23 -95 51 l-90 51 0 110 c0
60 4 108 8 106 5 -1 48 -25 95 -53z m568 4 l89 -51 0 -110 0 -110 -67 38 c-36
20 -79 44 -95 53 l-28 16 0 108 c0 59 3 107 6 107 4 0 47 -23 95 -51z m582 -3
l87 -50 0 -108 c0 -59 -2 -108 -5 -108 -3 0 -46 23 -95 51 l-90 51 0 110 c0
60 4 108 8 106 4 -1 47 -25 95 -52z m568 3 l89 -51 0 -110 0 -110 -67 38 c-36
20 -79 44 -95 53 l-28 16 0 108 c0 59 3 107 6 107 4 0 47 -23 95 -51z m582 -3
l87 -50 0 -108 c0 -59 -2 -108 -5 -108 -3 0 -46 23 -95 51 l-90 51 0 110 c0
60 4 108 8 106 4 -1 47 -25 95 -52z m-4223 -105 l0 -109 -92 -54 c-51 -29 -96
-54 -100 -56 -4 -2 -8 46 -8 106 l0 110 93 55 c50 30 95 55 100 56 4 1 7 -48
7 -108z m566 -107 c-2 -6 -35 -28 -73 -49 -37 -21 -78 -45 -91 -53 l-23 -15 3
114 3 113 90 52 90 52 3 -101 c1 -55 1 -106 -2 -113z m576 99 l-3 -108 -87
-50 c-48 -28 -90 -51 -94 -53 -5 -2 -8 46 -8 106 l0 109 93 55 c50 30 94 54
97 52 3 -1 4 -51 2 -111z m578 4 l0 -113 -42 -22 c-24 -11 -67 -35 -95 -52
l-53 -32 0 111 0 110 93 55 c50 31 93 55 95 56 1 0 2 -51 2 -113z m488 -56
l92 -53 0 -110 c0 -60 -4 -108 -8 -106 -4 2 -49 27 -100 56 l-92 54 0 110 c0
60 3 108 8 106 4 -1 49 -27 100 -57z m600 -15 l62 -37 0 -110 0 -110 -47 28
c-27 15 -68 39 -93 53 l-45 26 -3 113 -3 113 33 -19 c18 -11 61 -37 96 -57z
m550 15 l92 -53 0 -110 c0 -60 -4 -108 -8 -106 -4 2 -49 27 -100 56 l-92 54 0
110 c0 60 3 108 8 106 4 -1 49 -27 100 -57z m600 -15 l62 -37 0 -110 0 -110
-47 28 c-27 15 -68 39 -93 53 l-45 26 -3 113 -3 113 33 -19 c18 -11 61 -37 96
-57z m550 16 l92 -54 0 -110 c0 -60 -4 -108 -8 -106 -4 2 -49 27 -100 56 l-92
54 0 110 c0 60 4 108 8 106 4 -1 49 -27 100 -56z m-4798 -110 l0 -108 -87 -50
c-48 -27 -91 -50 -95 -52 -4 -2 -8 46 -8 106 l0 110 88 50 c48 28 90 51 95 51
4 1 7 -48 7 -107z m570 -1 l0 -109 -89 -51 c-48 -28 -91 -51 -95 -51 -3 0 -6
48 -6 108 l0 107 93 52 c50 29 93 53 95 53 1 0 2 -49 2 -109z m580 2 l0 -108
-91 -52 c-50 -29 -93 -53 -97 -53 -4 0 -6 49 -4 108 l3 108 87 52 c48 28 90
51 95 52 4 0 7 -48 7 -107z m570 -2 l0 -109 -89 -51 c-48 -28 -91 -51 -95 -51
-3 0 -6 48 -6 108 l0 107 93 52 c50 29 93 53 95 53 1 0 2 -49 2 -109z m542
-85 l38 -21 0 -109 c0 -125 10 -121 -112 -49 l-78 45 0 110 0 110 58 -33 c31
-18 74 -42 94 -53z m518 32 l90 -53 0 -107 c0 -60 -2 -108 -5 -108 -3 0 -46
24 -95 52 l-90 53 0 107 c0 60 2 108 5 108 3 0 46 -24 95 -52z m632 -32 l38
-21 0 -107 c0 -60 -3 -108 -6 -108 -4 0 -47 23 -95 51 l-89 51 0 110 0 110 58
-33 c31 -18 74 -42 94 -53z m518 32 l90 -53 0 -107 c0 -60 -2 -108 -5 -108 -3
0 -46 24 -95 52 l-90 53 0 107 c0 60 2 108 5 108 3 0 46 -24 95 -52z m632 -32
l38 -21 0 -112 0 -112 -92 54 -93 54 -3 112 -3 111 58 -33 c32 -18 75 -42 95
-53z m519 32 l89 -52 0 -108 c0 -59 -2 -108 -5 -108 -3 0 -46 24 -95 52 l-90
53 0 107 c0 60 3 108 6 108 3 0 46 -23 95 -52z m-4221 -111 l0 -113 -32 -17
c-18 -9 -61 -32 -95 -52 l-63 -36 0 109 0 110 93 55 c50 30 93 55 95 56 1 1 2
-50 2 -112z m1150 1 l0 -113 -28 -16 c-16 -9 -59 -33 -95 -53 l-67 -38 0 110
0 110 93 55 c50 30 93 55 95 56 1 1 2 -50 2 -111z m-2300 -5 l0 -108 -38 -21
c-20 -11 -63 -35 -94 -53 l-58 -33 1 94 0 93 87 67 c48 37 90 67 95 68 4 0 7
-48 7 -107z m580 3 l0 -105 -94 -55 c-52 -31 -97 -56 -100 -56 -3 0 -6 49 -6
109 l0 109 88 50 c48 28 93 51 100 51 9 1 12 -26 12 -103z m1143 -3 l-1 -108
-89 -52 c-48 -29 -91 -52 -95 -53 -5 0 -8 49 -8 108 l0 108 88 51 c48 28 92
52 97 52 6 1 9 -40 8 -106z m1727 -215 l0 -110 -67 38 c-36 20 -79 44 -95 53
l-28 16 0 112 0 112 95 -56 95 -55 0 -110z m1150 0 l0 -110 -57 33 c-32 18
-75 42 -95 53 l-38 21 0 112 0 112 95 -56 95 -55 0 -110z m1150 0 l0 -110 -57
33 c-32 18 -75 42 -95 53 l-38 21 0 112 0 112 95 -56 95 -55 0 -110z m-2961
160 l91 -52 0 -108 c0 -59 -3 -108 -6 -108 -3 0 -48 25 -100 55 l-94 56 0 104
c0 58 4 105 9 105 5 0 50 -23 100 -52z m1151 0 l90 -53 0 -107 c0 -60 -3 -108
-6 -108 -3 0 -48 25 -100 55 l-94 56 0 104 c0 66 4 105 10 105 6 0 51 -24 100
-52z m1149 0 l91 -52 0 -108 c0 -59 -3 -108 -6 -108 -3 0 -48 25 -100 55 l-94
56 0 104 c0 58 4 105 9 105 5 0 50 -23 100 -52z m-4799 -107 l0 -109 -89 -51
c-49 -28 -91 -51 -95 -51 -3 0 -6 49 -6 108 l0 108 88 51 c48 28 90 52 95 52
4 1 7 -48 7 -108z m563 -112 c-4 -4 -48 -30 -96 -58 l-88 -50 3 111 3 112 90
52 90 53 3 -106 c1 -58 -1 -110 -5 -114z m587 112 l0 -109 -87 -51 c-49 -27
-92 -50 -96 -50 -5 -1 -9 47 -9 105 l0 107 89 52 c48 29 91 54 96 54 4 1 7
-48 7 -108z m570 0 l0 -110 -62 -37 c-35 -20 -78 -46 -96 -57 l-33 -19 3 113
3 113 90 53 c50 29 91 53 93 53 1 0 2 -49 2 -109z m-2300 -30 l0 -80 -62 -37
c-35 -20 -78 -46 -95 -56 l-33 -20 0 66 0 65 91 70 c50 39 93 71 95 71 2 0 4
-36 4 -79z m2803 -36 c38 -21 71 -43 73 -49 3 -7 3 -58 2 -113 l-3 -101 -90
52 -90 52 -3 113 -3 114 23 -15 c13 -8 54 -32 91 -53z m560 10 l87 -50 0 -112
0 -112 -95 56 -95 55 0 110 c0 60 3 108 8 106 4 -1 47 -25 95 -53z m590 -10
c38 -21 71 -43 73 -49 3 -7 3 -58 2 -113 l-3 -101 -90 52 -90 52 -3 113 -3
114 23 -15 c13 -8 54 -32 91 -53z m560 10 l87 -50 0 -112 0 -112 -95 56 -95
55 0 110 c0 60 3 108 8 106 4 -1 47 -25 95 -53z m590 -10 c38 -21 71 -43 73
-49 3 -7 3 -58 2 -113 l-3 -101 -92 54 -93 55 0 111 0 110 23 -14 c12 -8 53
-32 90 -53z m560 10 l87 -50 0 -112 0 -112 -95 56 -95 55 0 110 c0 60 3 108 8
106 4 -1 47 -25 95 -53z m617 -25 c25 -15 45 -31 45 -37 0 -6 -33 -37 -74 -68
-99 -78 -105 -74 -109 74 l-3 112 48 -27 c26 -16 68 -40 93 -54z m-5990 -87
l0 -108 -87 -50 c-47 -27 -90 -51 -95 -53 -4 -2 -8 46 -8 106 l0 109 88 51
c48 28 90 52 95 52 4 0 7 -48 7 -107z m578 0 l-3 -107 -90 -53 c-49 -29 -93
-53 -97 -53 -14 0 -9 207 5 218 19 16 171 102 180 102 4 0 6 -48 5 -107z m572
-1 l0 -108 -87 -50 c-48 -27 -91 -50 -95 -52 -4 -2 -8 46 -8 106 l0 110 88 50
c48 28 90 51 95 51 4 1 7 -48 7 -107z m573 1 l-1 -108 -89 -52 c-48 -29 -91
-53 -95 -53 -14 0 -9 207 5 218 15 13 170 102 177 102 3 0 4 -48 3 -107z m577
-1 l0 -108 -87 -50 c-48 -27 -91 -50 -95 -52 -4 -2 -8 46 -8 106 l0 110 88 50
c48 28 90 51 95 51 4 1 7 -48 7 -107z m-2872 -54 l-3 -53 -90 -52 c-49 -29
-93 -53 -97 -53 -5 0 -8 15 -8 34 0 31 8 40 93 104 50 39 96 71 100 71 4 1 7
-23 5 -51z m3331 15 c129 -71 121 -59 121 -179 0 -57 -3 -104 -7 -104 -5 0
-48 24 -98 53 l-90 53 -3 107 c-1 59 0 107 4 107 4 0 37 -16 73 -37z m601 -14
l90 -51 0 -110 c0 -60 -4 -108 -8 -106 -4 2 -47 25 -95 52 l-87 50 0 108 c0
59 2 108 5 108 3 0 46 -23 95 -51z m549 14 c129 -71 121 -59 121 -179 0 -57
-3 -104 -7 -104 -5 0 -48 24 -98 53 l-90 53 -3 107 c-1 59 0 107 4 107 4 0 37
-16 73 -37z m601 -14 l90 -51 0 -110 c0 -60 -4 -108 -8 -106 -4 2 -47 25 -95
52 l-87 50 0 108 c0 59 2 108 5 108 3 0 46 -23 95 -51z m549 14 c129 -71 121
-59 121 -179 0 -57 -3 -104 -7 -104 -5 0 -48 24 -98 53 l-90 53 -3 107 c-1 59
0 107 4 107 4 0 37 -16 73 -37z m601 -14 c89 -51 90 -52 90 -90 0 -35 -5 -42
-55 -80 l-54 -41 -41 23 -40 23 0 108 c0 59 2 108 5 108 3 0 46 -23 95 -51z
m-5954 -214 c-2 -7 -28 -26 -58 -42 -29 -17 -70 -41 -90 -53 l-38 -22 0 110 0
111 93 54 92 55 3 -101 c1 -55 1 -106 -2 -112z m577 -6 c-4 -4 -47 -30 -95
-58 l-88 -50 0 112 0 112 93 52 92 51 3 -105 c1 -59 -1 -110 -5 -114z m577
108 l0 -113 -32 -17 c-18 -9 -61 -32 -96 -52 l-63 -37 3 112 3 112 90 53 c50
29 91 54 93 54 1 1 2 -50 2 -112z m573 -108 c-7 -6 -182 -109 -186 -109 -1 0
-1 51 1 112 l3 113 92 52 92 51 3 -105 c1 -59 -1 -110 -5 -114z m577 108 l0
-113 -32 -17 c-18 -9 -61 -32 -96 -52 l-63 -37 3 112 3 112 90 53 c50 29 91
54 93 54 1 1 2 -50 2 -112z m578 -217 l3 -112 -63 37 c-35 20 -78 43 -95 52
l-33 17 0 112 0 113 93 -53 92 -54 3 -112z m540 133 l32 -17 0 -112 0 -113
-92 53 -93 54 -3 112 -3 112 63 -37 c35 -20 78 -43 96 -52z m610 -133 l3 -112
-63 37 c-35 20 -78 43 -95 52 l-33 17 0 112 0 113 93 -53 92 -54 3 -112z m535
133 l37 -23 0 -110 0 -109 -92 53 -93 54 -3 112 -3 112 58 -33 c32 -18 75 -43
96 -56z m615 -133 l3 -112 -63 37 c-35 20 -78 43 -95 52 l-33 17 0 112 0 113
93 -53 92 -54 3 -112z m540 133 c32 -16 32 -18 32 -87 0 -69 -1 -72 -34 -94
l-33 -23 -62 36 -61 36 0 110 0 110 63 -36 c34 -20 77 -43 95 -52z m-6290 1
c-2 -22 -20 -36 -96 -80 -52 -30 -92 -48 -90 -42 5 14 168 146 181 147 5 1 7
-11 5 -25z m292 -78 c0 -103 0 -105 -27 -124 -36 -24 -158 -92 -167 -92 -4 0
-5 48 -4 107 l3 107 90 53 c50 29 93 53 98 53 4 0 7 -47 7 -104z m570 -5 l0
-109 -90 -51 c-49 -28 -92 -51 -95 -51 -3 0 -5 48 -5 108 l0 107 88 52 c48 28
90 52 95 52 4 1 7 -48 7 -108z m578 2 l-3 -108 -85 -52 c-47 -28 -91 -52 -98
-52 -10 -1 -12 24 -10 106 l3 107 90 53 c50 29 94 53 98 53 4 0 6 -48 5 -107z
m572 -2 l0 -109 -89 -51 c-49 -28 -91 -51 -95 -51 -3 0 -6 48 -6 108 l0 107
88 52 c48 28 90 52 95 52 4 1 7 -48 7 -108z m570 -2 l-5 -112 -85 -48 c-47
-27 -89 -49 -93 -49 -4 0 -6 48 -5 107 l3 107 90 53 c50 29 92 53 95 53 3 0 3
-50 0 -111z m580 2 l0 -109 -90 -51 c-49 -28 -92 -51 -95 -51 -3 0 -5 49 -5
108 l0 108 88 51 c48 28 90 52 95 52 4 1 7 -48 7 -108z m3697 84 c42 -25 43
-27 43 -80 0 -53 -1 -55 -43 -80 -24 -14 -47 -25 -50 -25 -4 0 -7 47 -7 105 0
58 3 105 7 105 3 0 26 -11 50 -25z m-3212 -138 l90 -53 3 -107 c2 -82 0 -107
-10 -106 -7 0 -51 24 -98 52 l-85 52 -3 108 c-1 59 1 107 5 107 4 0 49 -24 98
-53z m578 -2 l87 -50 0 -107 c0 -60 -2 -108 -5 -108 -3 0 -46 23 -95 51 l-90
51 0 110 c0 60 4 108 8 106 5 -1 48 -25 95 -53z m572 2 l90 -53 3 -107 c2 -82
0 -107 -10 -106 -7 0 -51 24 -98 52 l-85 52 -3 108 c-1 59 1 107 5 107 4 0 49
-24 98 -53z m578 -2 l87 -50 0 -107 c0 -60 -3 -108 -6 -108 -4 0 -46 23 -95
51 l-89 51 0 110 c0 60 4 108 8 106 5 -1 48 -25 95 -53z m572 2 l90 -53 3 -90
c4 -120 -5 -128 -85 -83 -120 67 -113 56 -113 175 0 57 3 104 8 104 4 0 48
-24 97 -53z m-5949 -213 c-2 -6 -35 -28 -73 -49 -37 -21 -78 -45 -91 -53 l-23
-15 3 114 3 113 90 52 90 52 3 -101 c1 -55 1 -106 -2 -113z m1150 1 c-2 -7
-28 -26 -58 -42 -29 -17 -70 -41 -90 -53 l-38 -22 0 111 0 110 93 55 92 54 3
-101 c1 -55 1 -106 -2 -112z m574 103 l0 -113 -87 -50 c-48 -27 -91 -51 -95
-53 -5 -2 -8 46 -8 106 l0 110 93 55 c50 30 93 55 95 56 1 1 2 -50 2 -111z
m576 -103 c-3 -9 -177 -115 -188 -115 -2 0 -1 50 2 112 l5 112 90 52 90 52 3
-101 c1 -55 1 -106 -2 -112z m574 103 l0 -113 -87 -50 c-48 -27 -91 -51 -95
-53 -5 -2 -8 46 -8 106 l0 110 93 55 c50 30 93 55 95 56 1 1 2 -50 2 -111z
m3740 0 l0 -56 -45 -25 -45 -26 0 109 0 109 45 -27 c44 -27 44 -27 45 -84z
m-6040 -5 l0 -108 -87 -50 c-48 -27 -91 -51 -95 -53 -5 -2 -8 46 -8 106 l0
109 88 51 c48 28 90 52 95 52 4 0 7 -48 7 -107z m2813 -67 l67 -38 0 -110 c0
-60 -4 -108 -8 -106 -5 2 -48 26 -95 53 l-87 50 0 113 0 113 28 -19 c15 -10
57 -36 95 -56z m565 5 l72 -42 0 -110 0 -111 -47 28 c-27 15 -68 40 -93 54
l-45 26 -3 114 -3 113 23 -15 c13 -8 56 -34 96 -57z m1150 0 l72 -42 0 -110 0
-111 -47 28 c-27 15 -68 40 -93 54 l-45 26 -3 114 -3 113 23 -15 c13 -8 56
-34 96 -57z m585 -5 l67 -38 0 -110 c0 -60 -4 -108 -8 -106 -5 2 -48 26 -95
53 l-87 50 0 113 0 113 28 -19 c15 -10 57 -36 95 -56z m476 38 c-17 -21 -29
-17 -29 11 0 23 2 24 21 15 16 -9 18 -14 8 -26z m-1648 -25 l89 -51 0 -110 c0
-60 -4 -108 -8 -106 -5 2 -48 26 -95 53 l-87 50 0 108 c0 59 3 107 6 107 4 0
46 -23 95 -51z m-4801 -108 l0 -109 -95 -55 -95 -56 0 112 0 112 93 52 c50 29
93 53 95 53 1 0 2 -49 2 -109z m580 6 c0 -87 -3 -106 -17 -119 -14 -11 -110
-69 -175 -105 -5 -2 -8 45 -8 106 l0 110 93 55 c50 31 95 55 100 56 4 0 7 -47
7 -103z m563 -118 c-4 -4 -47 -30 -95 -58 l-88 -50 0 112 0 112 93 52 92 51 3
-105 c1 -59 -1 -110 -5 -114z m587 112 l0 -109 -57 -32 c-32 -18 -77 -44 -100
-57 l-43 -25 0 110 0 111 93 55 c50 30 95 55 100 56 4 0 7 -49 7 -109z m563
-112 c-4 -4 -47 -30 -95 -58 l-88 -50 0 112 0 112 93 52 92 51 3 -105 c1 -59
-1 -110 -5 -114z m577 111 l0 -110 -37 -23 c-21 -13 -64 -38 -95 -56 l-58 -32
0 110 0 110 93 55 c50 30 93 55 95 56 1 0 2 -49 2 -110z m573 -110 c-4 -4 -47
-30 -95 -59 l-88 -51 0 113 0 112 93 52 92 53 3 -107 c1 -58 -1 -109 -5 -113z
m3701 194 c46 -26 46 -26 46 -80 0 -57 2 -55 -87 -108 -10 -6 -13 18 -13 103
0 61 2 111 4 111 2 0 24 -12 50 -26z m-536 -81 l3 -59 -39 -22 c-22 -12 -42
-22 -46 -22 -3 0 -6 40 -6 88 0 105 9 121 54 92 28 -17 31 -25 34 -77z m-2676
-57 l93 -54 3 -112 3 -112 -48 27 c-26 15 -72 42 -100 59 l-53 31 0 107 c0 60
2 108 4 108 3 0 46 -24 98 -54z m636 -33 l32 -17 0 -112 0 -113 -92 53 -93 54
-3 112 -3 112 63 -37 c35 -20 78 -43 96 -52z m518 31 l94 -55 0 -111 0 -110
-47 27 c-27 16 -72 42 -100 59 l-53 31 0 107 c0 60 3 108 6 108 3 0 48 -25
100 -56z m632 -31 l32 -17 0 -113 0 -112 -92 54 -93 54 -3 111 -3 112 63 -37
c35 -20 78 -43 96 -52z m458 65 l37 -22 -34 -28 c-18 -15 -37 -28 -41 -28 -4
0 -8 23 -8 50 0 28 2 50 4 50 3 0 22 -10 42 -22z m-6466 -146 l0 -107 -90 -53
c-49 -28 -92 -52 -95 -52 -3 0 -5 49 -5 109 l0 109 88 50 c48 28 90 51 95 51
4 1 7 -47 7 -107z m580 3 l0 -105 -37 -23 c-21 -13 -64 -38 -95 -56 l-58 -32
0 109 0 110 88 51 c48 28 90 51 95 51 4 0 7 -47 7 -105z m570 -3 l0 -108 -89
-52 c-49 -29 -92 -52 -95 -52 -3 0 -6 49 -6 108 l0 108 88 51 c48 28 90 52 95
52 4 1 7 -48 7 -107z m580 1 l0 -108 -38 -21 c-20 -11 -63 -35 -94 -53 l-58
-33 0 110 0 110 88 51 c48 28 90 51 95 51 4 0 7 -48 7 -107z m570 -1 l0 -107
-90 -53 c-49 -28 -92 -52 -95 -52 -3 0 -5 48 -5 108 l0 107 88 52 c48 29 90
52 95 52 4 1 7 -47 7 -107z m580 1 l0 -108 -93 -52 c-52 -29 -95 -53 -98 -53
-2 0 -2 50 1 111 l5 110 85 50 c47 27 88 49 92 49 5 0 8 -48 8 -107z m570 -1
l0 -107 -90 -53 c-49 -28 -92 -52 -95 -52 -3 0 -5 48 -5 108 l0 107 88 52 c48
29 90 52 95 52 4 1 7 -47 7 -107z m3703 83 l38 -19 -3 -59 c-3 -58 -4 -59 -45
-84 l-43 -25 0 107 c0 59 3 105 8 103 4 -2 24 -12 45 -23z m-533 -79 c0 -54 0
-54 -46 -80 -26 -14 -48 -26 -50 -26 -2 0 -4 28 -4 62 0 57 2 63 33 89 46 39
67 25 67 -45z m-2677 -60 l87 -50 0 -108 c0 -59 -2 -108 -5 -108 -3 0 -46 23
-95 51 l-90 51 0 110 c0 60 4 108 8 106 4 -1 47 -25 95 -52z m568 3 l89 -51 0
-110 0 -110 -67 38 c-36 20 -79 44 -95 53 l-28 16 0 108 c0 59 3 107 6 107 4
0 47 -23 95 -51z m582 -3 l87 -50 0 -108 c0 -59 -2 -108 -5 -108 -3 0 -46 23
-95 51 l-90 51 0 110 c0 60 4 108 8 106 4 -1 47 -25 95 -52z m568 3 l89 -51 0
-110 0 -110 -67 38 c-36 20 -79 44 -95 53 l-28 16 0 108 c0 59 3 107 6 107 4
0 47 -23 95 -51z m547 17 c29 -16 49 -32 45 -36 -63 -50 -102 -80 -107 -80 -3
0 -6 34 -6 76 0 42 3 74 8 72 4 -1 31 -16 60 -32z m-5918 -125 l0 -110 -62
-37 c-35 -20 -78 -46 -96 -57 l-33 -19 3 113 3 113 90 53 c50 29 91 53 93 53
1 0 2 -49 2 -109z m580 0 l0 -109 -92 -54 c-51 -29 -96 -54 -100 -56 -4 -2 -8
46 -8 106 l0 110 93 55 c50 31 95 56 100 56 4 1 7 -48 7 -108z m566 -107 c-2
-6 -35 -28 -73 -49 -37 -21 -78 -45 -91 -53 l-23 -15 3 114 3 113 90 52 90 52
3 -101 c1 -55 1 -106 -2 -113z m584 107 l0 -109 -92 -54 c-51 -29 -96 -54
-100 -56 -4 -2 -8 46 -8 106 l0 110 93 55 c50 30 95 55 100 56 4 1 7 -48 7
-108z m566 -107 c-2 -6 -35 -28 -73 -49 -37 -21 -78 -45 -91 -53 l-23 -15 3
114 3 113 90 52 90 52 3 -101 c1 -55 1 -106 -2 -113z m574 104 l0 -113 -87
-50 c-48 -27 -91 -51 -95 -53 -5 -2 -8 46 -8 106 l0 110 93 55 c50 30 93 55
95 56 1 1 2 -50 2 -111z m576 -104 c-2 -6 -35 -28 -73 -49 -37 -21 -78 -45
-90 -53 l-23 -14 0 110 0 111 93 55 92 54 3 -101 c1 -55 1 -106 -2 -113z
m3162 107 l3 -59 -46 -25 -45 -26 0 110 0 110 43 -25 c41 -25 42 -27 45 -85z
m537 82 c45 -28 45 -28 45 -83 l0 -55 -50 -28 -50 -28 0 110 c0 61 2 111 5
111 2 0 25 -12 50 -27z m-7722 -89 l-2 -107 -91 -53 c-51 -30 -94 -54 -97 -54
-2 0 -2 41 -1 92 l3 92 85 67 c47 37 90 68 95 68 6 1 9 -40 8 -105z m6617 -6
c0 -41 -3 -44 -50 -70 l-50 -28 0 38 c1 32 7 42 43 69 23 17 45 32 50 32 4 1
7 -18 7 -41z m-2102 -46 l92 -54 0 -110 c0 -60 -4 -108 -8 -106 -4 2 -49 27
-100 56 l-92 54 0 110 c0 60 4 108 8 106 4 -1 49 -27 100 -56z m585 -7 c38
-21 71 -43 73 -49 3 -7 3 -58 2 -113 l-3 -101 -90 52 -90 52 -3 113 -3 114 23
-15 c13 -8 54 -32 91 -53z m565 7 l92 -54 0 -110 c0 -60 -4 -108 -8 -106 -4 2
-49 27 -100 56 l-92 54 0 110 c0 60 4 108 8 106 4 -1 49 -27 100 -56z m585 -7
c26 -15 47 -28 47 -29 0 -2 -36 -31 -80 -65 l-80 -62 0 111 0 112 33 -20 c17
-11 53 -32 80 -47z m-5963 -104 l0 -109 -89 -51 c-48 -28 -91 -51 -95 -51 -3
0 -6 48 -6 108 l0 107 93 52 c50 29 93 53 95 53 1 0 2 -49 2 -109z m580 1 l0
-108 -87 -50 c-48 -27 -91 -50 -95 -52 -4 -2 -8 46 -8 106 l0 110 88 50 c48
28 90 51 95 51 4 1 7 -48 7 -107z m570 -1 l0 -109 -89 -51 c-48 -28 -91 -51
-95 -51 -3 0 -6 48 -6 108 l0 107 93 52 c50 29 93 53 95 53 1 0 2 -49 2 -109z
m580 2 l0 -108 -87 -50 c-47 -27 -90 -51 -95 -53 -4 -2 -8 46 -8 106 l0 110
88 50 c48 28 90 51 95 51 4 1 7 -47 7 -106z m570 -2 l0 -109 -89 -51 c-48 -28
-91 -51 -95 -51 -3 0 -6 48 -6 108 l0 107 93 52 c50 29 93 53 95 53 1 0 2 -49
2 -109z m580 2 l0 -108 -91 -52 c-50 -29 -93 -53 -97 -53 -4 0 -5 49 -2 110
l5 110 85 50 c47 27 88 50 93 50 4 0 7 -48 7 -107z m570 -2 l0 -109 -89 -51
c-49 -28 -91 -51 -95 -51 -3 0 -6 48 -6 108 l0 107 93 52 c50 29 93 53 95 53
1 0 2 -49 2 -109z m3126 83 c43 -25 44 -27 44 -79 0 -52 -1 -54 -44 -79 -25
-14 -47 -26 -50 -26 -3 0 -6 47 -6 105 0 58 3 105 6 105 3 0 25 -12 50 -26z
m609 -79 l0 -60 -42 -23 -43 -23 0 106 0 106 43 -23 42 -23 0 -60z m-7755 -28
l0 -83 -91 -52 c-50 -29 -94 -52 -98 -52 -3 0 -4 29 -1 65 l5 64 90 70 c50 39
91 70 93 71 1 0 2 -37 2 -83z m4572 -66 l28 -16 0 -107 c0 -60 -3 -108 -6
-108 -4 0 -47 23 -95 51 l-89 51 0 110 0 110 67 -38 c36 -20 79 -44 95 -53z
m509 37 l89 -52 0 -109 c0 -60 -4 -107 -8 -105 -4 2 -47 25 -95 52 l-87 50 0
108 c0 59 3 108 6 108 3 0 46 -23 95 -52z m631 -32 l38 -21 0 -107 c0 -60 -3
-108 -6 -108 -4 0 -47 23 -95 51 l-89 51 0 110 0 110 58 -33 c31 -18 74 -42
94 -53z m519 32 c49 -29 89 -57 89 -64 0 -6 -33 -37 -74 -68 -67 -51 -77 -56
-95 -44 -19 12 -21 22 -21 120 0 60 3 108 6 108 3 0 46 -23 95 -52z m376 8
c-6 -16 -86 -61 -94 -53 -2 3 17 21 43 41 47 36 61 40 51 12z m-5747 -116 l0
-110 -37 -23 c-21 -13 -64 -38 -95 -56 l-58 -32 0 110 0 110 93 55 c50 30 93
55 95 56 1 0 2 -49 2 -110z m1150 -3 l0 -113 -32 -17 c-18 -9 -61 -32 -96 -52
l-63 -37 3 112 3 112 90 53 c50 29 91 54 93 54 1 1 2 -50 2 -112z m1150 0 l0
-113 -32 -17 c-18 -9 -61 -32 -96 -52 l-63 -37 3 112 3 112 90 53 c50 29 91
54 93 54 1 1 2 -50 2 -112z m1150 0 l0 -113 -32 -17 c-18 -9 -61 -32 -95 -52
l-63 -36 0 109 0 110 93 55 c50 30 93 55 95 56 1 1 2 -50 2 -112z m2590 3 c0
-55 0 -55 -45 -83 -25 -15 -48 -27 -50 -27 -3 0 -5 50 -5 111 l0 110 50 -28
50 -28 0 -55z m568 -3 c-3 -56 -4 -58 -45 -83 l-43 -25 0 110 0 111 45 -28 46
-27 -3 -58z m582 3 c0 -55 0 -55 -45 -83 -25 -15 -48 -27 -50 -27 -3 0 -5 49
-5 110 l0 110 50 -28 50 -27 0 -55z m-7767 -7 l-2 -107 -91 -53 c-50 -29 -93
-53 -96 -53 -2 0 -4 49 -4 109 l0 109 88 50 c48 28 92 51 97 51 6 1 9 -40 8
-106z m1155 1 l-3 -106 -93 -54 c-52 -30 -95 -54 -98 -54 -2 0 -4 49 -4 109
l0 109 88 50 c48 28 93 51 100 51 10 1 12 -24 10 -105z m1150 0 l-3 -106 -93
-54 c-52 -30 -95 -54 -98 -54 -2 0 -4 49 -4 109 l0 109 88 50 c48 28 93 51
100 51 10 1 12 -24 10 -105z m1145 -1 l-2 -107 -91 -53 c-50 -29 -93 -53 -96
-53 -2 0 -4 49 -4 108 l0 108 88 51 c48 28 92 52 97 52 6 1 9 -40 8 -106z
m1725 -214 l3 -111 -58 33 c-32 18 -75 42 -95 53 l-38 21 0 112 0 112 93 -54
92 -54 3 -112z m-5748 158 c0 -50 -2 -54 -32 -70 -18 -9 -61 -32 -95 -52 l-63
-36 1 38 c0 36 5 42 87 105 48 37 90 67 95 68 4 0 7 -24 7 -53z m5090 1 l90
-53 0 -107 c0 -60 -3 -108 -6 -108 -3 0 -48 25 -100 56 l-94 55 0 105 c0 65 4
104 10 104 6 0 51 -24 100 -52z m1150 0 c84 -49 90 -55 90 -85 0 -27 -9 -39
-56 -78 l-57 -46 -41 25 -41 24 -3 106 c-2 70 1 106 8 106 6 0 51 -24 100 -52z
m-5950 -107 l0 -109 -90 -51 c-49 -28 -92 -51 -95 -51 -3 0 -5 49 -5 108 l0
108 88 51 c48 28 90 52 95 52 4 1 7 -48 7 -108z m570 -1 l0 -109 -72 -42 c-40
-23 -83 -49 -96 -57 l-23 -15 3 114 3 113 90 53 c50 29 91 53 93 53 1 0 2 -49
2 -110z m580 1 l0 -109 -90 -51 c-49 -28 -92 -51 -95 -51 -3 0 -5 49 -5 108
l0 108 88 51 c48 28 90 52 95 52 4 1 7 -48 7 -108z m563 -112 c-4 -4 -48 -30
-96 -58 l-88 -50 3 112 3 111 90 53 90 52 3 -106 c1 -58 -1 -110 -5 -114z
m587 112 l0 -109 -90 -51 c-49 -28 -92 -51 -95 -51 -3 0 -5 49 -5 108 l0 108
88 51 c48 28 90 52 95 52 4 1 7 -48 7 -108z m563 -112 c-4 -4 -47 -30 -95 -58
l-88 -50 0 112 0 112 93 52 92 51 3 -105 c1 -59 -1 -110 -5 -114z m587 112 l0
-109 -90 -51 c-49 -28 -93 -51 -97 -51 -5 0 -7 48 -6 106 l2 107 88 52 c48 29
91 54 96 54 4 1 7 -48 7 -108z m553 -119 c-24 -18 -159 -92 -167 -92 -4 0 -5
48 -4 107 l3 107 90 53 90 52 3 -107 c2 -93 0 -108 -15 -120z m2563 202 c44
-26 44 -26 44 -82 0 -57 0 -57 -42 -80 -24 -12 -46 -22 -50 -22 -5 0 -8 47 -8
105 0 58 3 105 6 105 3 0 25 -12 50 -26z m579 -1 c44 -27 45 -29 45 -80 0 -51
-1 -53 -43 -78 -24 -14 -47 -25 -50 -25 -4 0 -7 47 -7 105 0 58 2 105 5 105 2
0 25 -12 50 -27z m613 -80 l3 -58 -40 -22 c-22 -13 -42 -23 -45 -23 -4 0 -6
48 -6 106 l0 105 43 -25 c41 -25 42 -27 45 -83z m-3235 -68 c38 -21 71 -43 73
-49 3 -7 3 -58 2 -113 l-3 -101 -92 54 -93 55 0 111 0 110 23 -14 c12 -8 53
-32 90 -53z m560 10 l87 -50 0 -112 0 -112 -95 56 -95 55 0 110 c0 60 3 108 8
106 4 -1 47 -25 95 -53z m617 -25 l45 -26 3 -65 c3 -63 2 -65 -33 -92 l-35
-28 -60 36 -60 36 0 111 0 110 48 -28 c26 -15 67 -39 92 -54z m-4840 -82 l0
-113 -87 -50 c-48 -27 -91 -51 -95 -53 -5 -2 -8 46 -8 106 l0 110 93 55 c50
30 93 55 95 56 1 1 2 -50 2 -111z m-1447 52 c-19 -19 -183 -108 -183 -100 0 5
42 41 93 80 84 66 92 70 95 50 2 -12 0 -26 -5 -30z m297 -57 l0 -108 -87 -50
c-48 -27 -91 -51 -95 -53 -5 -2 -8 46 -8 106 l0 110 88 51 c48 28 90 51 95 51
4 0 7 -48 7 -107z m573 0 l-1 -108 -89 -52 c-48 -29 -91 -52 -95 -53 -5 0 -8
49 -8 108 l0 108 88 51 c48 28 92 52 97 52 6 1 9 -40 8 -106z m1155 0 l-3
-107 -90 -53 c-49 -29 -93 -53 -97 -53 -5 0 -8 48 -8 108 l0 107 88 51 c48 29
93 52 100 53 10 1 12 -24 10 -106z m572 0 l0 -108 -87 -50 c-47 -27 -90 -51
-95 -53 -4 -2 -8 46 -8 106 l0 109 88 51 c48 28 90 52 95 52 4 0 7 -48 7 -107z
m578 0 l-3 -107 -90 -53 c-49 -29 -93 -53 -97 -53 -5 0 -8 48 -8 108 l0 107
88 52 c48 28 93 52 100 52 10 1 12 -24 10 -106z m572 0 l0 -108 -87 -50 c-48
-27 -91 -51 -95 -53 -5 -2 -8 46 -8 106 l0 110 88 50 c48 28 90 51 95 51 4 1
7 -47 7 -106z m573 0 l-1 -108 -89 -52 c-48 -29 -91 -53 -95 -53 -14 0 -9 207
5 218 15 13 170 102 177 102 3 0 4 -48 3 -107z m577 -1 l0 -108 -87 -50 c-48
-27 -91 -50 -95 -52 -4 -2 -8 46 -8 106 l0 110 88 50 c48 28 90 51 95 51 4 1
7 -48 7 -107z m1971 86 l40 -23 -3 -60 c-3 -59 -4 -60 -45 -83 l-43 -23 0 105
c0 58 2 106 6 106 3 0 23 -10 45 -22z m574 -1 c38 -22 40 -25 43 -79 l3 -56
-45 -26 c-24 -14 -47 -26 -50 -26 -3 0 -6 47 -6 105 0 58 3 105 8 105 4 0 25
-11 47 -23z m576 1 l40 -23 -3 -58 c-3 -58 -4 -59 -45 -84 l-43 -25 0 106 c0
58 2 106 6 106 3 0 23 -10 45 -22z m574 -1 c38 -22 40 -25 43 -79 l3 -56 -45
-26 c-24 -14 -47 -26 -50 -26 -3 0 -6 47 -6 105 0 58 3 105 8 105 4 0 25 -11
47 -23z m-3236 -124 c129 -71 121 -59 121 -179 0 -57 -3 -104 -7 -104 -5 0
-48 24 -98 53 l-90 53 -3 107 c-1 59 0 107 4 107 4 0 37 -16 73 -37z m601 -14
l90 -51 0 -93 c0 -63 -4 -96 -13 -103 -9 -8 -34 1 -95 35 l-82 47 0 108 c0 59
2 108 5 108 3 0 46 -23 95 -51z m-5954 -214 c-2 -7 -28 -26 -58 -42 -29 -17
-70 -41 -90 -53 l-38 -22 0 111 0 110 93 55 92 54 3 -101 c1 -55 1 -106 -2
-112z m577 -5 c-4 -4 -47 -30 -95 -59 l-88 -51 0 113 0 112 93 52 92 52 3
-106 c1 -58 -1 -109 -5 -113z m577 110 l0 -110 -37 -23 c-21 -13 -64 -38 -95
-56 l-58 -32 0 110 0 110 93 55 c50 30 93 55 95 56 1 0 2 -49 2 -110z m573
-110 c-4 -4 -47 -30 -95 -59 l-88 -51 0 113 0 112 93 52 92 53 3 -107 c1 -58
-1 -109 -5 -113z m573 5 c-2 -7 -28 -26 -58 -42 -29 -17 -70 -41 -90 -53 l-38
-22 0 111 0 110 93 55 92 54 3 -101 c1 -55 1 -106 -2 -112z m577 -6 c-4 -4
-47 -30 -95 -58 l-88 -50 0 112 0 112 93 52 92 51 3 -105 c1 -59 -1 -110 -5
-114z m577 108 l0 -113 -32 -17 c-18 -9 -61 -32 -96 -52 l-63 -37 3 112 3 112
90 53 c50 29 91 54 93 54 1 1 2 -50 2 -112z m580 4 l0 -109 -95 -55 -95 -56 0
112 0 112 93 52 c50 29 93 52 95 53 1 0 2 -49 2 -109z m570 -4 l0 -113 -32
-17 c-18 -9 -61 -32 -95 -52 l-63 -36 0 110 0 110 93 55 c50 30 93 55 95 56 1
0 2 -51 2 -113z m1993 71 c23 -17 27 -26 27 -69 0 -51 0 -51 -87 -103 -10 -6
-13 18 -13 104 l0 111 23 -12 c12 -7 34 -21 50 -31z m551 16 l46 -26 0 -56 c0
-56 -1 -57 -40 -79 -21 -13 -44 -23 -49 -23 -7 0 -11 38 -11 105 0 58 2 105 4
105 2 0 24 -12 50 -26z m626 -81 c0 -56 1 -54 -87 -107 -10 -6 -13 18 -13 104
l0 111 50 -28 50 -28 0 -52z m570 -1 c0 -57 0 -57 -45 -84 l-45 -28 0 110 0
109 45 -26 45 -25 0 -56z m-3162 -222 l3 -112 -63 37 c-35 20 -78 43 -95 52
l-33 17 0 112 0 113 93 -53 92 -54 3 -112z m540 133 l32 -17 0 -112 0 -113
-92 53 -93 54 -3 112 -3 112 63 -37 c35 -20 78 -43 96 -52z m441 73 c9 -10 8
-16 -4 -26 -13 -11 -15 -8 -15 14 0 30 3 32 19 12z m-6447 -155 l-3 -110 -77
-45 c-122 -71 -113 -76 -110 50 l3 108 90 53 c50 29 92 53 95 53 3 0 4 -49 2
-109z m578 1 l0 -108 -89 -52 c-49 -29 -92 -52 -95 -52 -3 0 -6 48 -6 108 l0
107 88 52 c48 29 90 52 95 52 4 1 7 -48 7 -107z m573 1 l-1 -108 -88 -52 c-49
-29 -92 -53 -96 -53 -5 0 -7 48 -6 107 l3 107 90 53 c49 29 92 53 95 53 3 0 4
-48 3 -107z m577 -1 l0 -107 -90 -53 c-49 -28 -92 -52 -95 -52 -3 0 -5 49 -5
108 l0 108 88 51 c48 28 90 52 95 52 4 1 7 -47 7 -107z m580 4 c0 -103 0 -105
-27 -124 -36 -24 -158 -92 -167 -92 -4 0 -5 48 -4 107 l3 107 90 53 c50 29 93
53 98 53 4 0 7 -47 7 -104z m570 -5 l0 -109 -90 -51 c-49 -28 -92 -51 -95 -51
-3 0 -5 49 -5 108 l0 108 88 51 c48 28 90 52 95 52 4 1 7 -48 7 -108z m580 5
c0 -103 0 -105 -27 -124 -36 -24 -158 -92 -167 -92 -4 0 -5 48 -4 107 l3 107
90 53 c50 29 93 53 98 53 4 0 7 -47 7 -104z m570 -4 l0 -108 -89 -52 c-49 -29
-92 -52 -95 -52 -3 0 -6 48 -6 108 l0 107 88 52 c48 28 90 52 95 52 4 1 7 -48
7 -107z m570 -3 l-5 -112 -85 -48 c-47 -27 -89 -49 -93 -49 -4 0 -6 48 -5 107
l3 107 90 53 c50 29 92 53 95 53 3 0 3 -50 0 -111z m580 3 l0 -108 -89 -52
c-49 -29 -92 -52 -95 -52 -3 0 -6 49 -6 108 l0 108 88 51 c48 28 90 52 95 52
4 1 7 -48 7 -107z m1973 83 c37 -19 37 -19 37 -80 0 -66 3 -62 -82 -103 -5 -2
-8 44 -8 103 0 59 3 105 8 103 4 -2 24 -12 45 -23z m574 0 c42 -25 43 -27 43
-80 0 -53 -1 -55 -43 -80 -24 -14 -47 -25 -50 -25 -4 0 -7 47 -7 105 0 58 3
105 7 105 3 0 26 -11 50 -25z m576 0 c37 -19 37 -19 37 -79 0 -60 -1 -61 -40
-83 -21 -13 -41 -23 -44 -23 -4 0 -6 48 -6 106 0 58 3 104 8 102 4 -2 24 -12
45 -23z m574 0 c42 -25 43 -27 43 -80 0 -53 -1 -55 -43 -80 -24 -14 -47 -25
-50 -25 -4 0 -7 47 -7 105 0 58 3 105 7 105 3 0 26 -11 50 -25z m-2291 -6 c32
-19 34 -24 34 -74 0 -53 -1 -55 -43 -80 -24 -14 -47 -25 -50 -25 -13 0 -8 175
5 188 15 15 15 16 54 -9z m-921 -132 l90 -53 3 -107 c1 -59 0 -107 -4 -107 -9
0 -131 68 -166 92 -28 19 -28 21 -28 124 0 57 3 104 8 104 4 0 48 -24 97 -53z
m521 31 l36 -21 -23 -19 c-56 -44 -59 -43 -59 12 0 27 2 50 4 50 3 0 21 -10
42 -22z m-6469 -244 c-5 -5 -186 99 -186 106 0 3 41 28 92 57 l92 51 3 -105
c1 -58 1 -107 -1 -109z m573 104 l0 -113 -28 -16 c-16 -9 -59 -33 -95 -53
l-67 -38 0 110 0 110 93 55 c50 30 93 55 95 56 1 1 2 -50 2 -111z m576 -104
c-2 -6 -35 -28 -73 -49 -37 -21 -78 -45 -91 -53 l-23 -15 3 114 3 113 90 52
90 52 3 -101 c1 -55 1 -106 -2 -113z m574 104 l0 -113 -28 -16 c-16 -9 -59
-33 -95 -53 l-67 -38 0 110 0 110 93 55 c50 30 93 55 95 56 1 1 2 -50 2 -111z
m576 -104 c-2 -6 -35 -28 -73 -49 -37 -21 -78 -45 -91 -53 l-23 -15 3 114 3
113 90 52 90 52 3 -101 c1 -55 1 -106 -2 -113z m574 104 l0 -113 -28 -16 c-16
-9 -59 -33 -95 -53 l-67 -38 0 110 0 110 93 55 c50 30 93 55 95 56 1 1 2 -50
2 -111z m576 -104 c-2 -6 -35 -28 -73 -49 -37 -21 -78 -45 -90 -53 l-23 -14 0
110 0 111 93 55 92 54 3 -101 c1 -55 1 -106 -2 -113z m574 104 l0 -113 -28
-16 c-16 -9 -59 -33 -95 -53 l-67 -38 0 110 0 110 93 55 c50 30 93 55 95 56 1
1 2 -50 2 -111z m576 -103 c-3 -9 -177 -115 -188 -115 -2 0 -1 50 2 112 l5
112 90 52 90 52 3 -101 c1 -55 1 -106 -2 -112z m574 103 l0 -113 -87 -50 c-48
-27 -91 -51 -95 -53 -5 -2 -8 46 -8 106 l0 110 93 55 c50 30 93 55 95 56 1 1
2 -50 2 -111z m1983 75 c35 -22 37 -26 37 -72 0 -52 -10 -65 -77 -100 l-23
-12 0 111 c0 86 3 110 13 104 6 -4 29 -18 50 -31z m607 -74 l0 -57 -46 -26
c-26 -14 -48 -26 -50 -26 -2 0 -4 50 -4 111 l0 110 50 -27 50 -27 0 -58z m543
74 c35 -22 37 -26 37 -76 l0 -52 -50 -28 -50 -28 0 111 c0 86 3 110 13 104 6
-4 29 -18 50 -31z m607 -75 l0 -56 -45 -25 -45 -26 0 109 0 110 45 -28 c45
-27 45 -27 45 -84z m-2300 2 l0 -58 -44 -26 c-25 -14 -46 -26 -48 -26 -2 0 -1
29 0 65 3 57 7 67 33 89 44 37 59 25 59 -44z m-908 -84 c21 -12 38 -24 38 -27
0 -9 -180 -111 -189 -107 -23 9 -181 104 -181 108 1 3 42 28 93 56 l92 52 55
-31 c30 -17 72 -40 92 -51z m536 19 c10 -9 2 -20 -42 -53 -30 -23 -58 -42 -61
-42 -3 0 -5 36 -5 80 l0 81 48 -27 c26 -15 53 -32 60 -39z m-5953 -100 c0 -58
-3 -105 -6 -105 -10 0 -169 91 -174 100 -4 6 158 107 175 109 3 1 5 -46 5
-104z m575 -4 l0 -109 -95 -55 -95 -56 0 112 0 112 88 51 c48 29 90 52 95 53
4 1 7 -48 7 -108z m572 -1 l-3 -110 -85 -50 c-47 -27 -89 -50 -94 -50 -6 0
-10 44 -10 105 l0 104 93 55 c50 31 94 55 97 56 3 0 4 -49 2 -110z m578 1 l0
-109 -95 -55 -95 -56 0 112 0 112 93 52 c50 29 93 53 95 53 1 0 2 -49 2 -109z
m580 6 c0 -116 2 -113 -85 -162 -27 -15 -65 -36 -82 -47 l-33 -20 0 111 0 110
93 55 c50 31 95 55 100 56 4 0 7 -47 7 -103z m570 -6 l0 -109 -95 -55 -95 -56
0 112 0 112 93 52 c50 29 93 52 95 53 1 0 2 -49 2 -109z m580 6 c0 -87 -3
-106 -17 -119 -24 -20 -162 -98 -174 -98 -5 0 -9 47 -9 104 l0 105 93 55 c50
30 95 55 100 56 4 0 7 -47 7 -103z m563 -117 c-4 -4 -47 -30 -95 -59 l-88 -51
0 113 0 112 93 52 92 53 3 -107 c1 -58 -1 -109 -5 -113z m577 108 l-5 -112
-83 -48 c-46 -26 -88 -48 -93 -48 -5 0 -9 47 -9 104 l0 105 93 55 c50 30 94
55 97 56 3 0 3 -50 0 -112z m1974 86 l47 -26 -3 -56 c-3 -54 -5 -57 -43 -79
-22 -12 -43 -23 -47 -23 -5 0 -8 47 -8 105 0 58 2 105 4 105 2 0 25 -12 50
-26z m614 -81 l3 -58 -40 -22 c-22 -13 -42 -23 -45 -23 -4 0 -6 48 -6 106 l0
106 43 -25 c41 -25 42 -26 45 -84z m538 81 c43 -26 44 -27 44 -80 0 -52 -1
-55 -40 -79 -22 -14 -44 -25 -50 -25 -6 0 -10 40 -10 105 0 58 3 105 6 105 3
0 25 -12 50 -26z m612 -81 l3 -59 -39 -22 c-22 -12 -42 -22 -46 -22 -3 0 -6
48 -6 106 l0 106 43 -25 c41 -25 42 -26 45 -84z m538 81 c43 -26 44 -27 44
-80 0 -52 -1 -55 -40 -79 -22 -14 -44 -25 -50 -25 -6 0 -10 40 -10 105 0 58 3
105 6 105 3 0 25 -12 50 -26z m-9292 -58 l38 -24 -23 -13 c-13 -6 -34 -19 -46
-27 -23 -14 -23 -14 -23 37 0 28 3 51 8 51 4 0 24 -11 46 -24z m6456 -38 c0
-39 -3 -45 -40 -65 -21 -13 -41 -23 -44 -23 -4 0 -6 15 -6 33 0 25 8 39 37 64
21 18 41 32 46 33 4 0 7 -19 7 -42z m-952 -42 l93 -53 -96 -56 -95 -56 -88 50
c-48 28 -90 54 -94 57 -6 6 166 112 182 112 3 0 47 -24 98 -54z m557 12 c41
-24 75 -46 75 -50 0 -4 -35 -34 -78 -66 l-78 -60 -92 52 c-50 28 -90 54 -89
59 2 8 167 106 180 106 4 1 41 -18 82 -41z m1265 -122 l0 -53 -50 -27 -50 -27
0 110 0 111 50 -31 c50 -31 50 -31 50 -83z m-7190 -2 c0 -58 -4 -104 -8 -102
-45 18 -180 103 -175 109 12 11 167 99 176 99 4 0 7 -48 7 -106z m570 0 c0
-58 -3 -103 -7 -101 -124 70 -173 100 -173 105 0 7 159 100 173 101 4 1 7 -47
7 -105z m578 -1 l-3 -107 -90 -53 c-49 -29 -92 -53 -95 -53 -3 0 -3 50 0 111
l5 110 85 50 c47 27 88 49 93 49 4 0 6 -48 5 -107z m572 -1 l0 -107 -90 -53
c-49 -28 -92 -52 -95 -52 -3 0 -5 49 -5 108 l0 108 88 51 c48 29 90 52 95 53
4 0 7 -48 7 -108z m580 3 l0 -105 -37 -23 c-21 -13 -64 -39 -96 -57 l-58 -32
3 112 3 113 85 48 c47 27 88 49 93 49 4 0 7 -47 7 -105z m570 -3 l0 -108 -87
-50 c-48 -27 -91 -50 -95 -52 -4 -2 -8 45 -8 105 l0 108 88 52 c48 29 90 52
95 52 4 1 7 -48 7 -107z m580 0 l0 -108 -32 -17 c-18 -9 -61 -32 -95 -52 l-63
-36 0 110 0 109 88 51 c48 28 90 51 95 51 4 0 7 -49 7 -108z m570 0 l0 -107
-90 -53 c-49 -28 -92 -52 -95 -52 -3 0 -5 49 -5 108 l0 108 88 51 c48 29 90
52 95 53 4 0 7 -48 7 -108z m578 1 l-3 -107 -90 -53 c-49 -29 -92 -53 -95 -53
-3 0 -3 50 0 111 l5 110 85 50 c47 27 88 49 93 49 4 0 6 -48 5 -107z m1970 85
c42 -23 42 -23 42 -80 0 -56 0 -56 -44 -82 -25 -14 -46 -26 -48 -26 -2 0 -3
47 -3 105 0 58 2 105 5 105 3 0 24 -10 48 -22z m1150 0 c42 -23 42 -23 42 -80
0 -57 0 -57 -43 -83 -24 -14 -47 -25 -50 -25 -4 0 -7 47 -7 105 0 58 3 105 8
105 4 0 26 -10 50 -22z m579 -3 c42 -25 43 -27 43 -80 0 -53 0 -53 -46 -79
-26 -14 -48 -26 -50 -26 -2 0 -4 47 -4 105 0 58 3 105 7 105 3 0 26 -11 50
-25z m576 0 l38 -19 -3 -58 c-3 -57 -4 -59 -45 -84 l-43 -25 0 106 c0 59 3
105 8 103 4 -2 24 -12 45 -23z m-8723 -101 c-23 -13 -45 -24 -49 -24 -3 0 -4
22 -3 49 l4 49 45 -25 44 -26 -41 -23z m5512 -38 c37 -21 70 -41 73 -46 5 -7
-162 -110 -179 -110 -15 0 -186 103 -181 109 3 3 45 29 93 57 75 45 90 50 107
39 11 -6 50 -29 87 -49z m-580 3 c49 -28 88 -53 86 -54 -22 -22 -185 -104
-197 -100 -9 3 -53 27 -99 54 l-83 48 88 51 c48 28 94 51 102 51 7 1 54 -22
103 -50z m-4802 -108 l0 -109 -82 49 c-46 27 -87 51 -93 53 -6 3 -3 9 5 15 14
10 162 98 168 100 1 1 2 -48 2 -108z m580 0 l0 -110 -90 52 c-50 28 -89 55
-88 59 2 6 163 105 176 107 1 1 2 -48 2 -108z m573 -2 l-2 -112 -92 -53 c-50
-30 -93 -54 -95 -54 -2 0 -4 49 -4 109 l0 109 93 55 c50 30 94 55 97 56 3 1 4
-49 3 -110z m577 1 l0 -109 -72 -42 c-40 -23 -83 -49 -96 -57 l-23 -15 3 113
3 114 90 53 c50 29 91 53 93 53 1 0 2 -49 2 -110z m580 1 l0 -109 -92 -53
c-51 -30 -96 -55 -100 -57 -5 -2 -8 46 -8 106 l0 110 93 55 c50 30 95 55 100
56 4 1 7 -48 7 -108z m563 -112 c-4 -4 -48 -30 -96 -58 l-88 -50 3 111 3 112
90 52 90 52 3 -106 c1 -58 -1 -109 -5 -113z m587 112 l0 -109 -92 -54 c-51
-29 -96 -54 -100 -56 -4 -2 -8 46 -8 106 l0 110 93 55 c50 30 95 55 100 56 4
1 7 -48 7 -108z m570 -1 l0 -109 -72 -42 c-40 -23 -83 -49 -96 -57 l-23 -15 3
114 3 113 90 52 c50 29 91 53 93 54 1 0 2 -49 2 -110z m2002 61 c4 -4 -13 -19
-37 -33 l-45 -28 0 56 0 56 38 -23 c20 -12 40 -25 44 -28z m543 22 c45 -28 45
-28 45 -83 l0 -55 -50 -28 -50 -28 0 110 c0 61 2 111 5 111 2 0 25 -12 50 -27z
m613 -82 l3 -59 -46 -25 -45 -26 0 110 0 110 43 -25 c41 -25 42 -27 45 -85z
m537 82 c45 -28 45 -28 45 -83 l0 -55 -50 -28 -50 -28 0 110 c0 61 2 111 5
111 2 0 25 -12 50 -27z m613 -82 l3 -59 -46 -25 -45 -26 0 110 0 110 43 -25
c41 -25 42 -27 45 -85z m537 82 c45 -28 45 -28 45 -83 l0 -55 -50 -28 -50 -28
0 110 c0 61 2 111 5 111 2 0 25 -12 50 -27z m-9296 -57 l42 -23 -23 -15 c-67
-44 -68 -44 -68 12 0 27 2 50 4 50 2 0 23 -11 45 -24z m572 2 c22 -12 39 -25
39 -28 0 -5 -33 -24 -82 -48 -5 -2 -8 19 -8 47 0 28 3 51 6 51 4 0 24 -10 45
-22z m5699 -28 l0 -50 -45 22 c-25 12 -45 24 -45 27 0 7 71 50 83 51 4 0 7
-22 7 -50z m-1343 -52 c51 -29 93 -55 93 -58 0 -3 -42 -29 -94 -58 l-93 -52
-91 52 c-51 29 -92 55 -92 58 0 5 167 106 179 109 2 1 46 -23 98 -51z m573 1
c50 -28 90 -54 90 -58 0 -3 -41 -30 -90 -59 l-90 -53 -73 42 c-136 78 -133 63
-26 125 52 29 95 54 97 54 1 0 43 -23 92 -51z m-5360 -114 c0 -58 -3 -105 -6
-105 -15 0 -184 103 -179 109 10 10 170 101 178 101 4 0 7 -47 7 -105z m567
-102 c-2 -2 -43 20 -91 48 -49 28 -84 55 -79 59 4 5 44 29 88 54 l80 46 3
-101 c1 -56 1 -103 -1 -106z m583 102 c0 -58 -2 -105 -5 -105 -12 0 -185 103
-181 108 9 9 171 101 179 101 4 1 7 -46 7 -104z m570 -4 l0 -109 -89 -51 c-49
-28 -91 -51 -95 -51 -3 0 -6 48 -6 108 l0 107 88 51 c48 29 90 52 95 53 4 1 7
-48 7 -108z m580 2 l0 -108 -87 -50 c-47 -27 -90 -51 -95 -53 -4 -2 -8 46 -8
106 l0 110 88 50 c48 28 90 51 95 51 4 1 7 -47 7 -106z m570 -2 l0 -109 -90
-51 c-49 -28 -92 -51 -95 -51 -3 0 -5 48 -5 108 l0 107 93 52 c50 29 93 53 95
53 1 0 2 -49 2 -109z m580 2 l0 -108 -87 -50 c-47 -27 -90 -51 -95 -53 -4 -2
-8 46 -8 106 l0 109 88 51 c48 28 90 52 95 52 4 0 7 -48 7 -107z m570 -2 l0
-109 -89 -51 c-49 -28 -91 -51 -95 -51 -3 0 -6 48 -6 108 l0 107 93 52 c50 29
93 53 95 53 1 0 2 -49 2 -109z m1970 87 c22 -13 40 -26 40 -29 0 -4 -34 -24
-82 -47 -5 -2 -8 19 -8 47 0 28 2 51 6 51 3 0 23 -10 44 -22z m570 2 c22 -11
40 -24 40 -28 0 -7 -71 -52 -81 -52 -2 0 -4 23 -4 50 0 28 1 50 3 50 1 0 21
-9 42 -20z m586 -6 c43 -25 44 -27 44 -79 0 -52 -1 -54 -44 -79 -25 -14 -47
-26 -50 -26 -3 0 -6 47 -6 105 0 58 3 105 6 105 3 0 25 -12 50 -26z m569 3
c40 -22 40 -23 40 -82 0 -59 0 -60 -40 -82 -22 -12 -43 -23 -47 -23 -5 0 -8
47 -8 105 0 58 3 105 8 105 4 0 25 -11 47 -23z m581 -3 c43 -25 44 -27 44 -79
0 -52 -1 -54 -44 -79 -25 -14 -47 -26 -50 -26 -3 0 -6 47 -6 105 0 58 3 105 6
105 3 0 25 -12 50 -26z m569 3 c40 -22 40 -23 40 -82 l0 -60 -42 -23 -42 -23
-3 106 c-2 58 -1 105 2 105 3 0 23 -11 45 -23z m-8714 -104 c-51 -32 -56 -29
-53 26 l4 49 42 -26 43 -27 -36 -22z m602 27 c5 -4 -12 -19 -37 -33 l-46 -26
0 56 0 55 38 -23 c20 -12 41 -25 45 -29z m5087 -5 l0 -55 -45 27 -44 27 42 28
c23 15 43 27 45 27 1 1 2 -24 2 -54z m580 -1 l0 -56 -37 23 c-58 34 -58 35
-11 63 23 14 44 26 46 26 1 0 2 -25 2 -56z m-1936 -43 c124 -69 122 -61 22
-120 -47 -28 -92 -51 -98 -51 -16 0 -190 101 -184 107 10 11 171 103 180 103
5 0 41 -18 80 -39z m579 -3 c122 -70 120 -59 19 -117 -49 -28 -95 -51 -101
-51 -6 0 -52 23 -101 52 l-89 52 87 52 c48 29 93 53 100 53 8 1 46 -18 85 -41z
m-4205 -172 l-3 -55 -94 54 -93 53 73 42 c41 23 83 48 94 55 19 12 20 10 23
-41 2 -30 2 -78 0 -108z m1152 54 l0 -110 -37 -23 c-21 -13 -64 -38 -95 -56
l-58 -32 0 110 0 110 93 55 c50 30 93 55 95 56 1 0 2 -49 2 -110z m1150 -3 l0
-113 -32 -17 c-18 -9 -61 -32 -96 -52 l-63 -37 3 112 3 112 90 53 c50 29 91
54 93 54 1 1 2 -50 2 -112z m2572 56 c-1 -4 -20 -19 -42 -32 l-40 -23 0 57 0
57 43 -25 c23 -14 41 -29 39 -34z m586 2 c2 -2 -17 -14 -42 -28 l-46 -26 0 55
0 54 43 -26 c23 -15 43 -28 45 -29z m564 -2 c-1 -4 -20 -19 -42 -32 l-40 -23
0 57 0 57 43 -25 c23 -14 41 -29 39 -34z m586 -54 c-3 -58 -4 -60 -45 -85
l-43 -25 0 110 0 110 45 -26 46 -25 -3 -59z m582 1 c0 -55 0 -55 -45 -83 -25
-15 -48 -27 -50 -27 -3 0 -5 50 -5 111 l0 110 50 -28 50 -28 0 -55z m568 -1
c-3 -58 -4 -60 -45 -85 l-43 -25 0 110 0 110 45 -26 46 -25 -3 -59z m582 1 c0
-55 0 -55 -45 -83 -25 -15 -48 -27 -50 -27 -3 0 -5 50 -5 111 l0 110 50 -28
50 -28 0 -55z m-8920 -5 l0 -104 -90 52 c-49 29 -90 54 -90 57 1 6 161 98 173
99 4 1 7 -46 7 -104z m1153 5 c-1 -55 -4 -100 -8 -101 -9 -1 -175 95 -175 101
1 7 162 99 175 99 6 1 9 -38 8 -99z m1157 -4 l0 -104 -96 -56 c-52 -31 -97
-56 -100 -56 -2 0 -4 49 -4 109 l0 109 88 50 c48 28 93 51 100 51 9 1 12 -26
12 -103z m1150 0 l0 -104 -96 -56 c-52 -31 -97 -56 -100 -56 -2 0 -4 49 -4
109 l0 109 88 50 c48 28 93 51 100 51 9 1 12 -26 12 -103z m-3857 12 c17 -12
14 -15 -27 -36 l-46 -22 0 50 0 51 28 -15 c15 -8 35 -21 45 -28z m550 17 c20
-10 37 -21 37 -24 0 -6 -75 -51 -84 -51 -4 0 -6 23 -6 51 0 28 3 49 8 47 4 -2
24 -12 45 -23z m595 -13 l23 -15 -42 -23 c-22 -13 -43 -24 -45 -24 -2 0 -4 23
-4 50 0 56 1 56 68 12z m4532 -12 c0 -27 -3 -50 -6 -50 -11 0 -84 43 -84 50 0
7 71 49 83 50 4 0 7 -22 7 -50z m567 -46 c-5 -5 -87 39 -87 47 0 3 19 14 43
26 l42 20 3 -44 c2 -25 1 -47 -1 -49z m583 46 c0 -27 -3 -50 -6 -50 -10 0 -84
43 -84 49 0 7 71 50 83 51 4 0 7 -22 7 -50z m-2495 -56 l96 -57 -95 -54 c-108
-61 -87 -63 -219 15 l-68 40 93 56 c51 30 94 55 95 56 1 0 45 -25 98 -56z
m633 -31 c17 -9 32 -20 32 -23 0 -5 -152 -96 -181 -108 -9 -4 -189 100 -189
108 0 3 42 28 92 57 l92 52 61 -35 c33 -19 75 -42 93 -51z m402 73 c0 -2 -33
-28 -73 -59 -46 -34 -79 -52 -86 -47 -8 5 16 25 71 58 88 54 88 54 88 48z
m-5250 -151 c0 -58 -3 -105 -6 -105 -8 0 -143 75 -167 92 -16 12 -9 18 70 65
48 28 91 52 96 52 4 1 7 -46 7 -104z m566 -102 c-5 -5 -175 90 -176 99 0 3 39
29 88 57 l87 50 3 -101 c1 -55 1 -103 -2 -105z m584 102 c0 -58 -3 -105 -6
-105 -8 0 -143 75 -167 92 -16 12 -9 18 70 65 48 28 91 52 96 52 4 1 7 -46 7
-104z m566 -102 c-5 -5 -175 90 -176 99 0 3 39 29 88 57 l87 50 3 -101 c1 -55
1 -103 -2 -105z m584 99 l0 -108 -89 -52 c-49 -29 -92 -52 -95 -52 -3 0 -6 49
-6 108 l0 108 88 51 c48 28 90 52 95 52 4 1 7 -48 7 -107z m563 -113 c-4 -4
-48 -30 -96 -58 l-88 -50 3 112 3 111 90 53 90 52 3 -106 c1 -58 -1 -110 -5
-114z m587 112 l0 -109 -90 -51 c-49 -28 -92 -51 -95 -51 -3 0 -5 49 -5 108
l0 108 88 51 c48 28 90 52 95 52 4 1 7 -48 7 -108z m1966 83 l45 -27 -41 -23
c-23 -13 -45 -24 -49 -24 -3 0 -6 23 -6 50 0 28 1 50 3 50 2 0 24 -12 48 -26z
m577 1 c20 -10 37 -22 37 -25 0 -7 -73 -50 -84 -50 -3 0 -6 23 -6 51 0 28 3
49 8 47 4 -2 24 -12 45 -23z m573 -1 l45 -27 -41 -23 c-23 -13 -45 -24 -49
-24 -3 0 -6 23 -6 50 0 28 1 50 3 50 2 0 24 -12 48 -26z m577 1 c20 -10 37
-22 37 -25 0 -7 -73 -50 -84 -50 -3 0 -6 23 -6 51 0 28 3 49 8 47 4 -2 24 -12
45 -23z m574 0 c43 -26 43 -26 43 -83 0 -57 0 -57 -42 -80 -24 -12 -46 -22
-50 -22 -5 0 -8 47 -8 105 0 58 3 105 7 105 3 0 26 -11 50 -25z m578 -2 c44
-27 45 -29 45 -80 0 -51 -1 -53 -43 -78 -24 -14 -47 -25 -50 -25 -4 0 -7 47
-7 105 0 58 2 105 5 105 2 0 25 -12 50 -27z m613 -80 l3 -59 -38 -19 c-21 -11
-41 -21 -45 -23 -5 -2 -8 44 -8 103 l0 107 43 -25 c41 -25 42 -26 45 -84z
m-8165 -11 c-10 -8 -30 -20 -45 -28 l-28 -15 0 55 0 56 45 -28 c41 -25 44 -28
28 -40z m595 12 c3 -2 -87 -54 -94 -54 -2 0 -4 25 -4 55 l0 56 48 -27 c26 -15
48 -28 50 -30z m5082 1 l0 -55 -39 20 c-22 11 -42 24 -45 29 -5 7 51 48 82 60
1 1 2 -24 2 -54z m-6276 24 c20 -12 36 -24 36 -27 0 -4 -18 -17 -39 -28 l-39
-21 -4 48 c-1 27 0 49 4 49 4 0 23 -9 42 -21z m5126 -29 l0 -50 -42 21 -42 21
35 29 c19 16 37 29 42 29 4 0 7 -23 7 -50z m570 -1 c0 -51 0 -51 -22 -37 -13
8 -34 21 -47 27 l-23 13 38 24 c22 13 42 24 47 24 4 0 7 -23 7 -51z m1155 1
c0 -27 -1 -50 -3 -50 -2 0 -24 12 -48 26 l-45 27 38 23 c21 13 43 24 48 24 6
0 10 -22 10 -50z m-3064 -54 l91 -54 -73 -42 c-41 -23 -83 -48 -95 -55 -19
-12 -31 -7 -118 42 l-98 55 94 54 c51 29 96 54 100 54 4 0 48 -24 99 -54z
m570 3 c49 -28 89 -54 89 -58 0 -8 -180 -107 -190 -104 -5 2 -48 26 -96 54
-62 37 -83 54 -73 60 8 4 48 28 89 53 41 25 79 45 84 45 5 1 48 -22 97 -50z
m507 39 c8 -8 -2 -22 -46 -56 -101 -79 -98 -78 -139 -58 l-36 17 94 54 c101
58 109 61 127 43z m-2998 -149 l0 -111 -67 38 c-38 21 -81 45 -96 54 l-28 17
93 56 c51 30 94 55 96 56 1 1 2 -49 2 -110z m-1730 -5 l0 -106 -22 14 c-13 8
-54 32 -91 53 -45 25 -65 41 -59 47 12 12 154 96 165 97 4 1 7 -47 7 -105z
m580 1 c0 -58 -2 -105 -4 -105 -2 0 -45 24 -96 54 l-92 53 89 51 c48 29 91 52
96 52 4 0 7 -47 7 -105z m570 -1 l0 -106 -22 14 c-13 8 -54 32 -91 53 -45 25
-65 41 -59 47 12 12 154 96 165 97 4 1 7 -47 7 -105z m1158 -1 l-3 -107 -90
-52 c-49 -29 -93 -53 -97 -54 -5 0 -8 49 -8 108 l0 108 88 51 c48 28 93 52
100 52 10 1 12 -24 10 -106z m572 0 l0 -108 -28 -16 c-16 -9 -59 -33 -95 -53
l-67 -38 0 110 0 109 88 51 c48 28 90 52 95 52 4 0 7 -48 7 -107z m2540 87
c22 -11 40 -24 40 -28 0 -7 -30 -25 -82 -50 -5 -2 -8 19 -8 47 0 28 2 51 5 51
3 0 24 -9 45 -20z m583 -4 l38 -23 -23 -15 c-67 -44 -68 -44 -68 12 0 27 3 50
8 50 4 0 24 -11 45 -24z m567 4 c22 -11 40 -24 40 -28 0 -7 -30 -25 -82 -50
-5 -2 -8 19 -8 47 0 28 2 51 5 51 3 0 24 -9 45 -20z m583 -4 l38 -23 -23 -15
c-67 -44 -68 -44 -68 12 0 27 3 50 8 50 4 0 24 -11 45 -24z m572 1 c38 -22 40
-25 43 -79 l3 -56 -45 -26 c-24 -14 -47 -26 -50 -26 -3 0 -6 47 -6 105 0 58 3
105 8 105 4 0 25 -11 47 -23z m576 1 l40 -23 -3 -58 c-3 -58 -4 -59 -45 -84
l-43 -25 0 106 c0 58 2 106 6 106 3 0 23 -10 45 -22z m574 -1 c38 -22 40 -25
43 -79 l3 -56 -45 -26 c-24 -14 -47 -26 -50 -26 -3 0 -6 47 -6 105 0 58 3 105
8 105 4 0 25 -11 47 -23z m-4014 -6 l31 -19 -44 -26 -43 -26 -3 37 c-2 22 2
39 10 44 17 11 13 12 49 -10z m-5262 -60 l23 -13 -38 -24 c-22 -13 -42 -24
-46 -24 -5 0 -8 23 -8 51 0 51 0 51 23 37 12 -8 33 -21 46 -27z m551 14 c22
-14 40 -27 40 -30 0 -5 -75 -45 -85 -45 -3 0 -5 23 -5 50 0 28 2 50 5 50 3 0
23 -11 45 -25z m599 -14 l23 -13 -38 -24 c-22 -13 -42 -24 -46 -24 -5 0 -8 23
-8 51 0 51 0 51 23 37 12 -8 33 -21 46 -27z m551 14 c22 -14 40 -27 40 -29 0
-2 -20 -16 -45 -29 l-45 -26 0 55 c0 30 2 54 5 54 3 0 23 -11 45 -25z m3980
-25 c0 -27 -4 -50 -9 -50 -14 0 -81 41 -81 48 0 7 69 49 83 51 4 1 7 -21 7
-49z m570 0 c0 -27 -3 -50 -7 -50 -5 0 -26 11 -47 24 l-39 23 44 27 c24 14 45
26 47 26 1 0 2 -22 2 -50z m580 0 c0 -27 -4 -50 -9 -50 -14 0 -81 41 -81 48 0
7 69 49 83 51 4 1 7 -21 7 -49z m568 -34 l-3 -23 -43 27 -44 27 44 26 43 25 3
-29 c2 -16 2 -40 0 -53z m-3620 -35 c39 -23 72 -43 72 -45 0 -5 -178 -106
-186 -106 -4 0 -47 23 -96 51 -58 33 -86 55 -80 61 6 6 47 32 93 58 73 42 87
47 104 36 11 -7 53 -32 93 -55z m595 -11 l59 -33 -84 -48 c-45 -27 -90 -51
-99 -54 -16 -5 -203 95 -194 104 3 3 45 28 93 57 l87 51 40 -22 c22 -12 66
-37 98 -55z m514 28 c-4 -12 -145 -118 -157 -118 -24 0 -101 53 -92 62 6 6 47
31 93 58 l84 48 37 -22 c21 -11 37 -24 35 -28z m210 6 c-2 -2 -12 -1 -22 2
-17 7 -17 8 1 21 17 12 19 12 22 -2 2 -9 2 -19 -1 -21z m-4977 -125 l0 -111
-32 20 c-18 11 -55 32 -83 47 -84 47 -84 43 12 101 48 28 91 53 96 53 4 1 7
-49 7 -110z m570 2 l0 -109 -90 51 c-49 29 -89 55 -87 60 2 5 162 104 175 106
1 1 2 -48 2 -108z m580 4 c0 -58 -4 -105 -9 -105 -10 0 -170 90 -175 99 -4 5
169 110 182 111 1 0 2 -47 2 -105z m570 -4 l0 -109 -90 51 c-49 29 -90 54 -90
57 0 5 168 108 178 110 1 0 2 -49 2 -109z m578 -55 l-3 -54 -70 40 c-133 77
-130 62 -24 124 l94 54 3 -55 c2 -30 2 -79 0 -109z m568 -52 c-2 -6 -35 -28
-73 -49 -37 -21 -78 -45 -90 -53 l-23 -14 0 110 0 111 93 55 92 54 3 -101 c1
-55 1 -106 -2 -113z m2548 190 l47 -26 -38 -24 c-21 -13 -42 -24 -48 -24 -5 0
-10 23 -10 50 0 28 0 50 1 50 1 0 23 -12 48 -26z m600 -17 c18 -13 16 -15 -28
-40 l-46 -26 0 55 0 55 28 -15 c15 -8 35 -21 46 -29z m559 -33 c-21 -13 -42
-24 -48 -24 -6 0 -9 21 -7 49 l4 49 45 -25 44 -25 -38 -24z m591 33 c18 -13
16 -15 -28 -40 l-46 -26 0 55 0 55 28 -15 c15 -8 35 -21 46 -29z m550 17 l47
-26 -38 -24 c-56 -34 -63 -32 -63 26 0 28 2 50 4 50 2 0 25 -12 50 -26z m624
-83 c-3 -54 -4 -55 -50 -83 l-48 -27 0 110 0 110 50 -28 51 -28 -3 -54z m572
1 c0 -56 -1 -57 -40 -79 -21 -13 -41 -23 -44 -23 -4 0 -6 47 -6 104 l0 105 45
-26 45 -25 0 -56z m-4036 59 c4 -5 -14 -21 -39 -34 -52 -30 -59 -20 -12 17 35
28 43 31 51 17z m-4734 -31 c22 -11 40 -24 40 -28 0 -6 -73 -52 -82 -52 -2 0
-3 23 -3 50 0 28 1 50 3 50 1 0 21 -9 42 -20z m580 -2 c22 -13 40 -26 40 -29
0 -4 -34 -24 -82 -47 -5 -2 -8 19 -8 47 0 28 2 51 6 51 3 0 23 -10 44 -22z
m570 2 c22 -11 40 -24 40 -28 0 -7 -73 -52 -84 -52 -4 0 -6 23 -6 50 0 28 2
50 5 50 3 0 24 -9 45 -20z m580 -2 c22 -13 40 -26 40 -29 0 -4 -34 -24 -82
-47 -5 -2 -8 19 -8 47 0 28 2 51 6 51 3 0 23 -10 44 -22z m3400 -29 c0 -28 -3
-49 -7 -47 -50 24 -83 43 -83 48 0 7 71 49 83 50 4 0 7 -23 7 -51z m575 1 c0
-27 -2 -50 -4 -50 -2 0 -24 12 -49 26 l-44 26 38 23 c22 13 44 24 49 24 6 1
10 -21 10 -49z m575 -1 c0 -28 -3 -49 -7 -47 -50 24 -83 43 -83 48 0 7 71 49
83 50 4 0 7 -23 7 -51z m575 1 c0 -27 -2 -50 -4 -50 -2 0 -24 12 -49 26 l-44
26 38 23 c22 13 44 24 49 24 6 1 10 -21 10 -49z m575 -1 c0 -28 -3 -49 -7 -47
-50 24 -83 43 -83 48 0 7 71 49 83 50 4 0 7 -23 7 -51z m-4217 -53 c48 -27 87
-52 87 -55 0 -3 -41 -30 -91 -58 l-91 -53 -94 53 c-51 28 -94 54 -94 57 0 7
184 110 191 107 3 -1 44 -24 92 -51z m573 2 c51 -29 93 -55 93 -58 0 -3 -42
-29 -93 -57 l-94 -53 -91 52 c-50 29 -90 56 -89 60 3 7 165 106 176 107 2 1
46 -23 98 -51z m542 18 c28 -16 52 -32 52 -37 0 -4 -34 -33 -76 -65 l-76 -58
-74 39 c-41 22 -74 42 -74 45 0 7 184 110 190 107 3 -1 29 -15 58 -31z m-4190
-186 l-3 -49 -83 48 c-46 26 -83 52 -82 57 1 5 38 30 83 57 l82 47 3 -55 c2
-31 2 -78 0 -105z m582 54 c0 -58 -4 -104 -8 -102 -20 8 -182 102 -179 104 8
8 173 103 180 104 4 0 7 -48 7 -106z m568 -54 l-3 -49 -83 48 c-46 26 -83 52
-82 57 1 5 38 30 83 57 l82 47 3 -55 c2 -31 2 -78 0 -105z m582 54 c0 -58 -4
-104 -8 -102 -20 8 -182 102 -179 104 8 8 173 103 180 104 4 0 7 -48 7 -106z
m580 1 c0 -58 -3 -105 -6 -105 -15 0 -185 103 -179 108 10 11 169 102 178 102
4 0 7 -47 7 -105z m2543 80 c20 -10 37 -21 37 -25 0 -3 -20 -16 -45 -28 l-45
-22 0 51 c0 28 3 49 8 47 4 -2 24 -12 45 -23z m568 3 c22 -12 39 -24 39 -27 0
-6 -75 -51 -84 -51 -4 0 -6 23 -6 50 0 28 3 50 6 50 4 0 24 -10 45 -22z m582
-3 c20 -10 37 -21 37 -25 0 -3 -20 -16 -45 -28 l-45 -22 0 51 c0 28 3 49 8 47
4 -2 24 -12 45 -23z m568 3 c22 -12 39 -24 39 -27 0 -6 -75 -51 -84 -51 -4 0
-6 23 -6 50 0 28 3 50 6 50 4 0 24 -10 45 -22z m582 -3 c20 -10 37 -21 37 -25
0 -3 -20 -16 -45 -28 l-45 -22 0 51 c0 28 3 49 8 47 4 -2 24 -12 45 -23z m568
3 c22 -12 39 -24 39 -27 0 -6 -75 -51 -84 -51 -4 0 -6 23 -6 50 0 28 3 50 6
50 4 0 24 -10 45 -22z m582 -3 c37 -19 37 -19 37 -80 0 -66 3 -62 -82 -103 -5
-2 -8 44 -8 103 0 59 3 105 8 103 4 -2 24 -12 45 -23z m574 0 c42 -25 43 -27
43 -80 0 -53 -1 -55 -43 -80 -24 -14 -47 -25 -50 -25 -4 0 -7 47 -7 105 0 58
3 105 7 105 3 0 26 -11 50 -25z m-9260 -79 c1 -1 -18 -14 -42 -29 l-45 -27 0
55 0 55 43 -26 c23 -15 43 -27 44 -28z m564 -3 c-2 -4 -21 -18 -42 -31 l-39
-23 0 56 0 57 43 -25 c23 -14 40 -29 38 -34z m587 2 c-2 -1 -22 -14 -45 -29
l-43 -26 0 54 0 55 46 -26 c25 -14 44 -26 42 -28z m563 -2 c-2 -4 -21 -18 -42
-31 l-39 -23 0 56 0 57 43 -25 c23 -14 40 -29 38 -34z m587 2 c-2 -1 -22 -14
-45 -29 l-43 -26 0 54 0 55 46 -26 c25 -14 44 -26 42 -28z m2782 1 l0 -55 -41
23 c-22 13 -40 27 -40 31 0 6 68 53 79 55 1 0 2 -24 2 -54z m580 -2 l0 -55
-49 28 -50 27 47 28 c26 15 48 28 50 28 1 0 2 -25 2 -56z m570 2 l0 -55 -41
23 c-22 13 -40 27 -40 31 0 6 68 53 79 55 1 0 2 -24 2 -54z m580 -2 l0 -55
-49 28 -50 27 47 28 c26 15 48 28 50 28 1 0 2 -25 2 -56z m570 2 l0 -55 -41
23 c-22 13 -40 27 -40 31 -1 6 60 47 79 54 1 1 2 -23 2 -53z m580 -2 l0 -55
-50 28 -49 28 42 27 c23 15 45 27 50 27 4 1 7 -24 7 -55z m-4793 -55 c48 -28
89 -52 90 -53 4 -4 -176 -106 -187 -106 -12 0 -192 101 -188 105 12 12 176
104 185 105 6 0 51 -23 100 -51z m575 0 c49 -28 86 -55 81 -59 -17 -16 -168
-100 -179 -100 -22 0 -186 102 -177 110 13 13 167 100 177 100 5 0 49 -23 98
-51z m561 9 c42 -24 76 -45 76 -48 0 -7 -135 -109 -152 -116 -13 -5 -202 94
-195 101 12 12 175 104 184 105 6 0 45 -19 87 -42z m-4206 -224 c-5 -5 -186
99 -186 106 0 3 41 28 92 57 l92 51 3 -105 c1 -58 1 -107 -1 -109z m571 52
l-3 -54 -87 52 c-49 28 -88 53 -88 56 0 3 40 28 88 55 l87 50 3 -52 c2 -29 2
-77 0 -107z m1150 0 l-3 -54 -87 52 c-49 28 -88 53 -88 56 0 3 40 28 88 55
l87 50 3 -52 c2 -29 2 -77 0 -107z m579 -53 c-2 -2 -46 21 -96 51 -106 62
-108 48 24 124 l70 40 3 -105 c1 -58 1 -107 -1 -110z m2570 162 c0 -5 -17 -20
-38 -33 l-39 -23 0 56 0 56 39 -23 c21 -13 38 -27 38 -33z m1150 0 c0 -5 -17
-20 -38 -33 l-39 -23 0 56 0 56 39 -23 c21 -13 38 -27 38 -33z m590 1 c1 -1
-18 -14 -42 -29 l-45 -27 0 55 0 55 43 -26 c23 -15 43 -27 44 -28z m560 -1 c0
-5 -17 -20 -38 -33 l-39 -23 0 56 0 56 39 -23 c21 -13 38 -27 38 -33z m547 28
l45 -27 -44 -28 c-25 -15 -47 -28 -50 -28 -3 0 -5 25 -5 55 0 30 2 55 5 55 2
0 24 -12 49 -27z m603 -28 c0 -5 -17 -20 -38 -33 l-39 -23 0 56 0 56 39 -23
c21 -13 38 -27 38 -33z m593 -55 c0 -55 0 -55 -45 -82 l-45 -28 0 110 0 110
45 -28 c45 -27 45 -27 45 -82z m-7760 -6 l0 -106 -57 33 c-32 18 -75 42 -95
53 -21 12 -38 23 -38 26 1 8 163 99 178 99 9 1 12 -26 12 -105z m4271 84 l39
-21 -38 -23 c-20 -13 -41 -24 -47 -24 -5 0 -10 20 -10 45 0 25 4 45 9 45 4 0
26 -10 47 -22z m-5281 -50 c22 -13 40 -26 40 -30 0 -6 -72 -48 -82 -48 -2 0
-3 23 -3 50 0 28 1 50 3 50 2 0 21 -10 42 -22z m583 -3 c20 -10 37 -21 37 -24
0 -6 -75 -51 -84 -51 -4 0 -6 23 -6 51 0 28 3 49 8 47 4 -2 24 -12 45 -23z
m568 3 c22 -12 39 -25 39 -30 0 -7 -72 -48 -85 -48 -3 0 -5 23 -5 50 0 28 3
50 6 50 4 0 24 -10 45 -22z m582 -3 c20 -10 37 -21 37 -24 0 -6 -75 -51 -84
-51 -4 0 -6 23 -6 51 0 28 3 49 8 47 4 -2 24 -12 45 -23z m568 3 c22 -12 39
-25 39 -28 0 -6 -72 -50 -81 -50 -2 0 -4 23 -4 50 0 28 2 50 4 50 2 0 21 -10
42 -22z m2247 -52 l-3 -24 -44 22 -44 23 44 26 44 27 3 -25 c2 -14 2 -36 0
-49z m582 24 c0 -27 -2 -50 -6 -50 -9 0 -84 45 -84 50 0 6 72 49 83 50 4 0 7
-22 7 -50z m572 1 l-4 -50 -43 21 c-24 12 -42 25 -39 30 5 8 73 47 84 48 3 0
3 -22 2 -49z m578 -1 c0 -27 -2 -50 -6 -50 -9 0 -84 45 -84 50 0 5 70 47 83
49 4 1 7 -21 7 -49z m575 0 c0 -27 -2 -50 -5 -50 -3 1 -25 11 -49 24 l-44 23
44 26 c24 15 46 27 49 27 3 0 5 -22 5 -50z m575 0 c0 -27 -2 -50 -6 -50 -9 0
-84 45 -84 50 0 5 70 47 83 49 4 1 7 -21 7 -49z m570 0 l0 -50 -40 20 c-22 11
-40 24 -40 28 0 6 67 51 78 52 1 0 2 -23 2 -50z m-4728 -89 c15 -9 28 -18 28
-21 0 -9 -180 -112 -188 -108 -26 11 -182 104 -182 108 0 3 42 28 93 57 l92
52 64 -36 c35 -20 77 -43 93 -52z m508 38 c50 -28 92 -54 94 -58 2 -3 -38 -30
-90 -59 l-93 -54 -91 52 c-49 29 -90 55 -90 59 0 4 163 105 178 110 1 1 43
-22 92 -50z m-3643 -216 c-3 -2 -44 19 -92 47 -47 29 -84 54 -81 57 3 3 43 27
88 53 l83 47 3 -100 c1 -55 1 -101 -1 -104z m583 102 c0 -58 -3 -105 -6 -105
-4 0 -47 23 -96 51 l-89 52 88 53 c48 28 91 53 96 53 4 1 7 -46 7 -104z m567
-102 c-3 -2 -44 19 -92 47 -47 29 -84 54 -81 57 3 3 43 27 88 53 l83 47 3
-100 c1 -55 1 -101 -1 -104z m579 0 c-3 -3 -46 19 -96 48 -61 35 -87 55 -78
60 7 4 49 28 93 53 l80 46 3 -101 c1 -56 1 -104 -2 -106z m584 157 c0 -27 -2
-50 -5 -50 -12 0 -85 41 -85 48 0 7 69 51 83 52 4 0 7 -22 7 -50z m1960 28
c22 -13 40 -26 40 -29 0 -6 -74 -49 -84 -49 -3 0 -6 23 -6 50 0 28 2 50 6 50
3 0 23 -10 44 -22z m610 -28 c0 -5 -18 -19 -40 -30 l-40 -20 0 50 0 50 40 -20
c22 -11 40 -25 40 -30z m1138 12 l23 -15 -38 -23 c-21 -13 -41 -24 -45 -24 -5
0 -8 23 -8 50 0 56 1 56 68 12z m552 16 c22 -13 40 -26 40 -29 0 -6 -74 -49
-84 -49 -3 0 -6 23 -6 50 0 28 2 50 6 50 3 0 23 -10 44 -22z m608 -21 c10 -7
4 -15 -25 -33 -21 -13 -41 -24 -45 -24 -5 0 -8 23 -8 50 l0 51 33 -17 c17 -9
38 -21 45 -27z m542 21 c22 -13 40 -26 40 -29 0 -6 -74 -49 -84 -49 -3 0 -6
23 -6 50 0 28 2 50 6 50 3 0 23 -10 44 -22z m608 -21 c10 -7 4 -15 -25 -33
-21 -13 -41 -24 -45 -24 -5 0 -8 23 -8 50 l0 51 33 -17 c17 -9 38 -21 45 -27z
m548 17 c43 -26 44 -27 44 -80 0 -52 -1 -55 -40 -79 -22 -14 -44 -25 -50 -25
-6 0 -10 40 -10 105 0 58 3 105 6 105 3 0 25 -12 50 -26z m-8114 -85 c-4 -3
-24 -16 -44 -28 l-38 -23 0 56 0 55 44 -27 c24 -15 41 -30 38 -33z m578 5 c0
-5 -77 -54 -85 -54 -3 0 -5 24 -5 54 l0 55 45 -26 c25 -13 45 -27 45 -29z
m1144 -5 c-3 -5 -23 -18 -45 -29 l-39 -20 0 54 0 55 45 -26 c25 -13 43 -29 39
-34z m2214 -24 l-3 -25 -44 26 -43 27 43 27 44 27 3 -29 c2 -15 2 -39 0 -53z
m1150 0 l-3 -25 -44 26 -43 27 43 27 44 27 3 -29 c2 -15 2 -39 0 -53z m1150 0
l-3 -25 -44 26 -43 27 43 27 44 27 3 -29 c2 -15 2 -39 0 -53z m579 -21 c-5 -5
-87 39 -87 47 0 4 19 18 43 32 l42 25 3 -50 c2 -28 1 -52 -1 -54z m571 22 l-3
-24 -43 25 -44 26 44 27 43 27 3 -29 c2 -15 2 -39 0 -52z m-8564 50 l38 -24
-23 -13 c-13 -6 -34 -19 -46 -27 -23 -14 -23 -14 -23 37 0 28 3 51 8 51 4 0
24 -11 46 -24z m567 4 c45 -24 44 -32 -12 -60 l-39 -20 0 50 c0 27 2 50 5 50
3 0 24 -9 46 -20z m1733 -4 l38 -24 -23 -13 c-13 -6 -34 -19 -46 -27 -23 -14
-23 -14 -23 37 0 28 3 51 8 51 4 0 24 -11 46 -24z m2246 -26 c0 -27 -2 -50 -4
-50 -2 0 -25 12 -51 26 l-47 27 39 22 c57 34 63 32 63 -25z m2300 0 c0 -27 -2
-50 -5 -50 -2 0 -24 12 -49 27 l-45 27 37 22 c56 33 62 31 62 -26z m-3087 -42
c123 -70 121 -59 22 -117 -47 -28 -90 -52 -95 -54 -12 -3 -190 97 -187 105 2
9 168 107 180 108 5 0 41 -19 80 -42z m1249 -69 c-4 -3 -24 -16 -44 -28 l-38
-23 0 56 0 56 45 -28 c24 -14 41 -29 37 -33z m2302 -1 c-3 -5 -23 -17 -45 -28
l-39 -20 0 55 0 55 44 -27 c25 -15 42 -31 40 -35z m1150 0 c-3 -5 -23 -17 -45
-28 l-39 -20 0 55 0 55 44 -27 c25 -15 42 -31 40 -35z m-8324 -54 c0 -58 -4
-104 -8 -102 -45 18 -180 103 -175 109 12 11 167 99 176 99 4 0 7 -48 7 -106z
m570 0 c0 -58 -3 -103 -7 -101 -124 70 -173 100 -173 105 0 7 159 100 173 101
4 1 7 -47 7 -105z m580 1 c0 -58 -2 -105 -5 -105 -2 0 -45 24 -96 54 l-91 54
68 39 c100 58 108 62 117 63 4 0 7 -47 7 -105z m570 -1 c0 -58 -3 -103 -7
-101 -149 84 -173 101 -164 110 13 13 153 96 164 97 4 0 7 -48 7 -106z m580
55 c0 -28 -3 -49 -7 -47 -53 25 -83 43 -83 50 0 7 68 47 83 48 4 0 7 -23 7
-51z m570 0 c0 -51 0 -51 -22 -37 -13 8 -34 21 -47 27 l-23 13 38 24 c22 13
42 24 47 24 4 0 7 -23 7 -51z m1400 27 l41 -23 -45 -27 c-24 -14 -47 -26 -50
-26 -3 0 -6 23 -6 50 0 28 4 50 9 50 5 0 28 -11 51 -24z m2300 0 l41 -23 -45
-27 c-24 -14 -46 -26 -48 -26 -2 0 -3 23 -3 50 0 28 3 50 6 50 4 0 26 -11 49
-24z m1150 0 l41 -23 -45 -27 c-24 -14 -47 -26 -50 -26 -3 0 -6 23 -6 50 0 28
4 50 9 50 5 0 28 -11 51 -24z m1154 0 l38 -24 -23 -13 c-13 -6 -34 -19 -46
-27 -23 -14 -23 -14 -23 37 0 28 3 51 8 51 4 0 24 -11 46 -24z m-8724 -102
c-23 -13 -45 -24 -49 -24 -3 0 -4 22 -3 49 l4 49 45 -25 44 -26 -41 -23z m588
38 l24 -15 -39 -24 c-21 -12 -41 -23 -45 -23 -5 0 -8 23 -8 50 0 56 1 56 68
12z m556 12 l47 -27 -41 -23 c-23 -13 -46 -24 -51 -24 -5 0 -9 23 -9 50 0 28
2 50 4 50 2 0 25 -12 50 -26z m594 -12 l24 -15 -39 -24 c-21 -12 -41 -23 -45
-23 -5 0 -8 23 -8 50 0 56 1 56 68 12z m556 12 l47 -27 -41 -23 c-23 -13 -46
-24 -51 -24 -5 0 -9 23 -9 50 0 28 2 50 4 50 2 0 25 -12 50 -26z m594 -12 l24
-15 -39 -24 c-21 -12 -41 -23 -45 -23 -5 0 -8 23 -8 50 0 56 1 56 68 12z
m1082 -12 c0 -27 -2 -50 -5 -50 -12 0 -85 41 -85 48 0 7 68 49 83 51 4 1 7
-21 7 -49z m566 -47 c-2 -3 -23 6 -46 20 l-41 24 43 26 43 25 3 -45 c2 -25 1
-47 -2 -50z m1731 0 c-9 -8 -88 38 -82 47 4 6 23 19 43 29 l37 19 3 -45 c2
-25 1 -47 -1 -50z m578 47 c0 -27 -4 -50 -10 -50 -5 0 -27 11 -48 24 l-38 23
43 26 c24 15 45 26 48 27 3 0 5 -22 5 -50z m575 -4 l0 -55 -45 26 c-25 13 -45
26 -45 28 0 4 82 55 88 55 1 0 2 -24 2 -54z m566 -43 c-2 -3 -23 6 -46 20
l-42 25 44 24 43 24 3 -44 c2 -24 1 -46 -2 -49z m584 47 c0 -27 -3 -50 -7 -50
-5 0 -26 11 -47 24 l-39 23 44 27 c24 14 45 26 47 26 1 0 2 -22 2 -50z m-2875
-5 c0 -49 -8 -54 -44 -29 l-23 16 28 29 c15 16 30 29 33 29 3 0 6 -20 6 -45z
m-5569 -262 c-5 -5 -175 89 -176 97 0 3 39 28 88 56 l87 50 3 -99 c1 -55 1
-102 -2 -104z m584 97 l0 -110 -22 14 c-13 7 -56 33 -97 56 l-73 42 93 54 c52
29 95 54 97 54 1 0 2 -50 2 -110z m566 -97 c-4 -5 -175 89 -176 97 0 3 40 28
88 55 l87 50 3 -99 c1 -54 1 -101 -2 -103z m582 123 l-3 -23 -44 27 -43 27 43
27 44 26 3 -30 c2 -17 2 -41 0 -54z m582 34 c0 -58 -7 -60 -63 -26 l-39 24 44
25 c24 14 46 25 51 26 4 1 7 -21 7 -49z m568 -34 l-3 -23 -44 27 -43 27 43 27
44 26 3 -30 c2 -17 2 -41 0 -54z m841 44 l24 -12 -39 -24 c-21 -13 -42 -24
-46 -24 -5 0 -8 23 -8 51 0 51 0 51 23 37 12 -8 33 -21 46 -28z m554 15 c20
-10 37 -22 37 -25 0 -7 -73 -50 -84 -50 -3 0 -6 23 -6 51 0 28 3 49 8 47 4 -2
24 -12 45 -23z m2298 -1 c44 -27 44 -29 -13 -63 l-38 -23 0 56 c0 31 2 56 5
56 3 0 24 -12 46 -26z m611 -23 c4 -4 -13 -19 -37 -33 l-45 -28 0 56 0 56 38
-23 c20 -12 40 -25 44 -28z m539 23 c44 -27 44 -29 -13 -63 l-38 -23 0 56 c0
31 2 56 5 56 3 0 24 -12 46 -26z m611 -23 c4 -4 -13 -19 -37 -33 l-45 -28 0
56 0 56 38 -23 c20 -12 40 -25 44 -28z m539 23 c44 -27 44 -29 -13 -63 l-38
-23 0 56 c0 31 2 56 5 56 3 0 24 -12 46 -26z m-3422 -18 c10 -12 7 -18 -18
-30 -36 -19 -52 -4 -25 25 21 23 28 24 43 5z m-5870 -40 l42 -23 -23 -15 c-67
-44 -68 -44 -68 12 0 27 2 50 4 50 2 0 23 -11 45 -24z m572 2 c22 -12 39 -25
39 -28 0 -5 -33 -24 -82 -48 -5 -2 -8 19 -8 47 0 28 3 51 6 51 4 0 24 -10 45
-22z m578 -2 l42 -23 -23 -15 c-67 -44 -68 -44 -68 12 0 27 2 50 4 50 2 0 23
-11 45 -24z m572 2 c22 -12 39 -25 39 -28 0 -5 -33 -24 -82 -48 -5 -2 -8 19
-8 47 0 28 3 51 6 51 4 0 24 -10 45 -22z m578 -2 l42 -23 -23 -15 c-67 -44
-68 -44 -68 12 0 27 2 50 4 50 2 0 23 -11 45 -24z m572 2 c22 -12 39 -25 39
-28 0 -5 -33 -24 -82 -48 -5 -2 -8 19 -8 47 0 28 3 51 6 51 4 0 24 -10 45 -22z
m578 -2 l42 -23 -23 -15 c-67 -44 -68 -44 -68 12 0 27 2 50 4 50 2 0 23 -11
45 -24z m521 -26 l0 -51 -32 17 c-60 30 -62 35 -21 60 21 13 41 24 46 24 4 0
7 -23 7 -50z m580 0 c0 -27 -2 -50 -6 -50 -11 0 -84 45 -84 52 0 8 68 47 83
48 4 0 7 -22 7 -50z m1720 0 l0 -51 -32 17 c-60 30 -62 35 -21 60 21 13 41 24
46 24 4 0 7 -23 7 -50z m580 0 c0 -27 -2 -50 -6 -50 -11 0 -84 45 -84 52 0 8
68 47 83 48 4 0 7 -22 7 -50z m570 0 l0 -51 -32 17 c-60 30 -62 35 -21 60 21
13 41 24 46 24 4 0 7 -23 7 -50z m580 0 c0 -27 -2 -50 -6 -50 -11 0 -84 45
-84 52 0 8 68 47 83 48 4 0 7 -22 7 -50z m570 0 l0 -51 -32 17 c-60 30 -62 35
-21 60 21 13 41 24 46 24 4 0 7 -23 7 -50z m580 0 c0 -27 -2 -50 -6 -50 -11 0
-84 45 -84 52 0 8 68 47 83 48 4 0 7 -22 7 -50z m-9010 -165 c0 -58 -2 -105
-5 -105 -14 0 -185 103 -180 109 10 10 169 101 178 101 4 0 7 -47 7 -105z
m570 0 c0 -58 -2 -105 -4 -105 -2 0 -43 23 -91 51 -58 34 -83 55 -77 61 12 12
154 96 165 97 4 1 7 -46 7 -104z m580 0 c0 -58 -2 -105 -5 -105 -12 0 -185
103 -181 107 9 10 171 103 179 103 4 0 7 -47 7 -105z m570 55 l0 -51 -32 17
c-61 31 -62 35 -21 60 21 12 41 23 46 23 4 1 7 -22 7 -49z m580 0 c0 -27 -2
-50 -6 -50 -9 0 -84 45 -84 51 0 6 71 48 83 49 4 0 7 -22 7 -50z m570 0 l0
-51 -32 17 c-61 31 -62 35 -21 60 21 12 41 23 46 23 4 1 7 -22 7 -49z m580 0
c0 -27 -2 -50 -6 -50 -9 0 -84 45 -84 51 0 6 71 48 83 49 4 0 7 -22 7 -50z
m240 28 c22 -13 40 -26 40 -29 0 -4 -34 -24 -82 -47 -5 -2 -8 19 -8 47 0 28 2
51 6 51 3 0 23 -10 44 -22z m570 2 c22 -11 40 -24 40 -28 0 -7 -73 -52 -84
-52 -4 0 -6 23 -6 50 0 28 2 50 5 50 3 0 24 -9 45 -20z m1730 -2 c22 -13 40
-26 40 -29 0 -4 -34 -24 -82 -47 -5 -2 -8 19 -8 47 0 28 2 51 6 51 3 0 23 -10
44 -22z m1150 0 c22 -13 40 -26 40 -29 0 -4 -34 -24 -82 -47 -5 -2 -8 19 -8
47 0 28 2 51 6 51 3 0 23 -10 44 -22z m570 2 c22 -11 40 -24 40 -28 0 -8 -71
-52 -84 -52 -3 0 -6 23 -6 50 0 28 2 50 5 50 3 0 24 -9 45 -20z m580 -2 c22
-13 40 -26 40 -29 0 -4 -34 -24 -82 -47 -5 -2 -8 19 -8 47 0 28 2 51 6 51 3 0
23 -10 44 -22z m578 -2 l44 -22 -24 -16 c-65 -42 -66 -42 -70 12 -1 28 -1 50
2 50 3 -1 25 -11 48 -24z m-8716 -103 c-53 -32 -57 -30 -54 26 l4 49 43 -26
44 -26 -37 -23z m601 27 c5 -4 -12 -19 -37 -33 l-46 -26 0 56 0 55 38 -23 c20
-12 41 -25 45 -29z m542 22 l44 -27 -49 -28 -50 -28 0 55 c0 31 2 56 5 56 3 0
25 -12 50 -28z m608 -22 c5 -4 -12 -19 -37 -33 l-46 -26 0 56 0 55 38 -23 c20
-12 41 -25 45 -29z m542 22 l44 -27 -49 -28 -50 -28 0 55 c0 31 2 56 5 56 3 0
25 -12 50 -28z m608 -22 c5 -4 -12 -19 -37 -33 l-46 -26 0 56 0 55 38 -23 c20
-12 41 -25 45 -29z m1067 -6 l0 -56 -37 23 c-58 34 -58 35 -11 63 23 14 44 26
46 26 1 0 2 -25 2 -56z m2300 0 l0 -56 -37 23 c-58 34 -58 35 -11 63 23 14 44
26 46 26 1 0 2 -25 2 -56z m572 -46 c-1 -4 -23 5 -47 20 l-44 26 42 27 42 26
5 -46 c3 -25 4 -49 2 -53z m578 46 l0 -55 -39 23 c-21 13 -39 27 -40 32 -2 6
64 54 77 56 1 0 2 -25 2 -56z m570 1 l0 -55 -45 27 -44 27 42 28 c23 15 43 27
45 27 1 1 2 -24 2 -54z m580 -1 l0 -55 -39 23 c-21 13 -39 27 -40 32 -2 6 64
54 77 56 1 0 2 -25 2 -56z m290 -664 l0 -661 -22 12 c-24 13 -123 69 -703 404
-198 114 -375 216 -393 227 l-34 21 49 27 c57 32 232 133 503 290 107 62 251
146 320 185 69 40 157 91 195 114 39 22 73 41 78 41 4 0 7 -297 7 -660z
m-8730 501 l0 -109 -90 51 c-49 29 -90 54 -90 57 0 4 160 102 178 109 1 1 2
-48 2 -108z m578 -56 l-3 -54 -85 50 c-47 27 -86 53 -88 57 -1 4 37 30 85 58
l88 50 3 -53 c2 -29 2 -78 0 -108z m582 110 c0 -30 -2 -55 -5 -55 -2 0 -24 12
-49 27 l-45 27 42 28 c23 15 45 27 50 27 4 1 7 -24 7 -54z m570 -1 l0 -55 -39
23 c-21 13 -39 27 -40 32 -2 6 64 54 77 56 1 0 2 -25 2 -56z m580 -5 c0 -27
-2 -49 -5 -49 -2 0 -24 12 -49 27 l-45 27 42 27 c23 15 45 25 50 22 4 -2 7
-26 7 -54z m570 5 l0 -55 -39 23 c-21 13 -39 27 -40 32 -2 6 64 54 77 56 1 0
2 -25 2 -56z m858 1 c-2 -1 -22 -14 -45 -29 l-43 -26 0 54 0 55 46 -26 c25
-14 44 -26 42 -28z m522 24 c0 -14 -28 -79 -34 -79 -4 0 -6 25 -6 55 0 53 1
55 20 45 11 -6 20 -15 20 -21z m1778 -24 c-2 -1 -22 -14 -45 -29 l-43 -26 0
54 0 55 46 -26 c25 -14 44 -26 42 -28z m1152 0 c0 -2 -20 -15 -45 -28 l-45
-26 0 54 0 54 45 -26 c25 -13 45 -26 45 -28z m562 -2 c-1 -4 -20 -19 -42 -32
l-40 -23 0 57 0 57 43 -25 c23 -14 41 -29 39 -34z m588 2 c0 -2 -20 -15 -45
-28 l-45 -26 0 54 0 54 45 -26 c25 -13 45 -26 45 -28z m-8726 -53 c3 -5 -15
-18 -39 -30 l-45 -22 0 50 0 50 39 -20 c22 -11 42 -23 45 -28z m536 26 c22
-13 40 -25 40 -28 0 -5 -75 -50 -84 -50 -4 0 -6 23 -6 50 0 28 2 50 6 50 3 0
23 -10 44 -22z m614 -26 c3 -5 -15 -18 -39 -30 l-45 -22 0 50 0 50 39 -20 c22
-11 42 -23 45 -28z m536 26 c22 -13 40 -25 40 -28 0 -5 -75 -50 -84 -50 -4 0
-6 23 -6 50 0 28 2 50 6 50 3 0 23 -10 44 -22z m608 -21 c10 -8 3 -16 -29 -34
-22 -12 -43 -23 -45 -23 -2 0 -4 23 -4 50 l0 51 33 -17 c17 -9 38 -21 45 -27z
m542 21 c22 -13 40 -25 40 -28 0 -5 -75 -50 -84 -50 -4 0 -6 23 -6 50 0 28 2
50 6 50 3 0 23 -10 44 -22z m614 -26 c3 -5 -15 -18 -39 -30 l-45 -22 0 50 0
50 39 -20 c22 -11 42 -23 45 -28z m486 -3 c0 -28 -3 -49 -7 -47 -48 23 -83 43
-83 47 0 6 70 48 83 50 4 1 7 -22 7 -50z m580 1 c0 -27 -3 -50 -6 -50 -11 0
-84 43 -84 50 0 7 71 49 83 50 4 0 7 -22 7 -50z m1720 -1 c0 -28 -3 -49 -7
-47 -48 23 -83 43 -83 47 0 6 70 48 83 50 4 1 7 -22 7 -50z m580 1 c0 -27 -3
-50 -6 -50 -10 0 -84 43 -84 49 0 7 71 50 83 51 4 0 7 -22 7 -50z m567 -46
c-5 -5 -87 39 -87 47 0 3 19 14 43 26 l42 20 3 -44 c2 -25 1 -47 -1 -49z m583
46 c0 -27 -3 -50 -6 -50 -10 0 -84 43 -84 49 0 7 71 50 83 51 4 0 7 -22 7 -50z
m570 -1 c0 -28 -3 -49 -7 -47 -48 23 -83 43 -83 47 0 6 70 48 83 50 4 1 7 -22
7 -50z m-8430 -165 c0 -97 -2 -106 -17 -99 -35 13 -174 98 -169 103 9 9 171
101 179 101 4 1 7 -47 7 -105z m566 -101 c-5 -5 -164 86 -171 98 -3 4 34 30
82 58 l88 50 3 -101 c1 -55 1 -103 -2 -105z m584 157 c0 -27 -3 -50 -6 -50
-10 0 -84 43 -84 49 0 7 71 50 83 51 4 0 7 -22 7 -50z m567 -46 c-2 -3 -23 6
-47 20 l-42 24 44 26 43 26 3 -46 c2 -25 1 -48 -1 -50z m583 46 c0 -27 -3 -50
-6 -50 -10 0 -84 43 -84 49 0 7 71 50 83 51 4 0 7 -22 7 -50z m567 -46 c-2 -3
-23 6 -47 20 l-42 24 44 26 43 26 3 -46 c2 -25 1 -48 -1 -50z m583 46 c0 -27
-3 -50 -6 -50 -10 0 -84 43 -84 49 0 7 71 50 83 51 4 0 7 -22 7 -50z m243 25
c20 -10 37 -22 37 -25 0 -5 -33 -24 -82 -48 -5 -2 -8 20 -8 48 0 28 3 50 8 48
4 -2 24 -12 45 -23z m568 3 c22 -12 39 -25 39 -28 0 -7 -73 -50 -84 -50 -3 0
-6 23 -6 50 0 28 3 50 6 50 4 0 24 -10 45 -22z m1732 -3 c20 -10 37 -21 37
-24 0 -6 -75 -51 -84 -51 -4 0 -6 23 -6 51 0 28 3 49 8 47 4 -2 24 -12 45 -23z
m568 3 c22 -12 39 -25 39 -28 0 -6 -72 -50 -81 -50 -2 0 -4 23 -4 50 0 28 2
50 4 50 2 0 21 -10 42 -22z m1157 -4 l45 -27 -44 -23 c-24 -13 -47 -23 -51
-24 -5 0 -8 23 -8 50 0 28 3 50 7 50 3 0 27 -12 51 -26z m575 1 c20 -10 37
-21 37 -24 0 -6 -75 -51 -84 -51 -4 0 -6 23 -6 51 0 28 3 49 8 47 4 -2 24 -12
45 -23z m-7550 -93 c-10 -8 -30 -20 -45 -28 l-28 -15 0 55 0 56 45 -28 c41
-25 44 -28 28 -40z m585 10 c2 -7 -25 -23 -80 -50 -5 -2 -8 22 -8 53 l0 56 42
-25 c24 -14 44 -29 46 -34z m565 -10 c-10 -8 -30 -20 -45 -28 l-28 -15 0 55 0
56 45 -28 c41 -25 44 -28 28 -40z m1150 0 c-10 -8 -30 -20 -45 -28 l-28 -15 0
55 0 56 45 -28 c41 -25 44 -28 28 -40z m1077 13 l0 -56 -27 15 c-16 8 -36 21
-47 28 -17 14 -16 16 25 41 24 14 45 26 47 27 1 0 2 -25 2 -55z m2300 0 l0
-56 -27 15 c-16 8 -37 21 -47 29 -18 13 -16 15 25 39 24 14 45 26 47 27 1 1 2
-24 2 -54z m1150 0 l0 -56 -27 15 c-16 8 -37 21 -47 29 -18 13 -16 15 25 39
24 14 45 26 47 27 1 1 2 -24 2 -54z m-7424 24 c39 -23 38 -29 -10 -57 l-34
-20 -4 49 c-1 27 1 49 6 49 5 0 24 -9 42 -21z m2307 -3 l38 -24 -47 -26 c-25
-14 -48 -26 -50 -26 -2 0 -4 23 -4 50 0 58 7 60 63 26z m4542 -26 c0 -27 -1
-50 -1 -50 -1 0 -23 12 -48 26 l-47 26 38 24 c21 13 43 24 48 24 6 0 10 -22
10 -50z m1145 1 l0 -50 -46 26 -45 25 38 24 c21 13 41 24 46 24 4 0 7 -22 7
-49z m-6132 -136 l-3 -25 -44 26 -43 27 43 27 44 27 3 -29 c2 -15 2 -39 0 -53z
m-1728 -30 l0 -106 -47 28 c-27 15 -68 39 -92 54 l-44 27 24 15 c60 37 145 85
152 86 4 1 7 -46 7 -104z m580 55 c0 -56 -1 -56 -68 -12 l-24 15 39 24 c21 12
41 23 46 23 4 0 7 -23 7 -50z m580 0 c0 -27 -2 -50 -4 -50 -2 0 -25 12 -51 26
l-47 27 39 22 c57 34 63 32 63 -25z m1150 0 c0 -27 -2 -50 -4 -50 -2 0 -25 12
-51 26 l-47 27 39 22 c57 34 63 32 63 -25z m570 0 c0 -56 -1 -56 -68 -12 l-24
15 39 24 c21 12 41 23 46 23 4 0 7 -23 7 -50z m824 26 l38 -24 -23 -13 c-13
-6 -34 -19 -46 -27 -23 -14 -23 -14 -23 37 0 28 3 51 8 51 4 0 24 -11 46 -24z
m2300 0 l39 -24 -24 -12 c-13 -7 -34 -20 -46 -28 -23 -14 -23 -14 -23 37 0 28
3 51 8 51 4 0 25 -11 46 -24z m570 3 c20 -12 36 -23 36 -25 0 -5 -77 -54 -85
-54 -3 0 -5 23 -5 50 0 28 4 50 9 50 6 0 26 -9 45 -21z m1150 0 c20 -12 36
-24 36 -28 0 -6 -31 -25 -82 -49 -5 -2 -8 19 -8 47 0 28 4 51 9 51 6 0 26 -9
45 -21z m-8125 -68 c23 -13 23 -13 -19 -37 -23 -13 -44 -24 -46 -24 -2 0 -4
23 -4 51 0 51 0 51 23 37 12 -8 33 -21 46 -27z m554 14 c20 -10 37 -22 37 -27
0 -7 -72 -48 -85 -48 -3 0 -5 23 -5 51 0 28 3 49 8 47 4 -2 24 -12 45 -23z
m596 -14 l23 -13 -38 -24 c-22 -13 -42 -24 -46 -24 -5 0 -8 23 -8 51 0 51 0
51 23 37 12 -8 33 -21 46 -27z m551 14 c22 -14 40 -27 40 -29 0 -2 -20 -16
-45 -29 l-45 -26 0 55 c0 30 2 54 5 54 3 0 23 -11 45 -25z m599 -14 l23 -13
-38 -24 c-22 -13 -42 -24 -46 -24 -5 0 -8 23 -8 51 0 51 0 51 23 37 12 -8 33
-21 46 -27z m554 14 c20 -10 37 -22 37 -27 0 -7 -72 -48 -85 -48 -3 0 -5 23
-5 51 0 28 3 49 8 47 4 -2 24 -12 45 -23z m596 -14 c23 -13 23 -13 -19 -37
-23 -13 -44 -24 -46 -24 -2 0 -4 23 -4 51 0 51 0 51 23 37 12 -8 33 -21 46
-27z m497 -58 c-8 -8 -86 39 -80 49 3 4 22 17 42 27 l37 19 3 -45 c2 -25 1
-47 -2 -50z m584 47 c0 -27 -4 -50 -9 -50 -14 0 -81 41 -81 48 0 7 69 49 83
51 4 1 7 -21 7 -49z m1720 0 c0 -27 -3 -50 -7 -50 -5 0 -26 11 -47 24 l-39 23
44 27 c24 14 45 26 47 26 1 0 2 -22 2 -50z m580 0 c0 -27 -2 -50 -5 -50 -12 0
-85 41 -85 48 0 7 68 49 83 51 4 1 7 -21 7 -49z m570 0 c0 -27 -3 -50 -7 -50
-5 0 -26 11 -47 24 l-39 23 44 27 c24 14 45 26 47 26 1 0 2 -22 2 -50z m580 0
c0 -27 -4 -50 -9 -50 -14 0 -81 41 -81 48 0 7 69 49 83 51 4 1 7 -21 7 -49z
m-7860 -171 l0 -111 -32 20 c-18 11 -55 32 -83 47 -84 47 -84 43 12 101 48 28
91 53 96 53 4 1 7 -49 7 -110z m566 14 c-2 -3 -23 6 -46 20 l-41 24 43 26 43
25 3 -45 c2 -25 1 -47 -2 -50z m584 41 l0 -56 -37 23 c-21 12 -42 26 -47 30
-7 6 58 57 77 58 4 1 7 -24 7 -55z m568 -27 l-3 -24 -43 28 -42 27 42 25 43
25 3 -29 c2 -16 2 -40 0 -52z m582 29 l0 -55 -45 26 c-25 13 -45 27 -45 29 0
5 73 53 83 53 4 1 7 -23 7 -53z m566 -43 c-2 -3 -23 6 -46 20 l-41 24 43 26
43 25 3 -45 c2 -25 1 -47 -2 -50z m584 43 l0 -55 -45 26 c-25 13 -45 26 -45
28 0 4 82 55 88 55 1 0 2 -24 2 -54z m258 16 l24 -15 -39 -24 c-21 -12 -41
-23 -45 -23 -5 0 -8 23 -8 50 0 56 1 56 68 12z m556 12 l47 -27 -41 -23 c-23
-13 -46 -24 -51 -24 -5 0 -9 23 -9 50 0 28 2 50 4 50 2 0 25 -12 50 -26z
m1744 -12 l24 -15 -39 -24 c-21 -12 -41 -23 -45 -23 -5 0 -8 23 -8 50 0 56 1
56 68 12z m562 -38 c-23 -13 -45 -24 -49 -24 -3 0 -4 22 -3 49 l4 49 45 -25
44 -26 -41 -23z m588 38 l24 -15 -39 -24 c-21 -12 -41 -23 -45 -23 -5 0 -8 23
-8 50 0 56 1 56 68 12z m-7018 -42 c22 -11 40 -24 40 -28 0 -6 -73 -52 -82
-52 -2 0 -3 23 -3 50 0 28 1 50 3 50 1 0 21 -9 42 -20z m580 -2 c22 -13 40
-25 40 -29 0 -3 -20 -15 -45 -27 l-45 -22 0 50 c0 28 2 50 6 50 3 0 23 -10 44
-22z m570 2 c22 -11 40 -24 40 -28 0 -7 -73 -52 -84 -52 -4 0 -6 23 -6 50 0
28 2 50 5 50 3 0 24 -9 45 -20z m580 -2 c22 -13 40 -25 40 -29 0 -3 -20 -15
-45 -27 l-45 -22 0 50 c0 28 2 50 6 50 3 0 23 -10 44 -22z m570 2 c22 -11 40
-24 40 -28 0 -7 -73 -52 -84 -52 -4 0 -6 23 -6 50 0 28 2 50 5 50 3 0 24 -9
45 -20z m583 -4 l38 -23 -23 -15 c-67 -44 -68 -44 -68 12 0 27 3 50 8 50 4 0
24 -11 45 -24z m1097 -27 c0 -28 -3 -49 -7 -47 -50 24 -83 43 -83 48 0 7 71
49 83 50 4 0 7 -23 7 -51z m1722 1 c-4 -54 -5 -54 -70 -12 l-23 15 38 23 c55
32 58 30 55 -26z m578 -1 c0 -28 -3 -49 -7 -47 -50 24 -83 43 -83 48 0 7 71
49 83 50 4 0 7 -23 7 -51z m575 1 c0 -27 -2 -50 -4 -50 -2 0 -24 12 -49 26
l-44 26 38 23 c22 13 44 24 49 24 6 1 10 -21 10 -49z m575 -1 c0 -28 -3 -49
-7 -47 -50 24 -83 43 -83 48 0 7 71 49 83 50 4 0 7 -23 7 -51z m-7280 -109 c0
-27 -3 -50 -6 -50 -13 0 -84 44 -84 52 0 7 68 47 83 48 4 0 7 -22 7 -50z m570
-1 c0 -28 -3 -49 -7 -47 -49 23 -83 43 -83 47 0 7 71 50 83 51 4 0 7 -23 7
-51z m580 1 c0 -27 -3 -50 -6 -50 -13 0 -84 44 -84 52 0 7 68 47 83 48 4 0 7
-22 7 -50z m570 -1 c0 -28 -3 -49 -7 -47 -49 23 -83 43 -83 47 0 7 71 50 83
51 4 0 7 -23 7 -51z m580 1 c0 -27 -3 -50 -6 -50 -13 0 -84 44 -84 52 0 7 68
47 83 48 4 0 7 -22 7 -50z m570 -1 c0 -28 -3 -49 -7 -47 -48 23 -83 43 -83 47
0 6 70 48 83 50 4 1 7 -22 7 -50z m819 27 l42 -23 -23 -15 c-67 -44 -68 -44
-68 12 0 27 2 50 4 50 2 0 23 -11 45 -24z m572 -4 l32 -28 -37 -22 c-21 -12
-39 -22 -42 -22 -2 0 -4 23 -4 50 0 28 4 50 10 50 5 0 24 -13 41 -28z m1728 4
l42 -23 -23 -15 c-67 -44 -68 -44 -68 12 0 27 2 50 4 50 2 0 23 -11 45 -24z
m572 2 c22 -12 39 -25 39 -28 0 -5 -33 -24 -82 -48 -5 -2 -8 19 -8 47 0 28 3
51 6 51 4 0 24 -10 45 -22z m578 -2 l42 -23 -23 -15 c-67 -44 -68 -44 -68 12
0 27 2 50 4 50 2 0 23 -11 45 -24z m432 -27 c79 -46 87 -53 72 -64 -10 -7
-1045 -604 -2299 -1328 l-2281 -1317 -92 53 c-50 28 -91 54 -91 57 0 7 -9 2
375 222 309 177 1118 643 1440 830 72 41 189 109 260 150 72 41 483 279 915
528 432 250 884 511 1005 580 121 70 301 175 400 233 99 58 186 106 194 106 7
1 53 -22 102 -50z m-2137 16 c11 -8 18 -16 15 -18 -10 -8 -81 -47 -85 -47 -10
0 -2 23 18 50 25 34 26 35 52 15z m-5826 -70 c-2 -1 -22 -14 -45 -29 l-43 -26
0 54 0 55 46 -26 c25 -14 44 -26 42 -28z m563 -2 c-2 -4 -21 -18 -42 -31 l-39
-23 0 56 0 57 43 -25 c23 -14 40 -29 38 -34z m587 2 c-2 -1 -22 -14 -45 -29
l-43 -26 0 54 0 55 46 -26 c25 -14 44 -26 42 -28z m563 -2 c-2 -4 -21 -18 -42
-31 l-39 -23 0 56 0 57 43 -25 c23 -14 40 -29 38 -34z m587 2 c-2 -1 -22 -14
-45 -29 l-43 -26 0 54 0 55 46 -26 c25 -14 44 -26 42 -28z m556 12 c19 -14 18
-16 -22 -36 -23 -11 -44 -21 -47 -21 -3 0 -5 23 -5 50 l0 51 28 -15 c15 -8 36
-21 46 -29z m559 -33 c-21 -13 -41 -24 -45 -24 -5 0 -8 22 -8 49 l0 50 46 -26
45 -25 -38 -24z m517 22 l0 -55 -41 23 c-22 13 -40 27 -40 31 0 6 68 53 79 55
1 0 2 -24 2 -54z m580 -2 l0 -55 -49 28 -50 27 47 28 c26 15 48 28 50 28 1 0
2 -25 2 -56z m1720 2 l0 -55 -41 23 c-22 13 -40 27 -40 31 0 6 68 53 79 55 1
0 2 -24 2 -54z m580 -1 l0 -56 -27 15 c-16 8 -37 21 -47 29 -18 13 -17 15 25
40 24 15 45 27 47 27 1 0 2 -25 2 -55z m570 1 l0 -55 -41 23 c-22 13 -40 27
-40 31 -1 6 60 47 79 54 1 1 2 -23 2 -53z m-7280 -111 l0 -56 -27 15 c-16 8
-37 21 -47 29 -18 13 -17 15 25 40 24 15 45 27 47 27 1 0 2 -25 2 -55z m570 1
l0 -55 -41 23 c-22 13 -40 27 -40 31 -1 6 60 47 79 54 1 1 2 -23 2 -53z m580
-1 l0 -56 -27 15 c-16 8 -37 21 -47 29 -18 13 -17 15 25 40 24 15 45 27 47 27
1 0 2 -25 2 -55z m570 1 l0 -55 -41 23 c-22 13 -40 27 -40 31 -1 6 60 47 79
54 1 1 2 -23 2 -53z m580 -1 l0 -56 -27 15 c-16 8 -37 21 -47 29 -18 13 -17
15 25 40 24 15 45 27 47 27 1 0 2 -25 2 -55z m1150 0 l0 -56 -27 15 c-16 8
-36 21 -47 28 -17 14 -16 16 25 41 24 14 45 26 47 27 1 0 2 -25 2 -55z m273 5
c5 -4 -12 -19 -37 -33 l-46 -26 0 56 0 55 38 -23 c20 -12 41 -25 45 -29z m541
23 l45 -27 -37 -23 c-55 -33 -62 -30 -62 27 0 28 2 50 5 50 2 0 24 -12 49 -27z
m1759 -23 c5 -4 -12 -19 -37 -33 l-46 -26 0 56 0 55 38 -23 c20 -12 41 -25 45
-29z m549 -27 c-53 -32 -57 -30 -54 26 l4 49 43 -26 44 -26 -37 -23z m601 27
c5 -4 -12 -19 -37 -33 l-46 -26 0 56 0 55 38 -23 c20 -12 41 -25 45 -29z m967
-2 c50 -29 89 -56 88 -60 -3 -9 -4556 -2638 -4580 -2645 -22 -7 -202 99 -186
109 52 30 4584 2647 4586 2648 1 0 43 -24 92 -52z m-5270 -7 l0 -50 -46 26
-46 26 38 23 c22 13 42 24 47 24 4 0 7 -22 7 -49z m1998 -5 c-1 -1 -20 -12
-40 -24 l-38 -21 0 45 0 44 41 -20 c23 -12 39 -23 37 -24z m-4727 -18 c22 -12
39 -25 39 -28 0 -7 -73 -50 -84 -50 -3 0 -6 23 -6 50 0 28 3 50 6 50 4 0 24
-10 45 -22z m582 -3 c20 -10 37 -22 37 -25 0 -5 -33 -24 -82 -48 -5 -2 -8 20
-8 48 0 28 3 50 8 48 4 -2 24 -12 45 -23z m568 3 c22 -12 39 -25 39 -28 0 -7
-73 -50 -84 -50 -3 0 -6 23 -6 50 0 28 3 50 6 50 4 0 24 -10 45 -22z m582 -3
c20 -10 37 -22 37 -25 0 -5 -33 -24 -82 -48 -5 -2 -8 20 -8 48 0 28 3 50 8 48
4 -2 24 -12 45 -23z m568 3 c22 -12 39 -24 39 -27 0 -6 -75 -51 -84 -51 -4 0
-6 23 -6 50 0 28 3 50 6 50 4 0 24 -10 45 -22z m582 -3 c20 -10 37 -22 37 -25
0 -5 -33 -24 -82 -48 -5 -2 -8 20 -8 48 0 28 3 50 8 48 4 -2 24 -12 45 -23z
m1097 -25 c0 -27 -2 -50 -6 -50 -9 0 -84 45 -84 50 0 6 72 49 83 50 4 0 7 -22
7 -50z m568 -24 l-3 -24 -44 22 -44 23 44 26 44 27 3 -25 c2 -14 2 -36 0 -49z
m1154 25 l-4 -50 -43 21 c-24 12 -42 25 -39 30 5 8 73 47 84 48 3 0 3 -22 2
-49z m578 -1 c0 -27 -2 -50 -6 -50 -9 0 -84 45 -84 50 0 5 70 47 83 49 4 1 7
-21 7 -49z m575 0 c0 -27 -2 -50 -5 -50 -3 1 -25 11 -49 24 l-44 23 44 26 c24
15 46 27 49 27 3 0 5 -22 5 -50z m-6705 -110 c0 -27 -3 -50 -7 -50 -5 1 -28
11 -52 24 l-44 23 44 26 c24 15 47 27 52 27 4 0 7 -22 7 -50z m570 0 c0 -27
-2 -50 -6 -50 -9 0 -84 45 -84 50 0 5 70 47 83 49 4 1 7 -21 7 -49z m580 0 c0
-27 -2 -50 -5 -50 -13 0 -85 41 -85 48 0 8 69 51 83 52 4 0 7 -22 7 -50z m570
0 c0 -27 -2 -50 -6 -50 -9 0 -84 45 -84 50 0 5 70 47 83 49 4 1 7 -21 7 -49z
m580 0 c0 -27 -2 -50 -5 -50 -12 0 -85 41 -85 48 0 7 69 51 83 52 4 0 7 -22 7
-50z m566 -47 c-2 -3 -23 6 -46 20 l-42 25 44 26 43 26 3 -46 c2 -25 1 -48 -2
-51z m858 49 c3 -5 -15 -18 -39 -30 l-45 -22 0 50 0 50 39 -20 c22 -11 42 -23
45 -28z m536 26 c22 -13 40 -25 40 -28 0 -5 -75 -50 -84 -50 -4 0 -6 23 -6 50
0 28 2 50 6 50 3 0 23 -10 44 -22z m1150 0 c22 -13 40 -25 40 -28 0 -5 -75
-50 -84 -50 -4 0 -6 23 -6 50 0 28 2 50 6 50 3 0 23 -10 44 -22z m608 -21 c10
-8 3 -16 -29 -34 -22 -12 -43 -23 -45 -23 -2 0 -4 23 -4 50 l0 51 33 -17 c17
-9 38 -21 45 -27z m542 21 c22 -13 40 -26 40 -29 0 -6 -74 -49 -84 -49 -3 0
-6 23 -6 50 0 28 2 50 6 50 3 0 23 -10 44 -22z m1582 -29 c73 -42 87 -54 76
-64 -7 -6 -1040 -605 -2296 -1329 l-2283 -1317 -95 53 c-83 47 -110 68 -86 68
4 0 1035 594 2292 1320 1257 725 2289 1319 2294 1320 5 0 49 -23 98 -51z
m-3294 16 l36 -16 -43 -24 c-24 -14 -45 -25 -47 -25 -2 0 -4 18 -4 40 0 45 5
47 58 25z m-4679 -70 c0 -5 -17 -21 -39 -34 l-40 -23 0 57 0 56 39 -23 c21
-13 39 -27 40 -33z m583 -6 c-4 -3 -24 -16 -44 -28 l-38 -23 0 56 0 55 44 -27
c24 -15 41 -30 38 -33z m567 6 c0 -5 -17 -21 -39 -34 l-40 -23 0 57 0 56 39
-23 c21 -13 39 -27 40 -33z m1150 0 c0 -5 -17 -21 -39 -34 l-40 -23 0 57 0 56
39 -23 c21 -13 39 -27 40 -33z m589 0 c2 -2 -17 -14 -42 -28 l-46 -26 0 55 0
54 43 -26 c23 -15 43 -28 45 -29z m480 -29 l-3 -24 -43 25 -44 26 44 27 43 27
3 -29 c2 -15 2 -39 0 -52z m1150 0 l-3 -24 -43 25 -44 26 44 27 43 27 3 -29
c2 -15 2 -39 0 -52z m579 -23 c-3 -2 -25 8 -50 24 l-46 27 47 27 47 27 3 -50
c2 -28 1 -52 -1 -55z m571 23 l-3 -24 -43 25 -44 26 44 27 43 27 3 -29 c2 -15
2 -39 0 -52z m-3966 51 l38 -22 -45 -27 -45 -28 0 50 c0 28 3 50 8 50 4 0 24
-10 44 -23z m2248 -27 c0 -27 -2 -50 -5 -50 -2 0 -24 12 -49 27 l-45 27 37 22
c56 33 62 31 62 -26z m2300 0 c0 -27 -2 -50 -5 -50 -2 0 -24 12 -49 27 l-45
27 37 22 c56 33 62 31 62 -26z m-5563 -157 c-3 -2 -24 7 -47 22 -46 29 -46 30
8 60 l37 21 3 -49 c2 -27 1 -51 -1 -54z m571 23 l-3 -24 -43 25 -42 25 42 27
43 27 3 -28 c2 -16 2 -39 0 -52z m2004 23 c-4 -3 -24 -16 -44 -28 l-38 -23 0
56 0 56 45 -28 c24 -14 41 -29 37 -33z m1150 0 c-4 -3 -24 -16 -44 -28 l-38
-23 0 56 0 56 45 -28 c24 -14 41 -29 37 -33z m1141 -7 c-10 -8 -30 -20 -45
-28 l-28 -15 0 55 0 56 45 -28 c41 -25 44 -28 28 -40z m2687 13 c2 -5 -186
-119 -416 -252 l-419 -242 0 -56 -1 -56 -1488 -860 -1489 -859 -43 25 c-23 14
-48 25 -54 25 -6 0 -160 -86 -341 -190 l-330 -191 -42 23 c-23 13 -41 27 -40
31 1 5 1034 604 2295 1332 l2292 1324 37 -22 c20 -12 38 -26 39 -32z m-8130
-6 c0 -51 0 -51 -22 -37 -13 8 -34 21 -47 27 l-23 13 38 24 c22 13 42 24 47
24 4 0 7 -23 7 -51z m1730 0 c0 -28 -3 -49 -7 -47 -50 24 -83 43 -83 48 0 7
71 49 83 50 4 0 7 -23 7 -51z m570 0 c0 -51 0 -51 -22 -37 -13 8 -34 21 -47
27 l-24 13 39 23 c22 13 42 24 47 24 4 1 7 -22 7 -50z m580 1 c0 -27 -2 -50
-5 -50 -3 0 -24 12 -47 26 l-41 26 39 24 c21 13 42 24 47 24 4 0 7 -22 7 -50z
m822 27 l37 -23 -45 -27 c-25 -15 -47 -27 -49 -27 -3 0 -5 23 -5 50 0 57 7 60
62 27z m1150 0 l37 -23 -45 -27 c-25 -15 -46 -27 -47 -27 -1 0 -2 23 -2 50 0
28 5 50 10 50 6 0 27 -11 47 -23z m1150 0 l37 -23 -45 -27 c-25 -15 -46 -27
-47 -27 -1 0 -2 23 -2 50 0 28 5 50 10 50 6 0 27 -11 47 -23z m-5834 -65 l24
-15 -39 -24 c-21 -12 -41 -23 -45 -23 -5 0 -8 23 -8 50 0 56 1 56 68 12z m556
12 l47 -27 -41 -23 c-23 -13 -46 -24 -51 -24 -5 0 -9 23 -9 50 0 28 2 50 4 50
2 0 25 -12 50 -26z m594 -12 l23 -15 -38 -23 c-21 -13 -41 -24 -45 -24 -5 0
-8 23 -8 50 0 56 1 56 68 12z m552 16 c22 -13 40 -26 40 -30 0 -7 -73 -48 -85
-48 -3 0 -5 23 -5 50 0 28 2 50 6 50 3 0 23 -10 44 -22z m598 -16 l23 -15 -38
-23 c-21 -13 -41 -24 -45 -24 -5 0 -8 23 -8 50 0 56 1 56 68 12z m1082 -12 c0
-27 -3 -50 -6 -50 -10 0 -84 43 -84 49 0 6 70 48 83 50 4 1 7 -21 7 -49z m566
-47 c-2 -3 -23 6 -46 20 l-41 24 43 26 43 25 3 -45 c2 -25 1 -47 -2 -50z m584
47 c0 -27 -3 -50 -6 -50 -10 0 -84 43 -84 49 0 6 70 48 83 50 4 1 7 -21 7 -49z
m575 0 c0 -27 -4 -50 -10 -50 -5 0 -27 11 -48 24 l-39 24 44 26 c23 14 45 26
48 26 3 0 5 -22 5 -50z m571 -47 c-8 -8 -86 39 -80 49 3 4 22 17 42 27 l37 19
3 -45 c2 -25 1 -47 -2 -50z m-5558 -97 l-3 -23 -44 27 -43 27 43 27 44 26 3
-30 c2 -17 2 -41 0 -54z m582 34 c0 -27 -4 -50 -9 -50 -5 0 -28 11 -51 24
l-42 24 44 25 c23 14 46 25 51 26 4 1 7 -21 7 -49z m568 -34 l-3 -23 -43 27
-44 27 44 26 43 25 3 -29 c2 -16 2 -40 0 -53z m582 34 c0 -27 -4 -50 -9 -50
-11 0 -81 40 -81 46 0 5 73 53 83 53 4 1 7 -21 7 -49z m568 -34 l-3 -23 -43
27 -44 27 44 26 43 25 3 -29 c2 -16 2 -40 0 -53z m841 45 l23 -13 -38 -24
c-22 -13 -42 -24 -46 -24 -5 0 -8 23 -8 51 0 51 0 51 23 37 12 -8 33 -21 46
-27z m554 14 c20 -10 37 -22 37 -27 0 -7 -72 -48 -85 -48 -3 0 -5 23 -5 51 0
28 3 49 8 47 4 -2 24 -12 45 -23z m596 -14 l23 -13 -38 -24 c-22 -13 -42 -24
-46 -24 -5 0 -8 23 -8 51 0 51 0 51 23 37 12 -8 33 -21 46 -27z m554 14 c20
-10 37 -22 37 -27 0 -7 -72 -48 -85 -48 -3 0 -5 23 -5 51 0 28 3 49 8 47 4 -2
24 -12 45 -23z m596 -14 l23 -13 -38 -24 c-22 -13 -42 -24 -46 -24 -5 0 -8 23
-8 51 0 51 0 51 23 37 12 -8 33 -21 46 -27z m-5290 -45 l42 -23 -23 -15 c-67
-44 -68 -44 -68 12 0 27 2 50 4 50 2 0 23 -11 45 -24z m574 1 c42 -26 40 -30
-20 -61 l-33 -17 0 51 c0 27 3 50 8 50 4 0 24 -11 45 -23z m577 -1 c42 -24 42
-24 19 -37 -13 -6 -34 -19 -46 -27 -23 -14 -23 -14 -23 37 0 28 2 51 4 51 2 0
23 -11 46 -24z m574 0 l39 -24 -41 -26 c-23 -14 -44 -26 -47 -26 -3 0 -5 23
-5 50 0 28 3 50 8 50 4 0 25 -11 46 -24z m576 0 c42 -24 42 -24 19 -37 -13 -6
-34 -19 -46 -27 -23 -14 -23 -14 -23 37 0 28 2 51 4 51 2 0 23 -11 46 -24z
m520 -26 l0 -51 -32 17 c-60 30 -62 35 -21 60 21 13 41 24 46 24 4 0 7 -23 7
-50z m580 0 c0 -27 -2 -50 -6 -50 -11 0 -84 45 -84 52 0 8 68 47 83 48 4 0 7
-22 7 -50z m570 0 l0 -51 -32 17 c-60 30 -62 35 -21 60 21 13 41 24 46 24 4 0
7 -23 7 -50z m580 0 c0 -27 -2 -50 -6 -50 -11 0 -84 45 -84 52 0 8 68 47 83
48 4 0 7 -22 7 -50z m570 0 l0 -51 -32 17 c-60 30 -62 35 -21 60 21 13 41 24
46 24 4 0 7 -23 7 -50z m-4980 -110 c0 -27 -2 -50 -6 -50 -9 0 -84 45 -84 51
0 6 71 48 83 49 4 0 7 -22 7 -50z m568 -25 l-3 -25 -44 27 -44 26 44 23 44 22
3 -24 c2 -13 2 -35 0 -49z m582 25 c0 -27 -2 -50 -6 -50 -9 0 -84 45 -84 50 0
6 72 49 83 50 4 0 7 -22 7 -50z m570 0 l0 -51 -32 17 c-62 31 -63 36 -16 60
24 13 44 23 46 24 1 0 2 -23 2 -50z m580 0 c0 -27 -2 -50 -6 -50 -9 0 -84 45
-84 50 0 6 72 49 83 50 4 0 7 -22 7 -50z m243 26 c41 -25 39 -30 -20 -60 l-33
-17 0 51 c0 27 3 50 8 50 4 0 24 -11 45 -24z m576 0 l43 -23 -45 -26 c-25 -15
-48 -27 -51 -27 -3 0 -6 23 -6 50 0 28 3 50 8 50 4 -1 27 -11 51 -24z m571 2
c22 -13 40 -25 40 -29 0 -3 -20 -15 -45 -27 l-45 -22 0 50 c0 28 2 50 6 50 3
0 23 -10 44 -22z m570 2 c22 -11 40 -24 40 -28 0 -6 -73 -52 -82 -52 -2 0 -3
23 -3 50 0 28 1 50 3 50 1 0 21 -9 42 -20z m580 -2 c22 -13 40 -25 40 -29 0
-3 -20 -15 -45 -27 l-45 -22 0 50 c0 28 2 50 6 50 3 0 23 -10 44 -22z m-4700
-53 c22 -14 40 -27 40 -30 0 -5 -75 -45 -85 -45 -3 0 -5 23 -5 50 0 28 2 50 5
50 3 0 23 -11 45 -25z m612 -24 c4 -4 -13 -19 -37 -33 l-45 -28 0 56 0 56 38
-23 c20 -12 40 -25 44 -28z m538 24 c22 -14 40 -27 40 -29 0 -6 -70 -46 -81
-46 -5 0 -9 23 -9 50 0 28 2 50 5 50 3 0 23 -11 45 -25z m612 -24 c4 -4 -13
-19 -37 -33 l-45 -28 0 56 0 56 38 -23 c20 -12 40 -25 44 -28z m1068 -7 l0
-56 -37 23 c-58 34 -58 35 -11 63 23 14 44 26 46 26 1 0 2 -25 2 -56z m568
-28 l-3 -23 -44 27 -43 27 43 24 44 25 3 -28 c2 -16 2 -39 0 -52z m582 28 l0
-56 -37 23 c-58 34 -58 35 -11 63 23 14 44 26 46 26 1 0 2 -25 2 -56z m568
-28 l-3 -23 -44 27 -43 27 43 24 44 25 3 -28 c2 -16 2 -39 0 -52z m-3828 -82
l0 -55 -39 23 c-21 13 -39 27 -40 32 -2 6 54 47 77 55 1 1 2 -24 2 -55z m1150
0 l0 -55 -39 23 c-21 13 -39 27 -40 32 -2 6 54 47 77 55 1 1 2 -24 2 -55z
m858 1 c-2 -1 -22 -14 -45 -29 l-43 -26 0 54 0 55 46 -26 c25 -14 44 -26 42
-28z m563 -2 c-2 -4 -21 -18 -42 -31 l-39 -23 0 56 0 57 43 -25 c23 -14 40
-29 38 -34z m587 2 c-2 -1 -22 -14 -45 -29 l-43 -26 0 54 0 55 46 -26 c25 -14
44 -26 42 -28z m563 -2 c-2 -4 -21 -18 -42 -31 l-39 -23 0 56 0 57 43 -25 c23
-14 40 -29 38 -34z m-3141 -3 c0 -27 -2 -50 -5 -50 -8 0 -85 49 -85 54 0 7 65
46 78 46 8 0 12 -17 12 -50z m-400 -48 c0 -5 -18 -18 -40 -31 l-40 -22 0 51 0
50 40 -20 c22 -11 40 -24 40 -28z m540 26 c22 -13 40 -26 40 -29 0 -4 -34 -24
-82 -47 -5 -2 -8 19 -8 47 0 28 2 51 6 51 3 0 23 -10 44 -22z m610 -26 c0 -5
-18 -18 -40 -31 l-40 -22 0 51 0 50 40 -20 c22 -11 40 -24 40 -28z m490 -3 c0
-28 -3 -49 -7 -47 -48 23 -83 43 -83 47 0 6 70 48 83 50 4 1 7 -22 7 -50z
m580 1 c0 -27 -3 -50 -6 -50 -11 0 -84 43 -84 50 0 7 71 49 83 50 4 0 7 -22 7
-50z m570 -1 c0 -28 -3 -49 -7 -47 -48 23 -83 43 -83 47 0 6 70 48 83 50 4 1
7 -22 7 -50z m580 1 c0 -27 -3 -50 -6 -50 -11 0 -84 43 -84 50 0 7 71 49 83
50 4 0 7 -22 7 -50z m-3260 -110 c0 -27 -3 -50 -6 -50 -10 0 -84 43 -84 49 0
6 70 48 83 50 4 1 7 -21 7 -49z m567 -46 c-2 -3 -23 6 -47 20 l-42 24 44 26
43 26 3 -46 c2 -25 1 -48 -1 -50z m583 46 c0 -27 -3 -50 -6 -50 -10 0 -84 43
-84 49 0 6 70 48 83 50 4 1 7 -21 7 -49z m243 25 c20 -10 37 -22 37 -25 0 -5
-33 -24 -82 -48 -5 -2 -8 20 -8 48 0 28 3 50 8 48 4 -2 24 -12 45 -23z m568 3
c22 -12 39 -25 39 -28 0 -7 -73 -50 -84 -50 -3 0 -6 23 -6 50 0 28 3 50 6 50
4 0 24 -10 45 -22z m582 -3 c20 -10 37 -22 37 -25 0 -5 -33 -24 -82 -48 -5 -2
-8 20 -8 48 0 28 3 50 8 48 4 -2 24 -12 45 -23z m568 3 c22 -12 39 -25 39 -28
0 -6 -72 -50 -81 -50 -2 0 -4 23 -4 50 0 28 2 50 4 50 2 0 21 -10 42 -22z
m-2937 -85 c0 -4 -20 -18 -42 -31 l-42 -23 0 56 0 57 43 -25 c23 -14 42 -29
41 -34z m579 -3 c-4 -4 -25 -17 -45 -29 l-38 -23 0 55 0 56 46 -26 c25 -14 42
-29 37 -33z m1067 5 l0 -56 -27 15 c-16 8 -36 21 -47 28 -17 14 -16 16 25 41
24 14 45 26 47 27 1 0 2 -25 2 -55z m1150 0 l0 -56 -27 15 c-16 8 -37 21 -47
29 -18 13 -16 15 25 39 24 14 45 26 47 27 1 1 2 -24 2 -54z m-3398 24 c43 -22
43 -24 -14 -58 l-38 -23 0 51 c0 28 2 51 5 51 3 0 24 -9 47 -21z m2818 -28 l0
-50 -46 26 -46 26 38 23 c22 13 42 24 47 24 4 0 7 -22 7 -49z m3214 11 c3 -5
-10 -53 -29 -106 -19 -53 -35 -105 -35 -115 0 -14 -324 -205 -1321 -781 -726
-419 -1329 -764 -1338 -767 -21 -5 -196 96 -184 107 12 12 2887 1670 2895
1670 4 0 9 -4 12 -8z m-3325 -117 c0 -5 -17 -21 -39 -34 l-40 -23 0 57 0 56
39 -23 c21 -13 39 -27 40 -33z m583 -6 c-4 -3 -24 -16 -44 -28 l-38 -23 0 56
0 56 45 -28 c24 -14 41 -29 37 -33z m-3152 1 c0 -56 -1 -56 -68 -12 l-24 15
39 24 c21 12 41 23 46 23 4 0 7 -23 7 -50z m580 -1 c0 -28 -3 -49 -7 -47 -52
25 -83 43 -83 49 0 9 61 47 78 48 8 1 12 -15 12 -50z m570 1 c0 -56 -1 -56
-68 -12 l-24 15 39 24 c21 12 41 23 46 23 4 0 7 -23 7 -50z m824 26 l38 -23
-46 -26 -46 -26 0 50 c0 27 3 49 8 49 4 0 24 -11 46 -24z m-1806 -64 l23 -15
-42 -23 c-22 -13 -43 -24 -45 -24 -2 0 -4 23 -4 50 0 56 1 56 68 12z m555 13
c20 -10 37 -22 37 -25 0 -7 -73 -50 -84 -50 -3 0 -6 23 -6 51 0 28 3 49 8 47
4 -2 24 -12 45 -23z m595 -13 l23 -15 -42 -23 c-22 -13 -43 -24 -45 -24 -2 0
-4 23 -4 50 0 56 1 56 68 12z m498 -59 c-2 -3 -23 6 -46 20 l-42 25 23 15 c64
40 64 40 67 -10 2 -25 1 -47 -2 -50z m584 47 c0 -27 -2 -50 -5 -50 -12 0 -85
41 -85 48 0 7 69 51 83 52 4 0 7 -22 7 -50z m566 -47 c-2 -3 -23 6 -46 20
l-42 25 44 26 43 26 3 -46 c2 -25 1 -48 -2 -51z m-3043 -21 l78 -44 -68 -40
c-37 -23 -72 -41 -78 -41 -17 0 -187 104 -180 111 3 4 34 23 68 43 70 41 56
43 180 -29z m367 -46 l0 -55 -45 26 c-25 13 -45 26 -45 28 0 4 82 55 88 55 1
0 2 -24 2 -54z m566 -43 c-2 -3 -23 6 -46 20 l-42 25 44 24 43 24 3 -44 c2
-24 1 -46 -2 -49z m584 43 l0 -55 -45 26 c-25 13 -45 26 -45 28 0 4 82 55 88
55 1 0 2 -24 2 -54z m258 16 l24 -15 -39 -24 c-21 -12 -41 -23 -45 -23 -5 0
-8 23 -8 50 0 56 1 56 68 12z m558 12 l45 -27 -41 -23 c-23 -13 -46 -24 -51
-24 -5 0 -9 23 -9 50 0 28 3 50 6 50 3 0 26 -12 50 -26z m592 -12 l24 -15 -39
-24 c-21 -12 -41 -23 -45 -23 -5 0 -8 23 -8 50 0 56 1 56 68 12z m-2418 -42
c22 -11 40 -24 40 -28 0 -7 -30 -25 -82 -50 -5 -2 -8 19 -8 47 0 28 2 51 5 51
3 0 24 -9 45 -20z m583 -4 l38 -23 -23 -15 c-67 -44 -68 -44 -68 12 0 27 3 50
8 50 4 0 24 -11 45 -24z m1097 -27 c0 -28 -3 -49 -7 -47 -50 24 -83 43 -83 48
0 7 71 49 83 50 4 0 7 -23 7 -51z m570 1 c0 -56 -1 -56 -68 -12 l-23 15 38 23
c21 12 41 23 46 23 4 1 7 -22 7 -49z m-2490 -52 c50 -29 90 -55 90 -58 0 -3
-76 -48 -168 -101 l-167 -97 -7 87 c-4 47 -9 94 -10 104 -2 13 19 31 77 67 44
26 84 49 88 49 4 1 48 -23 97 -51z m390 -58 c0 -27 -2 -50 -6 -50 -9 0 -84 45
-84 51 0 6 71 48 83 49 4 0 7 -22 7 -50z m570 -1 c0 -28 -3 -49 -7 -47 -48 23
-83 43 -83 47 0 6 70 48 83 50 4 1 7 -22 7 -50z m819 27 l42 -23 -23 -15 c-67
-44 -68 -44 -68 12 0 27 2 50 4 50 2 0 23 -11 45 -24z m572 2 c22 -12 39 -25
39 -28 0 -5 -33 -24 -82 -48 -5 -2 -8 19 -8 47 0 28 3 51 6 51 4 0 24 -10 45
-22z m-1797 -71 c19 -14 18 -16 -22 -36 -23 -11 -44 -21 -47 -21 -3 0 -5 23
-5 50 l0 51 28 -15 c15 -8 36 -21 46 -29z m559 -33 c-21 -13 -41 -24 -45 -24
-5 0 -8 22 -8 49 l0 50 46 -26 45 -25 -38 -24z m517 22 l0 -55 -45 26 c-25 13
-45 26 -45 28 0 4 82 55 88 55 1 0 2 -24 2 -54z m578 -31 l-3 -24 -48 28 -47
27 47 27 48 26 3 -30 c2 -16 2 -40 0 -54z m-1917 -26 c49 -28 89 -52 89 -54 0
-6 -367 -215 -378 -215 -22 0 -184 102 -176 110 14 14 358 210 368 210 5 0 49
-23 97 -51z m379 -53 l0 -55 -46 26 -46 26 44 28 c23 15 44 28 46 28 1 1 2
-23 2 -53z m580 -1 l0 -56 -27 15 c-16 8 -36 21 -47 28 -17 14 -16 16 25 41
24 14 45 26 47 27 1 0 2 -25 2 -55z m273 5 c5 -4 -12 -19 -37 -33 l-46 -26 0
56 0 55 38 -23 c20 -12 41 -25 45 -29z m541 23 l45 -27 -37 -23 c-55 -33 -62
-30 -62 27 0 28 2 50 5 50 2 0 24 -12 49 -27z m-1241 -58 c20 -10 37 -21 37
-25 0 -3 -20 -16 -45 -28 l-45 -22 0 51 c0 28 3 49 8 47 4 -2 24 -12 45 -23z
m1097 -25 c0 -27 -2 -50 -6 -50 -9 0 -84 45 -84 50 0 6 72 49 83 50 4 0 7 -22
7 -50z m-1341 -55 c50 -27 90 -52 90 -55 0 -3 -85 -54 -189 -113 l-190 -108
-96 54 -97 55 54 31 c30 17 115 66 189 110 74 44 138 79 141 78 4 -1 47 -24
98 -52z m377 -102 c-2 -3 -23 6 -46 20 l-42 25 23 15 c64 40 64 40 67 -10 2
-25 1 -47 -2 -50z m858 49 c3 -5 -15 -18 -39 -30 l-45 -22 0 50 0 50 39 -20
c22 -11 42 -23 45 -28z m-667 -56 c1 -1 -18 -14 -42 -29 l-45 -27 0 55 0 55
43 -26 c23 -15 43 -27 44 -28z m481 -30 l-3 -24 -43 25 -44 26 44 27 43 27 3
-29 c2 -15 2 -39 0 -52z m-762 -28 c51 -29 91 -54 88 -57 -2 -2 -88 -52 -190
-111 l-187 -108 -86 50 c-47 27 -89 53 -93 57 -7 6 345 218 366 220 5 1 51
-22 102 -51z m657 -58 c-4 -4 -25 -17 -45 -29 l-38 -23 0 55 0 56 46 -26 c25
-14 42 -29 37 -33z m-273 0 c0 -27 -2 -50 -5 -50 -3 0 -24 12 -47 26 l-41 26
39 24 c21 13 42 24 47 24 4 0 7 -22 7 -50z m-42 -137 c17 -9 32 -20 32 -24 0
-7 -362 -219 -374 -219 -18 0 -186 104 -179 111 4 4 89 55 188 112 l180 105
60 -35 c33 -19 75 -41 93 -50z"/>
</g>
</svg>
