<svg xmlns="http://www.w3.org/2000/svg" xmlns:xlink="http://www.w3.org/1999/xlink" width="120" zoomAndPan="magnify" viewBox="0 0 90 89.999999" height="120" preserveAspectRatio="xMidYMid meet" version="1.0"><defs><g/><clipPath id="e9a163e263"><path d="M 9.75 14.433594 L 81.75 14.433594 L 81.75 37 L 9.75 37 Z M 9.75 14.433594 " clip-rule="nonzero"/></clipPath><clipPath id="bb4e907287"><path d="M 9 34.683594 L 9 52.683594 C 9 64.28125 18.402344 73.683594 30 73.683594 L 61.171875 73.683594 C 72.769531 73.683594 82.171875 64.28125 82.171875 52.683594 L 82.171875 34.683594 C 82.171875 23.085938 72.769531 13.683594 61.171875 13.683594 L 30 13.683594 C 18.402344 13.683594 9 23.085938 9 34.683594 Z M 9 34.683594 " clip-rule="nonzero"/></clipPath><clipPath id="49c18eebd3"><path d="M 30.898438 14.582031 L 60.269531 14.582031 C 71.867188 14.582031 81.269531 23.984375 81.269531 35.582031 L 81.269531 51.785156 C 81.269531 63.382812 71.867188 72.785156 60.269531 72.785156 L 30.898438 72.785156 C 19.300781 72.785156 9.898438 63.382812 9.898438 51.785156 L 9.898438 35.582031 C 9.898438 23.984375 19.300781 14.582031 30.898438 14.582031 Z M 30.898438 14.582031 " clip-rule="nonzero"/></clipPath><clipPath id="dc2f684c41"><path d="M 9.75 50 L 81.75 50 L 81.75 72.933594 L 9.75 72.933594 Z M 9.75 50 " clip-rule="nonzero"/></clipPath><clipPath id="ad2a5dfa5b"><path d="M 9 34.683594 L 9 52.683594 C 9 64.28125 18.402344 73.683594 30 73.683594 L 61.171875 73.683594 C 72.769531 73.683594 82.171875 64.28125 82.171875 52.683594 L 82.171875 34.683594 C 82.171875 23.085938 72.769531 13.683594 61.171875 13.683594 L 30 13.683594 C 18.402344 13.683594 9 23.085938 9 34.683594 Z M 9 34.683594 " clip-rule="nonzero"/></clipPath><clipPath id="186f5e7a65"><path d="M 30.898438 14.582031 L 60.269531 14.582031 C 71.867188 14.582031 81.269531 23.984375 81.269531 35.582031 L 81.269531 51.785156 C 81.269531 63.382812 71.867188 72.785156 60.269531 72.785156 L 30.898438 72.785156 C 19.300781 72.785156 9.898438 63.382812 9.898438 51.785156 L 9.898438 35.582031 C 9.898438 23.984375 19.300781 14.582031 30.898438 14.582031 Z M 30.898438 14.582031 " clip-rule="nonzero"/></clipPath><clipPath id="3436ca4b41"><path d="M 9 13.683594 L 82.5 13.683594 L 82.5 73.683594 L 9 73.683594 Z M 9 13.683594 " clip-rule="nonzero"/></clipPath><clipPath id="da79a34d9d"><path d="M 9 34.683594 L 9 52.683594 C 9 64.28125 18.402344 73.683594 30 73.683594 L 61.171875 73.683594 C 72.769531 73.683594 82.171875 64.28125 82.171875 52.683594 L 82.171875 34.683594 C 82.171875 23.085938 72.769531 13.683594 61.171875 13.683594 L 30 13.683594 C 18.402344 13.683594 9 23.085938 9 34.683594 Z M 9 34.683594 " clip-rule="nonzero"/></clipPath><clipPath id="8d558f43e3"><path d="M 9 34.683594 L 9 52.683594 C 9 64.28125 18.445312 73.683594 30.09375 73.683594 L 61.40625 73.683594 C 73.054688 73.683594 82.5 64.28125 82.5 52.683594 L 82.5 34.683594 C 82.5 23.085938 73.054688 13.683594 61.40625 13.683594 L 30.09375 13.683594 C 18.445312 13.683594 9 23.085938 9 34.683594 Z M 9 34.683594 " clip-rule="nonzero"/></clipPath></defs><g clip-path="url(#e9a163e263)"><g clip-path="url(#bb4e907287)"><g clip-path="url(#49c18eebd3)"><path fill="#231916" d="M 25.148438 36.054688 C 25.199219 35.925781 25.246094 35.777344 25.296875 35.648438 C 25.328125 35.582031 25.363281 35.5 25.378906 35.4375 C 25.425781 35.304688 25.476562 35.191406 25.527344 35.0625 C 25.558594 34.980469 25.589844 34.914062 25.625 34.832031 C 25.769531 34.507812 25.917969 34.164062 26.082031 33.839844 L 24.183594 32.652344 L 21.320312 34.539062 L 21.011719 34.753906 L 23.480469 29.507812 L 29.4375 28.957031 C 30.695312 27.539062 32.136719 26.300781 33.722656 25.242188 L 32.675781 23.273438 L 28.863281 23.515625 L 33.625 20.195312 L 39.054688 22.671875 C 40.820312 22.082031 42.703125 21.710938 44.632812 21.59375 L 44.714844 19.363281 L 41.296875 17.671875 L 47.085938 17.167969 L 50.539062 22.019531 C 52.4375 22.410156 54.234375 23.027344 55.921875 23.859375 L 57.113281 21.96875 L 55.003906 18.761719 L 60.273438 21.203125 L 60.828125 27.132812 C 62.25 28.386719 63.496094 29.816406 64.558594 31.398438 L 66.539062 30.355469 L 66.308594 26.5625 L 69.644531 31.300781 L 68.15625 34.539062 L 67.160156 36.707031 L 67.207031 36.867188 L 82.4375 36.867188 L 82.4375 34.539062 L 73.914062 34.539062 L 73.621094 31.316406 L 72.015625 34.539062 L 70.480469 34.539062 L 72.066406 31.070312 L 63.722656 19.234375 L 64.246094 27.554688 C 63.804688 27.050781 63.332031 26.578125 62.855469 26.121094 L 62.269531 19.804688 L 49.097656 13.714844 L 53.726562 20.652344 C 53.089844 20.4375 52.453125 20.261719 51.796875 20.097656 L 48.117188 14.917969 L 33.640625 16.1875 L 41.148438 19.902344 C 40.492188 20.03125 39.839844 20.195312 39.203125 20.390625 L 33.410156 17.753906 L 21.519531 26.058594 L 29.878906 25.535156 C 29.371094 25.976562 28.894531 26.429688 28.4375 26.917969 L 22.089844 27.507812 L 18.800781 34.523438 L 9.003906 34.523438 L 9.003906 36.851562 L 24.871094 36.851562 C 24.953125 36.609375 25.050781 36.332031 25.148438 36.054688 Z M 25.148438 36.054688 " fill-opacity="1" fill-rule="nonzero"/></g></g></g><g clip-path="url(#dc2f684c41)"><g clip-path="url(#ad2a5dfa5b)"><g clip-path="url(#186f5e7a65)"><path fill="#231916" d="M 63.675781 60.414062 L 70.023438 59.828125 L 73.308594 52.808594 L 82.503906 52.808594 L 82.503906 50.480469 L 67.242188 50.480469 C 67.140625 50.773438 67.042969 51.050781 66.945312 51.328125 C 66.898438 51.457031 66.847656 51.574219 66.800781 51.703125 C 66.765625 51.785156 66.734375 51.867188 66.699219 51.945312 C 66.652344 52.0625 66.601562 52.175781 66.570312 52.289062 C 66.539062 52.371094 66.488281 52.46875 66.457031 52.550781 C 66.308594 52.875 66.160156 53.183594 66.015625 53.511719 L 67.910156 54.699219 L 71.085938 52.597656 L 70.988281 52.808594 L 68.632812 57.859375 L 62.675781 58.410156 C 61.417969 59.828125 59.976562 61.066406 58.390625 62.125 L 59.4375 64.09375 L 63.25 63.851562 L 58.488281 67.171875 L 53.058594 64.695312 C 51.289062 65.28125 49.410156 65.65625 47.480469 65.769531 L 47.398438 68.003906 L 50.816406 69.695312 L 45.027344 70.199219 L 41.574219 65.347656 C 39.675781 64.957031 37.875 64.339844 36.191406 63.507812 L 34.996094 65.398438 L 37.109375 68.554688 L 31.839844 66.113281 L 31.285156 60.1875 C 29.859375 58.933594 28.617188 57.5 27.554688 55.921875 L 25.574219 56.960938 L 25.820312 60.757812 L 22.433594 56.050781 L 23.921875 52.808594 L 25.003906 50.480469 L 9.035156 50.480469 L 9.035156 52.808594 L 18.164062 52.808594 L 18.457031 56.035156 L 20.0625 52.808594 L 21.601562 52.808594 L 20.011719 56.277344 L 28.355469 68.117188 L 27.832031 59.796875 C 28.273438 60.300781 28.75 60.773438 29.222656 61.226562 L 29.8125 67.546875 L 42.980469 73.652344 L 38.367188 66.699219 C 39.003906 66.910156 39.644531 67.089844 40.296875 67.253906 L 43.980469 72.429688 L 58.457031 71.160156 L 50.949219 67.449219 C 51.601562 67.316406 52.257812 67.15625 52.894531 66.960938 L 58.683594 69.597656 L 70.578125 61.292969 L 62.21875 61.816406 C 62.726562 61.359375 63.199219 60.902344 63.675781 60.414062 Z M 63.675781 60.414062 " fill-opacity="1" fill-rule="nonzero"/></g></g></g><g clip-path="url(#3436ca4b41)"><g clip-path="url(#da79a34d9d)"><g clip-path="url(#8d558f43e3)"><path stroke-linecap="butt" transform="matrix(0.753484, 0, 0, 0.75, 9, 13.683336)" fill="none" stroke-linejoin="miter" d="M -0.0000000331792 28.000346 L -0.0000000331792 52.000347 C -0.0000000331792 67.463889 12.535521 80.000348 27.994961 80.000348 L 69.551924 80.000348 C 85.011364 80.000348 97.546885 67.463889 97.546885 52.000347 L 97.546885 28.000346 C 97.546885 12.536803 85.011364 0.000344203 69.551924 0.000344203 L 27.994961 0.000344203 C 12.535521 0.000344203 -0.0000000331792 12.536803 -0.0000000331792 28.000346 Z M -0.0000000331792 28.000346 " stroke="#000000" stroke-width="1" stroke-opacity="1" stroke-miterlimit="4"/></g></g></g><g fill="#000000" fill-opacity="1"><g transform="translate(24.376293, 46.016666)"><g><path d="M 11.09375 2.8125 C 11.132812 2.820312 11.164062 2.835938 11.1875 2.859375 C 11.21875 2.890625 11.226562 2.925781 11.21875 2.96875 C 11.21875 3 11.203125 3.023438 11.171875 3.046875 C 11.140625 3.066406 11.101562 3.082031 11.0625 3.09375 C 11.007812 3.09375 10.953125 3.085938 10.890625 3.078125 C 10.492188 3.015625 10.097656 2.972656 9.703125 2.953125 C 9.316406 2.929688 8.925781 2.914062 8.53125 2.90625 C 8.507812 2.90625 8.484375 2.90625 8.453125 2.90625 C 8.179688 2.894531 7.90625 2.882812 7.625 2.875 C 7.320312 2.875 7.015625 2.867188 6.703125 2.859375 C 6.273438 2.847656 5.847656 2.847656 5.421875 2.859375 C 4.992188 2.867188 4.566406 2.890625 4.140625 2.921875 C 4.109375 2.921875 4.070312 2.925781 4.03125 2.9375 C 4.007812 2.9375 3.988281 2.9375 3.96875 2.9375 C 3.789062 2.945312 3.660156 3.023438 3.578125 3.171875 C 3.515625 3.265625 3.441406 3.351562 3.359375 3.4375 C 3.347656 3.457031 3.335938 3.46875 3.328125 3.46875 C 3.097656 3.71875 2.84375 3.882812 2.5625 3.96875 C 2.28125 4.0625 1.976562 4.082031 1.65625 4.03125 C 1.539062 4.019531 1.429688 3.984375 1.328125 3.921875 C 1.148438 3.816406 1.054688 3.703125 1.046875 3.578125 C 1.046875 3.453125 1.125 3.328125 1.28125 3.203125 C 1.476562 3.078125 1.691406 2.988281 1.921875 2.9375 C 2.203125 2.863281 2.484375 2.796875 2.765625 2.734375 C 2.796875 2.734375 2.816406 2.734375 2.828125 2.734375 C 2.960938 2.710938 3.0625 2.691406 3.125 2.671875 C 3.195312 2.648438 3.25 2.613281 3.28125 2.5625 C 3.3125 2.507812 3.347656 2.429688 3.390625 2.328125 C 3.410156 2.285156 3.429688 2.242188 3.453125 2.203125 C 3.597656 1.878906 3.710938 1.550781 3.796875 1.21875 C 3.890625 0.882812 3.972656 0.546875 4.046875 0.203125 C 4.410156 -1.585938 4.632812 -3.390625 4.71875 -5.203125 C 4.738281 -5.671875 4.734375 -6.132812 4.703125 -6.59375 C 4.679688 -7.0625 4.628906 -7.523438 4.546875 -7.984375 C 4.515625 -8.179688 4.460938 -8.363281 4.390625 -8.53125 C 4.304688 -8.6875 4.210938 -8.785156 4.109375 -8.828125 C 4.015625 -8.878906 3.878906 -8.875 3.703125 -8.8125 C 3.367188 -8.707031 3.0625 -8.550781 2.78125 -8.34375 C 2.226562 -7.957031 1.769531 -7.503906 1.40625 -6.984375 C 1.050781 -6.460938 0.796875 -5.867188 0.640625 -5.203125 C 0.578125 -4.921875 0.566406 -4.632812 0.609375 -4.34375 C 0.640625 -4.113281 0.707031 -3.910156 0.8125 -3.734375 C 0.925781 -3.554688 1.09375 -3.421875 1.3125 -3.328125 C 1.351562 -3.316406 1.382812 -3.296875 1.40625 -3.265625 C 1.414062 -3.265625 1.421875 -3.257812 1.421875 -3.25 C 1.441406 -3.238281 1.445312 -3.21875 1.4375 -3.1875 C 1.4375 -3.15625 1.425781 -3.128906 1.40625 -3.109375 C 1.332031 -3.054688 1.25 -3.035156 1.15625 -3.046875 C 0.945312 -3.066406 0.765625 -3.144531 0.609375 -3.28125 C 0.378906 -3.488281 0.21875 -3.71875 0.125 -3.96875 C 0.0390625 -4.226562 0.0078125 -4.507812 0.03125 -4.8125 C 0.0625 -5.207031 0.148438 -5.59375 0.296875 -5.96875 C 0.535156 -6.59375 0.859375 -7.144531 1.265625 -7.625 C 1.671875 -8.113281 2.171875 -8.523438 2.765625 -8.859375 C 2.953125 -8.972656 3.144531 -9.0625 3.34375 -9.125 C 3.550781 -9.195312 3.769531 -9.234375 4 -9.234375 C 4.257812 -9.234375 4.472656 -9.175781 4.640625 -9.0625 C 4.816406 -8.945312 4.945312 -8.769531 5.03125 -8.53125 C 5.113281 -8.289062 5.175781 -8.050781 5.21875 -7.8125 C 5.289062 -7.3125 5.335938 -6.804688 5.359375 -6.296875 C 5.367188 -5.523438 5.34375 -4.753906 5.28125 -3.984375 C 5.21875 -3.210938 5.125 -2.445312 5 -1.6875 C 4.9375 -1.207031 4.863281 -0.734375 4.78125 -0.265625 C 4.695312 0.203125 4.59375 0.671875 4.46875 1.140625 C 4.351562 1.554688 4.207031 1.96875 4.03125 2.375 C 3.976562 2.507812 4.023438 2.570312 4.171875 2.5625 C 4.304688 2.550781 4.441406 2.539062 4.578125 2.53125 C 4.765625 2.519531 4.953125 2.507812 5.140625 2.5 C 5.484375 2.5 5.832031 2.5 6.1875 2.5 C 6.332031 2.5 6.476562 2.5 6.625 2.5 C 8.019531 2.507812 9.410156 2.585938 10.796875 2.734375 C 10.898438 2.753906 11 2.78125 11.09375 2.8125 Z M 2.703125 3.34375 C 2.710938 3.34375 2.722656 3.332031 2.734375 3.3125 C 2.753906 3.289062 2.769531 3.265625 2.78125 3.234375 C 2.800781 3.210938 2.804688 3.191406 2.796875 3.171875 C 2.796875 3.148438 2.78125 3.144531 2.75 3.15625 C 2.414062 3.1875 2.101562 3.28125 1.8125 3.4375 C 1.757812 3.457031 1.726562 3.476562 1.71875 3.5 C 1.707031 3.53125 1.710938 3.554688 1.734375 3.578125 C 1.804688 3.671875 1.90625 3.707031 2.03125 3.6875 C 2.164062 3.675781 2.289062 3.632812 2.40625 3.5625 C 2.53125 3.5 2.628906 3.425781 2.703125 3.34375 Z M 2.703125 3.34375 "/></g></g><g transform="translate(31.017402, 46.016666)"><g><path d="M 4.28125 -1.71875 C 4.3125 -1.71875 4.332031 -1.707031 4.34375 -1.6875 C 4.363281 -1.675781 4.375 -1.65625 4.375 -1.625 C 4.375 -1.550781 4.304688 -1.460938 4.171875 -1.359375 C 4.035156 -1.265625 3.882812 -1.175781 3.71875 -1.09375 C 3.550781 -1.007812 3.4375 -0.957031 3.375 -0.9375 C 3.132812 -0.851562 2.90625 -0.820312 2.6875 -0.84375 C 2.46875 -0.875 2.273438 -0.992188 2.109375 -1.203125 C 2.003906 -1.347656 1.925781 -1.410156 1.875 -1.390625 C 1.820312 -1.378906 1.753906 -1.316406 1.671875 -1.203125 C 1.597656 -1.078125 1.46875 -0.921875 1.28125 -0.734375 C 1.070312 -0.585938 0.875 -0.519531 0.6875 -0.53125 C 0.5 -0.539062 0.34375 -0.609375 0.21875 -0.734375 C 0.09375 -0.867188 0.015625 -1.039062 -0.015625 -1.25 C -0.0546875 -1.457031 -0.0351562 -1.679688 0.046875 -1.921875 C 0.109375 -2.097656 0.242188 -2.171875 0.453125 -2.140625 C 0.515625 -2.140625 0.5625 -2.117188 0.59375 -2.078125 C 0.625 -2.035156 0.628906 -1.988281 0.609375 -1.9375 C 0.566406 -1.75 0.550781 -1.5625 0.5625 -1.375 C 0.5625 -1.257812 0.582031 -1.148438 0.625 -1.046875 C 0.675781 -0.953125 0.742188 -0.9375 0.828125 -1 C 0.921875 -1.0625 1.007812 -1.148438 1.09375 -1.265625 C 1.1875 -1.378906 1.257812 -1.472656 1.3125 -1.546875 C 1.320312 -1.566406 1.332031 -1.582031 1.34375 -1.59375 C 1.363281 -1.625 1.378906 -1.65625 1.390625 -1.6875 C 1.453125 -1.78125 1.519531 -1.867188 1.59375 -1.953125 C 1.71875 -2.085938 1.867188 -2.148438 2.046875 -2.140625 C 2.210938 -2.128906 2.328125 -2.046875 2.390625 -1.890625 C 2.523438 -1.554688 2.71875 -1.375 2.96875 -1.34375 C 3.21875 -1.3125 3.492188 -1.390625 3.796875 -1.578125 C 3.867188 -1.640625 3.941406 -1.679688 4.015625 -1.703125 C 4.097656 -1.734375 4.1875 -1.738281 4.28125 -1.71875 Z M 4.28125 -1.71875 "/></g></g><g transform="translate(34.917302, 46.016666)"><g/></g><g transform="translate(37.620914, 46.016666)"><g><path d="M 15.125 -1.6875 C 15.21875 -1.757812 15.289062 -1.773438 15.34375 -1.734375 C 15.394531 -1.703125 15.40625 -1.632812 15.375 -1.53125 C 15.3125 -1.363281 15.179688 -1.128906 14.984375 -0.828125 C 14.796875 -0.535156 14.578125 -0.242188 14.328125 0.046875 C 14.085938 0.347656 13.851562 0.582031 13.625 0.75 C 13.457031 0.863281 13.273438 0.925781 13.078125 0.9375 C 12.722656 0.96875 12.503906 0.8125 12.421875 0.46875 C 12.378906 0.257812 12.351562 0.046875 12.34375 -0.171875 C 12.34375 -0.398438 12.367188 -0.804688 12.421875 -1.390625 C 12.453125 -1.734375 12.476562 -2.085938 12.5 -2.453125 C 12.53125 -2.828125 12.546875 -3.179688 12.546875 -3.515625 C 12.554688 -3.859375 12.539062 -4.144531 12.5 -4.375 C 12.457031 -4.601562 12.390625 -4.738281 12.296875 -4.78125 C 12.234375 -4.8125 12.171875 -4.804688 12.109375 -4.765625 C 12.054688 -4.734375 12.007812 -4.691406 11.96875 -4.640625 C 11.9375 -4.609375 11.910156 -4.582031 11.890625 -4.5625 C 11.535156 -4.207031 11.207031 -3.816406 10.90625 -3.390625 C 10.40625 -2.703125 9.925781 -1.988281 9.46875 -1.25 C 9.351562 -1.0625 9.222656 -0.878906 9.078125 -0.703125 C 8.953125 -0.535156 8.785156 -0.460938 8.578125 -0.484375 C 8.378906 -0.503906 8.269531 -0.609375 8.25 -0.796875 C 8.25 -0.929688 8.257812 -1.066406 8.28125 -1.203125 C 8.40625 -2.046875 8.492188 -2.941406 8.546875 -3.890625 C 8.609375 -4.847656 8.597656 -5.753906 8.515625 -6.609375 C 8.472656 -7.054688 8.390625 -7.304688 8.265625 -7.359375 C 8.148438 -7.410156 7.941406 -7.289062 7.640625 -7 C 7.429688 -6.8125 7.238281 -6.601562 7.0625 -6.375 C 6.882812 -6.144531 6.71875 -5.910156 6.5625 -5.671875 C 6.269531 -5.191406 6.003906 -4.703125 5.765625 -4.203125 C 5.523438 -3.703125 5.300781 -3.191406 5.09375 -2.671875 C 4.8125 -1.941406 4.550781 -1.207031 4.3125 -0.46875 C 4.082031 0.269531 3.859375 1.007812 3.640625 1.75 C 3.640625 1.769531 3.632812 1.785156 3.625 1.796875 C 3.550781 2.054688 3.476562 2.3125 3.40625 2.5625 C 3.320312 2.832031 3.242188 3.097656 3.171875 3.359375 C 3.140625 3.441406 3.109375 3.523438 3.078125 3.609375 C 3.054688 3.679688 3.035156 3.753906 3.015625 3.828125 C 2.960938 3.992188 2.847656 4.078125 2.671875 4.078125 C 2.535156 4.097656 2.4375 4.078125 2.375 4.015625 C 2.320312 3.953125 2.304688 3.847656 2.328125 3.703125 C 2.359375 3.398438 2.398438 3.09375 2.453125 2.78125 C 2.484375 2.582031 2.515625 2.382812 2.546875 2.1875 C 2.753906 0.8125 2.914062 -0.5625 3.03125 -1.9375 C 3.09375 -2.59375 3.132812 -3.28125 3.15625 -4 C 3.1875 -4.726562 3.179688 -5.445312 3.140625 -6.15625 C 3.097656 -6.863281 2.988281 -7.539062 2.8125 -8.1875 C 2.757812 -8.425781 2.675781 -8.65625 2.5625 -8.875 C 2.382812 -9.207031 2.101562 -9.363281 1.71875 -9.34375 C 1.507812 -9.320312 1.316406 -9.273438 1.140625 -9.203125 C 0.742188 -9.066406 0.320312 -8.851562 -0.125 -8.5625 C -0.582031 -8.269531 -1.019531 -7.921875 -1.4375 -7.515625 C -1.851562 -7.109375 -2.207031 -6.671875 -2.5 -6.203125 C -2.800781 -5.734375 -2.992188 -5.253906 -3.078125 -4.765625 C -3.171875 -4.273438 -3.109375 -3.800781 -2.890625 -3.34375 C -2.671875 -2.90625 -2.363281 -2.546875 -1.96875 -2.265625 C -1.238281 -1.753906 -0.4375 -1.460938 0.4375 -1.390625 C 0.457031 -1.390625 0.476562 -1.390625 0.5 -1.390625 C 0.550781 -1.390625 0.59375 -1.382812 0.625 -1.375 C 0.664062 -1.375 0.703125 -1.363281 0.734375 -1.34375 C 0.753906 -1.320312 0.769531 -1.300781 0.78125 -1.28125 C 0.789062 -1.257812 0.796875 -1.238281 0.796875 -1.21875 C 0.796875 -1.207031 0.789062 -1.191406 0.78125 -1.171875 C 0.769531 -1.160156 0.753906 -1.15625 0.734375 -1.15625 C 0.703125 -1.125 0.664062 -1.101562 0.625 -1.09375 C 0.59375 -1.09375 0.554688 -1.09375 0.515625 -1.09375 C 0.503906 -1.09375 0.492188 -1.09375 0.484375 -1.09375 C 0.148438 -1.070312 -0.175781 -1.101562 -0.5 -1.1875 C -1.21875 -1.332031 -1.875 -1.625 -2.46875 -2.0625 C -2.46875 -2.0625 -2.472656 -2.066406 -2.484375 -2.078125 C -2.515625 -2.097656 -2.546875 -2.117188 -2.578125 -2.140625 C -3.140625 -2.585938 -3.488281 -3.082031 -3.625 -3.625 C -3.757812 -4.175781 -3.734375 -4.738281 -3.546875 -5.3125 C -3.359375 -5.882812 -3.0625 -6.429688 -2.65625 -6.953125 C -2.25 -7.484375 -1.78125 -7.957031 -1.25 -8.375 C -0.71875 -8.789062 -0.175781 -9.117188 0.375 -9.359375 C 0.9375 -9.597656 1.457031 -9.710938 1.9375 -9.703125 C 2.269531 -9.703125 2.546875 -9.625 2.765625 -9.46875 C 2.984375 -9.320312 3.15625 -9.09375 3.28125 -8.78125 C 3.476562 -8.269531 3.617188 -7.703125 3.703125 -7.078125 C 3.785156 -6.453125 3.828125 -5.800781 3.828125 -5.125 C 3.828125 -4.445312 3.800781 -3.773438 3.75 -3.109375 C 3.707031 -2.441406 3.660156 -1.8125 3.609375 -1.21875 C 3.585938 -0.988281 3.570312 -0.769531 3.5625 -0.5625 C 3.550781 -0.519531 3.546875 -0.46875 3.546875 -0.40625 C 3.554688 -0.375 3.5625 -0.335938 3.5625 -0.296875 C 3.601562 -0.347656 3.632812 -0.398438 3.65625 -0.453125 C 3.6875 -0.515625 3.707031 -0.570312 3.71875 -0.625 C 3.726562 -0.644531 3.734375 -0.664062 3.734375 -0.6875 C 3.929688 -1.28125 4.140625 -1.867188 4.359375 -2.453125 C 4.578125 -3.046875 4.820312 -3.625 5.09375 -4.1875 C 5.269531 -4.570312 5.460938 -4.953125 5.671875 -5.328125 C 5.878906 -5.703125 6.113281 -6.0625 6.375 -6.40625 C 6.6875 -6.84375 7.054688 -7.222656 7.484375 -7.546875 C 7.710938 -7.722656 7.972656 -7.816406 8.265625 -7.828125 C 8.597656 -7.835938 8.828125 -7.695312 8.953125 -7.40625 C 9.054688 -7.1875 9.125 -6.957031 9.15625 -6.71875 C 9.238281 -5.945312 9.257812 -5.125 9.21875 -4.25 C 9.175781 -3.375 9.101562 -2.554688 9 -1.796875 C 9 -1.785156 9 -1.773438 9 -1.765625 C 9.007812 -1.765625 9.015625 -1.757812 9.015625 -1.75 C 9.054688 -1.75 9.085938 -1.757812 9.109375 -1.78125 C 9.140625 -1.800781 9.160156 -1.828125 9.171875 -1.859375 C 9.179688 -1.878906 9.1875 -1.894531 9.1875 -1.90625 C 9.601562 -2.570312 10.050781 -3.21875 10.53125 -3.84375 C 10.75 -4.101562 10.972656 -4.363281 11.203125 -4.625 C 11.222656 -4.644531 11.242188 -4.671875 11.265625 -4.703125 C 11.421875 -4.867188 11.597656 -5.003906 11.796875 -5.109375 C 11.960938 -5.210938 12.148438 -5.265625 12.359375 -5.265625 C 12.617188 -5.253906 12.816406 -5.140625 12.953125 -4.921875 C 13.085938 -4.691406 13.171875 -4.390625 13.203125 -4.015625 C 13.234375 -3.640625 13.234375 -3.226562 13.203125 -2.78125 C 13.179688 -2.332031 13.148438 -1.882812 13.109375 -1.4375 C 13.046875 -0.84375 13.015625 -0.347656 13.015625 0.046875 C 13.023438 0.222656 13.054688 0.332031 13.109375 0.375 C 13.160156 0.414062 13.226562 0.410156 13.3125 0.359375 C 13.394531 0.304688 13.488281 0.234375 13.59375 0.140625 C 13.738281 -0.00390625 13.878906 -0.160156 14.015625 -0.328125 C 14.160156 -0.503906 14.296875 -0.679688 14.421875 -0.859375 C 14.546875 -1.023438 14.664062 -1.175781 14.78125 -1.3125 C 14.894531 -1.457031 15.007812 -1.582031 15.125 -1.6875 Z M 15.125 -1.6875 "/></g></g><g transform="translate(52.659967, 46.016666)"><g><path d="M 3.78125 -1.78125 C 3.863281 -1.800781 3.914062 -1.800781 3.9375 -1.78125 C 3.957031 -1.757812 3.960938 -1.726562 3.953125 -1.6875 C 3.953125 -1.601562 3.921875 -1.53125 3.859375 -1.46875 C 3.796875 -1.40625 3.71875 -1.351562 3.625 -1.3125 C 3.394531 -1.207031 3.171875 -1.144531 2.953125 -1.125 C 2.742188 -1.113281 2.519531 -1.132812 2.28125 -1.1875 C 2.175781 -1.21875 2.085938 -1.21875 2.015625 -1.1875 C 1.941406 -1.164062 1.867188 -1.082031 1.796875 -0.9375 C 1.609375 -0.570312 1.3125 -0.367188 0.90625 -0.328125 C 0.601562 -0.296875 0.378906 -0.351562 0.234375 -0.5 C 0.0859375 -0.644531 -0.00390625 -0.832031 -0.046875 -1.0625 C -0.0859375 -1.289062 -0.078125 -1.503906 -0.015625 -1.703125 C 0.046875 -1.910156 0.15625 -2.101562 0.3125 -2.28125 C 0.425781 -2.40625 0.566406 -2.457031 0.734375 -2.4375 C 0.816406 -2.4375 0.878906 -2.40625 0.921875 -2.34375 C 0.953125 -2.300781 0.957031 -2.265625 0.9375 -2.234375 C 0.925781 -2.203125 0.90625 -2.175781 0.875 -2.15625 C 0.625 -1.894531 0.507812 -1.59375 0.53125 -1.25 C 0.53125 -1.082031 0.578125 -0.929688 0.671875 -0.796875 C 0.753906 -0.679688 0.851562 -0.660156 0.96875 -0.734375 C 1.082031 -0.828125 1.179688 -0.953125 1.265625 -1.109375 C 1.359375 -1.273438 1.410156 -1.441406 1.421875 -1.609375 C 1.429688 -1.773438 1.382812 -1.925781 1.28125 -2.0625 C 1.226562 -2.113281 1.175781 -2.144531 1.125 -2.15625 C 1.101562 -2.175781 1.082031 -2.191406 1.0625 -2.203125 C 1.039062 -2.210938 1.03125 -2.226562 1.03125 -2.25 C 1.019531 -2.363281 1.0625 -2.445312 1.15625 -2.5 C 1.25 -2.550781 1.359375 -2.578125 1.484375 -2.578125 C 1.617188 -2.578125 1.742188 -2.550781 1.859375 -2.5 C 1.972656 -2.445312 2.046875 -2.375 2.078125 -2.28125 C 2.109375 -2.144531 2.117188 -2.015625 2.109375 -1.890625 C 2.097656 -1.773438 2.144531 -1.6875 2.25 -1.625 C 2.457031 -1.476562 2.691406 -1.425781 2.953125 -1.46875 C 3.054688 -1.488281 3.148438 -1.515625 3.234375 -1.546875 C 3.328125 -1.585938 3.410156 -1.628906 3.484375 -1.671875 C 3.585938 -1.722656 3.6875 -1.757812 3.78125 -1.78125 Z M 3.78125 -1.78125 "/></g></g><g transform="translate(56.262504, 46.016666)"><g><path d="M 5.203125 -1.71875 C 5.273438 -1.707031 5.304688 -1.664062 5.296875 -1.59375 C 5.296875 -1.519531 5.269531 -1.445312 5.21875 -1.375 C 5.101562 -1.195312 4.953125 -1.035156 4.765625 -0.890625 C 4.578125 -0.753906 4.378906 -0.65625 4.171875 -0.59375 C 3.972656 -0.539062 3.785156 -0.550781 3.609375 -0.625 C 3.441406 -0.707031 3.3125 -0.875 3.21875 -1.125 C 3.132812 -1.34375 3.082031 -1.566406 3.0625 -1.796875 C 3.0625 -1.878906 3.054688 -2.078125 3.046875 -2.390625 C 3.046875 -2.710938 3.039062 -3.050781 3.03125 -3.40625 C 3.03125 -3.757812 3.03125 -4.019531 3.03125 -4.1875 C 3.03125 -4.269531 3.03125 -4.316406 3.03125 -4.328125 C 2.90625 -3.847656 2.753906 -3.351562 2.578125 -2.84375 C 2.398438 -2.34375 2.273438 -2.007812 2.203125 -1.84375 C 2.054688 -1.53125 1.894531 -1.222656 1.71875 -0.921875 C 1.59375 -0.722656 1.441406 -0.546875 1.265625 -0.390625 C 1.117188 -0.265625 0.945312 -0.1875 0.75 -0.15625 C 0.5625 -0.132812 0.378906 -0.160156 0.203125 -0.234375 C 0.0351562 -0.316406 -0.0703125 -0.445312 -0.125 -0.625 C -0.1875 -0.84375 -0.203125 -1.050781 -0.171875 -1.25 C -0.140625 -1.457031 -0.0507812 -1.648438 0.09375 -1.828125 C 0.25 -2.023438 0.425781 -2.15625 0.625 -2.21875 C 0.832031 -2.28125 1.054688 -2.28125 1.296875 -2.21875 C 1.367188 -2.195312 1.441406 -2.171875 1.515625 -2.140625 C 1.554688 -2.128906 1.59375 -2.117188 1.625 -2.109375 C 1.75 -2.253906 1.882812 -2.546875 2.03125 -2.984375 C 2.175781 -3.429688 2.304688 -3.890625 2.421875 -4.359375 C 2.535156 -4.828125 2.617188 -5.164062 2.671875 -5.375 C 2.804688 -6 2.921875 -6.625 3.015625 -7.25 C 3.085938 -7.65625 3.160156 -8.0625 3.234375 -8.46875 C 3.265625 -8.59375 3.335938 -8.675781 3.453125 -8.71875 C 3.578125 -8.757812 3.691406 -8.738281 3.796875 -8.65625 C 3.847656 -8.613281 3.875 -8.566406 3.875 -8.515625 C 3.851562 -7.773438 3.820312 -7.035156 3.78125 -6.296875 C 3.757812 -5.992188 3.742188 -5.703125 3.734375 -5.421875 C 3.703125 -4.847656 3.675781 -4.28125 3.65625 -3.71875 C 3.644531 -3.15625 3.65625 -2.585938 3.6875 -2.015625 C 3.6875 -1.992188 3.6875 -1.972656 3.6875 -1.953125 C 3.6875 -1.835938 3.695312 -1.703125 3.71875 -1.546875 C 3.738281 -1.390625 3.78125 -1.253906 3.84375 -1.140625 C 3.90625 -1.023438 4.003906 -0.988281 4.140625 -1.03125 C 4.242188 -1.0625 4.347656 -1.113281 4.453125 -1.1875 C 4.566406 -1.269531 4.675781 -1.359375 4.78125 -1.453125 C 4.863281 -1.523438 4.941406 -1.585938 5.015625 -1.640625 C 5.085938 -1.691406 5.148438 -1.71875 5.203125 -1.71875 Z M 0.875 -0.734375 C 1 -0.878906 1.109375 -1.03125 1.203125 -1.1875 C 1.296875 -1.351562 1.390625 -1.53125 1.484375 -1.71875 C 1.367188 -1.78125 1.253906 -1.828125 1.140625 -1.859375 C 1.035156 -1.890625 0.929688 -1.882812 0.828125 -1.84375 C 0.734375 -1.800781 0.640625 -1.707031 0.546875 -1.5625 C 0.378906 -1.257812 0.351562 -0.945312 0.46875 -0.625 C 0.5 -0.550781 0.539062 -0.519531 0.59375 -0.53125 C 0.644531 -0.539062 0.695312 -0.566406 0.75 -0.609375 C 0.800781 -0.660156 0.84375 -0.703125 0.875 -0.734375 Z M 0.875 -0.734375 "/></g></g><g transform="translate(61.180958, 46.016666)"><g><path d="M 3.125 -1.71875 C 3.15625 -1.71875 3.175781 -1.710938 3.1875 -1.703125 C 3.195312 -1.691406 3.207031 -1.671875 3.21875 -1.640625 C 3.226562 -1.609375 3.21875 -1.570312 3.1875 -1.53125 C 3.15625 -1.488281 3.125 -1.457031 3.09375 -1.4375 C 2.90625 -1.257812 2.6875 -1.15625 2.4375 -1.125 C 2.300781 -1.101562 2.160156 -1.097656 2.015625 -1.109375 C 1.867188 -1.117188 1.726562 -1.148438 1.59375 -1.203125 C 1.488281 -1.253906 1.394531 -1.238281 1.3125 -1.15625 C 1.132812 -1 0.945312 -0.84375 0.75 -0.6875 C 0.644531 -0.613281 0.535156 -0.550781 0.421875 -0.5 C 0.316406 -0.445312 0.195312 -0.421875 0.0625 -0.421875 C -0.3125 -0.421875 -0.460938 -0.601562 -0.390625 -0.96875 C -0.378906 -0.988281 -0.367188 -1.003906 -0.359375 -1.015625 C -0.253906 -1.304688 -0.113281 -1.570312 0.0625 -1.8125 C 0.25 -2.050781 0.476562 -2.25 0.75 -2.40625 C 0.9375 -2.519531 1.132812 -2.5625 1.34375 -2.53125 C 1.394531 -2.519531 1.445312 -2.5 1.5 -2.46875 C 1.5625 -2.4375 1.585938 -2.390625 1.578125 -2.328125 C 1.566406 -2.304688 1.550781 -2.285156 1.53125 -2.265625 C 1.519531 -2.253906 1.507812 -2.242188 1.5 -2.234375 C 1.488281 -2.222656 1.472656 -2.210938 1.453125 -2.203125 C 1.441406 -2.203125 1.429688 -2.203125 1.421875 -2.203125 C 1.265625 -2.191406 1.128906 -2.144531 1.015625 -2.0625 C 0.910156 -1.976562 0.816406 -1.882812 0.734375 -1.78125 C 0.628906 -1.675781 0.535156 -1.554688 0.453125 -1.421875 C 0.367188 -1.285156 0.300781 -1.125 0.25 -0.9375 C 0.445312 -1.050781 0.601562 -1.164062 0.71875 -1.28125 C 0.738281 -1.300781 0.765625 -1.320312 0.796875 -1.34375 C 0.816406 -1.363281 0.832031 -1.382812 0.84375 -1.40625 C 0.945312 -1.5 1.054688 -1.582031 1.171875 -1.65625 C 1.296875 -1.71875 1.414062 -1.75 1.53125 -1.75 C 1.65625 -1.75 1.773438 -1.703125 1.890625 -1.609375 C 2.054688 -1.460938 2.210938 -1.40625 2.359375 -1.4375 C 2.515625 -1.46875 2.65625 -1.519531 2.78125 -1.59375 C 2.914062 -1.675781 3.03125 -1.71875 3.125 -1.71875 Z M 3.125 -1.71875 "/></g></g><g transform="translate(64.075976, 46.016666)"><g><path d="M 3.015625 -1.71875 C 3.097656 -1.695312 3.144531 -1.644531 3.15625 -1.5625 C 3.164062 -1.488281 3.125 -1.414062 3.03125 -1.34375 C 2.945312 -1.257812 2.867188 -1.1875 2.796875 -1.125 C 2.585938 -0.957031 2.367188 -0.78125 2.140625 -0.59375 C 1.960938 -0.445312 1.796875 -0.285156 1.640625 -0.109375 C 1.535156 0.00390625 1.453125 0.132812 1.390625 0.28125 C 1.335938 0.476562 1.238281 0.65625 1.09375 0.8125 C 1.019531 0.90625 0.929688 0.960938 0.828125 0.984375 C 0.722656 1.003906 0.613281 1 0.5 0.96875 C 0.445312 0.945312 0.40625 0.914062 0.375 0.875 C 0.351562 0.832031 0.347656 0.785156 0.359375 0.734375 C 0.378906 0.648438 0.410156 0.570312 0.453125 0.5 C 0.523438 0.394531 0.597656 0.300781 0.671875 0.21875 C 0.671875 0.207031 0.675781 0.195312 0.6875 0.1875 C 0.945312 -0.132812 0.960938 -0.46875 0.734375 -0.8125 C 0.679688 -0.894531 0.617188 -0.96875 0.546875 -1.03125 C 0.523438 -1.0625 0.503906 -1.085938 0.484375 -1.109375 C 0.441406 -1.160156 0.398438 -1.207031 0.359375 -1.25 C 0.265625 -1.34375 0.179688 -1.4375 0.109375 -1.53125 C -0.117188 -1.851562 -0.101562 -2.160156 0.15625 -2.453125 C 0.375 -2.710938 0.648438 -2.890625 0.984375 -2.984375 C 1.179688 -3.046875 1.378906 -3.03125 1.578125 -2.9375 C 1.753906 -2.832031 1.835938 -2.675781 1.828125 -2.46875 C 1.804688 -2.332031 1.734375 -2.25 1.609375 -2.21875 C 1.460938 -2.1875 1.351562 -2.234375 1.28125 -2.359375 C 1.257812 -2.410156 1.242188 -2.457031 1.234375 -2.5 C 1.234375 -2.53125 1.222656 -2.554688 1.203125 -2.578125 C 1.179688 -2.597656 1.15625 -2.601562 1.125 -2.59375 C 1.09375 -2.59375 1.039062 -2.566406 0.96875 -2.515625 C 0.851562 -2.453125 0.75 -2.363281 0.65625 -2.25 C 0.519531 -2.082031 0.515625 -1.90625 0.640625 -1.71875 C 0.679688 -1.664062 0.726562 -1.613281 0.78125 -1.5625 C 0.832031 -1.5 0.882812 -1.4375 0.9375 -1.375 C 1.03125 -1.28125 1.125 -1.179688 1.21875 -1.078125 C 1.3125 -0.972656 1.390625 -0.859375 1.453125 -0.734375 C 1.503906 -0.742188 1.59375 -0.789062 1.71875 -0.875 C 1.84375 -0.957031 1.976562 -1.054688 2.125 -1.171875 C 2.269531 -1.285156 2.40625 -1.390625 2.53125 -1.484375 C 2.625 -1.554688 2.691406 -1.609375 2.734375 -1.640625 C 2.773438 -1.671875 2.816406 -1.691406 2.859375 -1.703125 C 2.910156 -1.710938 2.960938 -1.71875 3.015625 -1.71875 Z M 3.015625 -1.71875 "/></g></g></g></svg>